<svg width="182" height="80" viewBox="0 0 182 80" fill="none" xmlns="http://www.w3.org/2000/svg">
<path d="M1.9043 62.4038V44.9072H8.93528C10.2536 44.9072 11.2789 44.9804 12.1578 45.1268C13.0367 45.2732 13.6958 45.5661 14.2818 45.9321C14.7944 46.2981 15.1606 46.8838 15.3804 47.6159C15.6001 48.348 15.7465 49.2997 15.7465 50.5442C15.7465 51.7887 15.6001 52.7404 15.3804 53.4725C15.1606 54.2046 14.7944 54.7902 14.2818 55.1563C13.7691 55.5223 13.0367 55.8151 12.1578 55.9615C11.2789 56.1079 10.1804 56.1812 8.93528 56.1812H3.80852V62.477H1.9043V62.4038ZM13.6958 50.471C13.6958 49.5193 13.6226 48.7872 13.4029 48.2747C13.2564 47.7623 12.9635 47.323 12.5973 47.1034C12.2311 46.8106 11.7184 46.6642 11.1325 46.591C10.5466 46.5178 9.81416 46.5178 8.93528 46.5178H3.80852V54.5706H8.93528C9.81416 54.5706 10.5466 54.5706 11.1325 54.4974C11.7184 54.4242 12.2311 54.2778 12.5973 54.0581C12.9635 53.8385 13.2564 53.3993 13.4029 52.8868C13.5494 52.3744 13.6958 51.6423 13.6958 50.6906V50.471Z" fill="#3D3C3C"/>
<path d="M18.0898 62.4038V44.9072H31.1265L30.8335 46.4446H19.9941V52.5208H28.7828V54.0581H19.9941V60.72H31.1265L30.8335 62.3306H18.0898V62.4038Z" fill="#3D3C3C"/>
<path d="M45.7007 62.4038L41.0134 56.108H35.3739V62.4038H33.3965V44.9072H40.5007C41.819 44.9072 42.8444 44.9804 43.7232 45.1268C44.6021 45.2732 45.2613 45.5661 45.8472 45.9321C46.3599 46.2981 46.7261 46.8838 46.9458 47.6159C47.1655 48.348 47.312 49.2997 47.312 50.5442C47.312 51.4959 47.2387 52.3012 47.0923 52.96C46.9458 53.6189 46.7261 54.1314 46.4331 54.5706C46.1401 55.0098 45.7007 55.3027 45.188 55.5223C44.6754 55.7419 44.0162 55.8883 43.2838 56.0347L48.1176 62.4038H45.7007ZM40.574 54.5706C41.4528 54.5706 42.1852 54.5706 42.7711 54.4974C43.3571 54.4242 43.8697 54.2778 44.2359 53.9849C44.6021 53.6921 44.8951 53.3261 45.0416 52.8136C45.188 52.3012 45.3345 51.4959 45.3345 50.5442C45.3345 49.5193 45.2613 48.7872 45.0416 48.2015C44.8951 47.6891 44.6021 47.2498 44.2359 47.0302C43.8697 46.8106 43.3571 46.591 42.7711 46.591C42.1852 46.5178 41.4528 46.5178 40.574 46.5178H35.3739V54.5706H40.574Z" fill="#3D3C3C"/>
<path d="M63.7192 47.1034C63.4995 47.0302 63.1333 46.8838 62.6939 46.8106C62.2544 46.7374 61.815 46.591 61.3023 46.5178C60.7897 46.4446 60.277 46.3714 59.6911 46.2982C59.1052 46.2249 58.5925 46.2249 58.0066 46.2249C56.3953 46.2249 55.1502 46.4446 54.3446 46.8838C53.539 47.3231 53.0995 48.2016 53.0995 49.4461C53.0995 50.0317 53.0995 50.471 53.1728 50.7638C53.246 51.0566 53.3925 51.3495 53.6122 51.4959C53.8319 51.7155 54.1981 51.8619 54.6375 51.9351C55.077 52.0815 55.7361 52.228 56.5418 52.3744C57.5671 52.594 58.5925 52.8136 59.6178 52.96C60.6432 53.1065 61.5953 53.3993 62.4009 53.6921C63.2066 54.0582 63.939 54.4974 64.4516 55.0831C64.9643 55.6687 65.2573 56.474 65.2573 57.5721C65.2573 58.597 65.1108 59.4755 64.7446 60.1344C64.3784 60.7933 63.939 61.3057 63.2798 61.6717C62.6939 62.0378 61.8883 62.3306 61.0826 62.477C60.2037 62.6234 59.2516 62.6966 58.2263 62.6966C57.5671 62.6966 56.908 62.6966 56.1756 62.6234C55.4432 62.5502 54.784 62.477 54.1249 62.3306C53.4657 62.1842 52.8066 62.0378 52.2206 61.8914C51.6347 61.7449 51.1221 61.5253 50.7559 61.3789C50.9023 61.0861 51.0488 60.8665 51.1953 60.6468C51.3418 60.4272 51.4883 60.1344 51.6347 59.9148C51.9277 59.988 52.2939 60.1344 52.7333 60.2808C53.1728 60.4272 53.6854 60.5736 54.2713 60.72C54.8573 60.8665 55.5164 60.9397 56.2488 61.0129C56.9812 61.0861 57.7136 61.1593 58.5192 61.1593C59.2516 61.1593 59.984 61.1593 60.5699 61.0861C61.1559 61.0861 61.6685 60.9397 62.108 60.72C62.5474 60.5004 62.8404 60.1344 63.0601 59.6951C63.2798 59.2559 63.4263 58.597 63.4263 57.7185C63.4263 57.2061 63.353 56.7668 63.2066 56.4008C63.0601 56.108 62.8404 55.8151 62.5474 55.6687C62.2544 55.4491 61.8883 55.3027 61.3756 55.2295C60.8629 55.1563 60.277 55.0099 59.5446 54.8634C58.0066 54.5706 56.6883 54.351 55.6629 54.0582C54.5643 53.8385 53.7587 53.5457 53.0995 53.1797C52.4404 52.8136 51.9277 52.3744 51.6347 51.7887C51.3418 51.2031 51.1953 50.3978 51.1953 49.3729C51.1953 48.5676 51.3418 47.9087 51.708 47.2499C52.0742 46.6642 52.5136 46.1517 53.0995 45.7857C53.6854 45.4197 54.3446 45.1268 55.1502 44.9072C55.9559 44.6876 56.7615 44.6144 57.6404 44.6144C58.2995 44.6144 58.9587 44.6144 59.6178 44.6876C60.277 44.7608 60.9361 44.834 61.5221 44.9072C62.108 44.9804 62.6939 45.1268 63.2798 45.2C63.7925 45.3465 64.3052 45.4929 64.6714 45.6393L63.7192 47.1034Z" fill="#3D3C3C"/>
<path d="M68.6992 62.4038V44.9072H75.7302C77.0485 44.9072 78.0739 44.9804 78.9527 45.1268C79.8316 45.2732 80.4908 45.5661 81.0767 45.9321C81.5894 46.2981 81.9556 46.8838 82.1753 47.6159C82.395 48.348 82.5415 49.2997 82.5415 50.5442C82.5415 51.7887 82.395 52.7404 82.1753 53.4725C81.9556 54.2046 81.5894 54.7902 81.0767 55.1563C80.564 55.5223 79.8316 55.8151 78.9527 55.9615C78.0739 56.1079 76.9753 56.1812 75.7302 56.1812H70.6034V62.477H68.6992V62.4038ZM80.4908 50.471C80.4908 49.5193 80.4175 48.7872 80.1978 48.2747C80.0513 47.7623 79.7584 47.323 79.3922 47.1034C79.026 46.8106 78.5133 46.6642 77.9274 46.591C77.3415 46.5178 76.6091 46.5178 75.7302 46.5178H70.6034V54.5706H75.7302C76.6091 54.5706 77.3415 54.5706 77.9274 54.4974C78.5133 54.4242 79.026 54.2778 79.3922 54.0581C79.7584 53.8385 80.0513 53.3993 80.1978 52.8868C80.3443 52.3744 80.4908 51.6423 80.4908 50.6906V50.471Z" fill="#3D3C3C"/>
<path d="M84.8848 62.4038V44.9072H97.9214L97.6284 46.4446H86.789V52.5208H95.5777V54.0581H86.789V60.72H97.9214L97.6284 62.3306H84.8848V62.4038Z" fill="#3D3C3C"/>
<path d="M114.839 61.5253C114.107 61.8914 113.155 62.1842 112.056 62.4038C110.958 62.6234 109.713 62.6966 108.467 62.6966C107.149 62.6966 105.904 62.5502 104.805 62.3306C103.707 62.111 102.828 61.6717 102.022 61.0129C101.29 60.354 100.704 59.4755 100.265 58.231C99.8252 57.0597 99.6055 55.5223 99.6055 53.5457C99.6055 51.6423 99.8252 50.0317 100.265 48.8604C100.704 47.6891 101.29 46.7374 102.022 46.0785C102.755 45.4196 103.707 44.9804 104.805 44.7608C105.904 44.5412 107.076 44.3947 108.467 44.3947C111.031 44.3947 113.082 44.7608 114.62 45.4929L113.741 46.957C113.228 46.8106 112.496 46.591 111.617 46.2981C110.738 46.0785 109.713 45.9321 108.614 45.9321C107.662 45.9321 106.71 46.0053 105.904 46.1517C105.098 46.2981 104.366 46.591 103.707 47.1034C103.121 47.6159 102.608 48.348 102.242 49.3729C101.876 50.3978 101.729 51.7155 101.729 53.4725C101.729 55.2295 101.876 56.6204 102.242 57.5721C102.608 58.597 103.048 59.3291 103.707 59.8415C104.293 60.354 105.025 60.6468 105.904 60.7932C106.71 60.9397 107.662 61.0129 108.614 61.0129C109.127 61.0129 109.713 60.9397 110.225 60.8665C110.738 60.7932 111.251 60.72 111.763 60.5736C112.203 60.5004 112.642 60.354 113.082 60.2076C113.448 60.0612 113.814 59.988 114.034 59.9148L114.839 61.5253Z" fill="#3D3C3C"/>
<path d="M140.254 62.4038V44.9072H142.231V62.4038H140.254Z" fill="#3D3C3C"/>
<path d="M152.265 62.4038L145.234 44.9072H147.285L152.339 57.4257L153.364 60.72H153.51L154.536 57.4257L159.589 44.9072H161.64L154.609 62.4038H152.265Z" fill="#3D3C3C"/>
<path d="M164.643 62.4038V44.9072H177.679L177.386 46.4446H166.547V52.5208H175.336V54.0581H166.547V60.72H177.679L177.386 62.3306H164.643V62.4038Z" fill="#3D3C3C"/>
<path d="M148.018 26.3857C148.531 27.4838 147.798 28.1427 146.919 28.8747C146.041 29.6068 144.795 29.9728 143.697 29.9728C142.525 30.0461 141.353 30.0461 140.181 30.1193C137.618 30.4121 135.274 31.7298 133.297 33.3404C134.615 28.8015 138.643 25.1411 143.257 24.1894C144.136 24.043 145.015 23.8966 145.821 24.1162C146.773 24.4091 147.652 25.6536 148.018 26.3857Z" fill="#F26322"/>
<path d="M142.598 34.5117C143.477 33.7796 142.818 32.4619 142.525 32.1691C142.232 31.8762 141.72 31.6566 141.207 31.5102C139.669 31.1441 138.131 31.437 136.812 32.3887C137.105 32.0958 138.643 33.0475 138.936 33.3404C139.449 33.7064 141.06 35.7562 142.598 34.5117Z" fill="#F26322"/>
<path d="M145.821 16.8687C148.457 19.1381 145.894 21.92 144.869 22.3592C143.111 23.0913 142.452 23.3842 140.694 24.1162C138.936 24.8483 136.153 26.166 135.348 27.8498C135.787 24.1162 137.398 20.5291 139.888 17.7472C140.621 16.8687 143.55 14.9653 145.821 16.8687Z" fill="#F26322"/>
<path d="M139.962 10.28C140.475 9.84077 141.061 9.40153 141.72 9.25511C142.379 9.1087 143.111 9.18191 143.624 9.62115C144.357 10.2068 144.357 11.3781 143.917 12.1834C143.478 13.0619 142.818 13.6476 142.013 14.2332C141.427 14.7457 140.841 15.1849 140.255 15.6974C139.157 16.6491 137.911 17.674 137.472 19.0649C136.593 15.9902 137.618 12.4762 139.962 10.28Z" fill="#F26322"/>
<path d="M135.494 14.4528C134.688 12.6959 134.396 11.0853 134.322 9.18189C134.322 8.66944 135.348 4.56981 137.838 5.66793C140.035 6.61962 139.01 9.03547 138.497 9.91396C137.398 11.4513 136.739 12.3298 136.3 15.6242C136.08 15.5509 135.641 14.6725 135.494 14.4528Z" fill="#F26322"/>
<path d="M129.927 2.73964C132.71 2.95926 133.296 6.10718 133.296 7.57134C133.296 11.8906 130.806 16.0634 129.488 16.7223C130.147 15.8438 129.707 13.9404 129.414 12.9155C129.121 11.9638 128.902 10.7925 128.316 9.91398C127.583 8.81586 126.704 7.35171 126.558 6.10718C126.412 4.93586 126.778 2.52001 129.927 2.73964Z" fill="#F26322"/>
<path d="M134.909 15.1117C136.813 18.2596 136.007 21.7736 135.568 23.0913C135.348 21.9932 135.348 20.3094 133.883 19.0649C133.078 18.3328 131.613 17.0151 131.613 15.917C131.54 14.3796 134.03 13.7208 134.909 15.1117Z" fill="#F26322"/>
<path d="M132.271 20.2363C133.589 21.3344 134.614 23.5306 133.955 27.191C133.662 28.7283 131.099 36.9276 127.364 38.6846C127.657 37.3668 128.096 35.0974 128.169 33.7797C128.316 28.8015 125.899 26.1661 126.045 22.9449C126.045 20.3095 128.755 17.2348 132.271 20.2363Z" fill="#F26322"/>
<path d="M127.071 11.1585C128.243 12.2566 128.536 14.3064 128.023 15.917C127.437 17.8936 126.046 19.0649 125.387 20.9683C124.654 23.1645 125.094 25.5804 125.753 27.8498C123.189 25.8 121.578 23.9698 120.553 20.8219C120.04 19.2113 119.381 16.4295 119.674 14.7457C119.967 13.0619 120.626 11.671 122.091 10.7925C123.629 9.98719 125.899 9.98719 127.071 11.1585Z" fill="#F26322"/>
<path d="M115.061 5.96076C113.742 6.25359 113.01 7.79095 113.083 9.10869C113.156 10.4264 113.449 11.5245 114.182 12.6959C115.5 14.8189 116.745 17.1615 118.723 18.7721C118.21 18.1864 119.016 13.2083 119.089 11.4513C119.162 9.69435 118.796 7.86416 117.551 6.76604C116.892 6.10718 116.013 5.74114 115.061 5.96076Z" fill="#F26322"/>
<path d="M108.834 12.9887C108.834 13.5012 109.2 13.9404 109.64 14.2332C110.079 14.5261 110.592 14.5993 111.104 14.7457C112.203 15.0385 113.448 15.2581 114.547 15.4778C114.107 14.2332 113.302 13.1351 112.276 12.3298C111.69 11.8906 110.958 11.5245 110.299 11.5978C109.566 11.671 108.834 12.2566 108.834 12.9887Z" fill="#F26322"/>
<path d="M116.233 18.6989C115.72 18.1864 109.202 13.8672 107.81 17.8936C106.711 21.0415 112.131 21.92 116.233 22.9449C118.576 23.4574 120.114 24.4091 121.506 24.9947C120.334 23.311 119.968 22.8717 116.233 18.6989Z" fill="#F26322"/>
<path d="M108.029 26.7517C107.663 27.9962 108.396 32.3155 113.522 31.6566C114.841 31.5102 120.407 30.3389 122.165 30.7049C123.922 30.9977 125.314 31.2174 126.412 32.5351C126.12 30.1925 120.553 25.6536 118.21 24.9947C110.959 22.8717 108.322 25.8732 108.029 26.7517Z" fill="#F26322"/>
<path d="M126.852 37.9525C127.951 36.1223 125.534 29.8264 117.038 32.4619C115.28 32.9744 114.255 34.2189 113.596 34.7313C115.353 34.4385 117.99 33.9261 120.553 37.3668C121.359 38.4649 125.021 40.8808 126.852 37.9525Z" fill="#F26322"/>
<path d="M110.374 33.7064C110.667 35.8295 111.985 34.951 112.498 34.5117C113.23 33.9261 113.303 33.4136 114.255 33.1208C113.523 32.8279 110.154 31.9495 110.374 33.7064Z" fill="#F26322"/>
<path d="M106.711 22.4325C106.125 22.8717 105.978 24.1895 106.491 24.7019C106.784 24.9947 107.224 24.9947 107.663 24.9215C108.029 24.8483 108.395 24.5555 108.762 24.3359C109.494 23.8966 110.226 23.5306 111.032 23.2378C110.373 22.9449 109.714 22.6521 108.981 22.5057C108.322 22.3593 107.297 21.9932 106.711 22.4325Z" fill="#F26322"/>
<path d="M121.139 9.62115C123.044 9.76756 124.948 8.88907 126.706 9.54794C126.193 8.44982 125.168 7.49813 123.922 7.13209C122.751 6.76605 121.359 7.05888 120.407 7.93737C120.114 8.2302 119.894 8.66945 120.041 9.03549C120.187 9.40152 120.7 9.54794 121.139 9.62115Z" fill="#F26322"/>
<path d="M122.896 5.88758C121.578 6.1072 120.333 6.61965 119.234 7.20531C119.161 6.32682 119.381 5.37512 120.04 4.71626C120.699 4.05739 121.578 3.76456 122.457 3.76456C122.896 3.83776 123.409 3.98418 123.629 4.35022C123.921 4.71626 123.921 5.30192 123.555 5.59475C123.336 5.81437 123.116 5.81437 122.896 5.88758Z" fill="#F26322"/>
<path d="M114.912 37.1472C114.912 37.1472 117.402 41.32 120.918 44.1019C123.042 45.7857 124.946 46.2249 125.385 47.6891C125.971 49.5193 124.799 50.9102 123.847 54.2045C122.822 57.7917 121.87 62.0377 122.675 62.0377H131.245C126.923 56.9132 129.853 48.5676 131.171 45.8589C132.27 43.6627 132.123 43.077 134.174 40.0023C136.225 36.9276 137.69 34.8777 137.69 34.8777C137.69 34.8777 136.445 35.3902 132.929 38.6113C129.78 41.5396 128.681 42.3449 125.971 42.711C121.797 43.443 114.912 37.1472 114.912 37.1472Z" fill="#3D3C3C"/>
<path d="M91.8425 76.6793V70.0906L89.0594 76.6793H88.1805L85.3974 70.0906V76.6793H84.5918V69.1389H85.8369L88.1805 74.5562L88.6932 75.9472L89.2059 74.5562L91.5495 69.1389H92.7946V76.6793H91.8425Z" fill="#3D3C3C"/>
<path d="M100.339 76.6793L99.3865 74.3366H95.9443L94.9922 76.6793H94.1133L97.1161 69.1389H98.1415L101.144 76.6793H100.339ZM98.2147 71.2619L97.7753 69.871H97.702L97.2626 71.2619L96.3105 73.6778H99.24L98.2147 71.2619Z" fill="#3D3C3C"/>
<path d="M108.101 73.1653H105.684L105.831 72.5064H108.907V76.24C108.76 76.3132 108.541 76.3864 108.321 76.5328C108.101 76.6793 107.808 76.6793 107.589 76.7525C107.296 76.8257 107.003 76.8257 106.71 76.8989C106.417 76.8989 106.124 76.9721 105.831 76.9721C105.245 76.9721 104.732 76.8989 104.22 76.8257C103.707 76.7525 103.414 76.5328 103.048 76.24C102.755 75.9472 102.535 75.5812 102.315 75.0687C102.096 74.5562 102.096 73.8974 102.096 73.0189C102.096 72.2136 102.169 71.5547 102.389 71.0423C102.608 70.5298 102.828 70.1638 103.121 69.871C103.414 69.5781 103.853 69.4317 104.293 69.2853C104.732 69.1389 105.245 69.1389 105.831 69.1389C106.344 69.1389 106.856 69.2121 107.369 69.2853C107.808 69.3585 108.248 69.5049 108.541 69.6513L108.175 70.237C108.101 70.1638 107.955 70.1638 107.735 70.0906C107.589 70.0174 107.369 70.0174 107.222 69.9442C107.003 69.871 106.783 69.871 106.563 69.7978C106.344 69.7245 106.124 69.7245 105.904 69.7245C105.465 69.7245 105.099 69.7245 104.732 69.7978C104.366 69.871 104.073 70.0174 103.78 70.1638C103.487 70.3102 103.341 70.6762 103.194 71.1155C103.048 71.5547 102.975 72.1404 102.975 72.8725C102.975 73.6045 103.048 74.117 103.121 74.5562C103.194 74.9955 103.414 75.2883 103.634 75.5811C103.853 75.8008 104.146 75.9472 104.586 76.0204C104.952 76.0936 105.465 76.1668 105.977 76.1668C106.124 76.1668 106.344 76.1668 106.563 76.0936C106.783 76.0936 106.93 76.0204 107.149 76.0204C107.296 75.9472 107.515 75.9472 107.662 75.874C107.808 75.8008 107.955 75.8008 108.101 75.7276V73.1653Z" fill="#3D3C3C"/>
<path d="M110.664 76.6793V69.1389H116.303L116.157 69.7978H111.47V72.4332H115.278V73.0921H111.47V75.9472H116.23L116.084 76.6061L110.664 76.6793Z" fill="#3D3C3C"/>
<path d="M122.822 76.6793L118.354 70.3102V76.6793H117.549V69.1389H118.501L122.969 75.5079V69.1389H123.774V76.6793H122.822Z" fill="#3D3C3C"/>
<path d="M127.73 76.6793V69.7978H125.094L125.24 69.1389H131.466L131.319 69.7978H128.609V76.6793H127.73Z" fill="#3D3C3C"/>
<path d="M132.125 72.9457C132.125 72.0672 132.198 71.4083 132.418 70.8959C132.638 70.3834 132.857 70.0174 133.224 69.7245C133.59 69.4317 133.956 69.2853 134.395 69.1389C134.835 68.9925 135.348 68.9925 135.86 68.9925C136.373 68.9925 136.886 69.0657 137.325 69.1389C137.764 69.2121 138.204 69.4317 138.497 69.7245C138.79 70.0174 139.083 70.3834 139.302 70.8959C139.522 71.4083 139.595 72.0672 139.595 72.9457C139.595 73.8242 139.522 74.483 139.302 74.9955C139.083 75.5079 138.863 75.874 138.497 76.1668C138.131 76.4596 137.764 76.606 137.325 76.7525C136.886 76.8257 136.373 76.8989 135.86 76.8989C135.348 76.8989 134.835 76.8257 134.395 76.7525C133.956 76.6793 133.517 76.4596 133.224 76.1668C132.931 75.874 132.638 75.5079 132.418 74.9955C132.198 74.4098 132.125 73.751 132.125 72.9457ZM135.86 69.6513C135.494 69.6513 135.128 69.6513 134.762 69.7245C134.395 69.7245 134.102 69.871 133.81 70.0906C133.517 70.3102 133.297 70.603 133.15 71.0423C133.004 71.4815 132.931 72.1404 132.931 72.9457C132.931 73.4581 133.004 73.9706 133.077 74.3366C133.15 74.7027 133.224 74.9955 133.37 75.2151C133.517 75.4347 133.663 75.6544 133.81 75.8008C133.956 75.9472 134.176 76.0204 134.395 76.0936C134.615 76.1668 134.835 76.1668 135.055 76.1668C135.274 76.1668 135.567 76.1668 135.787 76.1668C136.007 76.1668 136.3 76.1668 136.519 76.1668C136.739 76.1668 136.959 76.0936 137.179 76.0936C137.398 76.0936 137.618 75.9472 137.764 75.8008C137.911 75.6544 138.131 75.5079 138.204 75.2151C138.277 74.9223 138.424 74.7027 138.497 74.3366C138.57 73.9706 138.643 73.5313 138.643 72.9457C138.643 72.1404 138.57 71.5547 138.424 71.0423C138.277 70.603 138.057 70.3102 137.764 70.0906C137.471 69.871 137.179 69.7977 136.812 69.7245C136.446 69.6513 136.226 69.6513 135.86 69.6513Z" fill="#3D3C3C"/>
<path d="M149.482 76.6793V69.7978H146.846L146.992 69.1389H153.218L153.071 69.7978H150.361V76.6793H149.482Z" fill="#3D3C3C"/>
<path d="M154.316 76.6793V69.1389H159.956L159.809 69.7978H155.122V72.4332H158.931V73.0921H155.122V75.9472H159.883L159.736 76.6061L154.316 76.6793Z" fill="#3D3C3C"/>
<path d="M166.841 76.6793L165.888 74.3366H162.446L161.494 76.6793H160.615L163.618 69.1389H164.643L167.646 76.6793H166.841ZM164.643 71.2619L164.204 69.871H164.131L163.691 71.2619L162.739 73.6778H165.669L164.643 71.2619Z" fill="#3D3C3C"/>
<path d="M176.653 76.6793V70.0906L173.87 76.6793H172.991L170.208 70.0906V76.6793H169.402V69.1389H170.647L172.991 74.5562L173.504 75.9472L174.016 74.5562L176.36 69.1389H177.605V76.6793H176.653Z" fill="#3D3C3C"/>
</svg>
