<?xml version="1.0" encoding="utf-8"?>
<!-- Generator: Adobe Illustrator 22.0.1, SVG Export Plug-In . SVG Version: 6.00 Build 0)  -->
<svg version="1.1" id="Layer_1" xmlns="http://www.w3.org/2000/svg" xmlns:xlink="http://www.w3.org/1999/xlink" x="0px" y="0px"
	 viewBox="0 0 135.6 16" style="enable-background:new 0 0 135.6 16;" xml:space="preserve">
<style type="text/css">
	.st0{clip-path:url(#SVGID_2_);}
	.st1{display:none;fill:#FFFFFF;}
	.st2{fill:none;stroke:#CCCCCC;stroke-miterlimit:10;}
	.st3{fill:none;stroke:#CCCCCC;stroke-width:0.8645;stroke-miterlimit:10;}
	.st4{fill:#FFFFFF;}
	.st5{fill:#EFEFEF;}
	.st6{fill:none;stroke:#CCCCCC;stroke-width:0.9218;stroke-miterlimit:10;}
	.st7{clip-path:url(#SVGID_6_);}
	.st8{clip-path:url(#SVGID_10_);}
	.st9{fill:none;stroke:#CCCCCC;stroke-width:0.8656;stroke-miterlimit:10;}
	.st10{clip-path:url(#SVGID_14_);}
	.st11{clip-path:url(#SVGID_18_);}
	.st12{clip-path:url(#SVGID_22_);}
	.st13{fill:none;stroke:#CCCCCC;stroke-width:0.6266;stroke-miterlimit:10;}
	.st14{fill:#F0EFF0;}
	.st15{fill:#353535;}
</style>
<g>
	<g>
		<g>
			<path class="st4" d="M30.1,11.4V5.1h4v1.2h-2.6v1.5h2.2v1.2h-2.2v2.5H30.1z"/>
			<path class="st4" d="M34.9,11.4V6.6H36l0.1,0.8h0c0.2-0.3,0.4-0.6,0.6-0.7c0.2-0.2,0.5-0.2,0.7-0.2c0.1,0,0.2,0,0.3,0
				c0.1,0,0.2,0,0.2,0.1l-0.2,1.2c-0.1,0-0.2,0-0.3-0.1c-0.1,0-0.2,0-0.3,0c-0.2,0-0.4,0.1-0.6,0.2c-0.2,0.1-0.4,0.4-0.5,0.7v2.8
				H34.9z"/>
			<path class="st4" d="M40.8,11.5c-0.3,0-0.7-0.1-1-0.2c-0.3-0.1-0.6-0.3-0.8-0.5c-0.2-0.2-0.4-0.5-0.5-0.8
				c-0.1-0.3-0.2-0.7-0.2-1.1c0-0.4,0.1-0.7,0.2-1.1c0.1-0.3,0.3-0.6,0.5-0.8c0.2-0.2,0.5-0.4,0.7-0.5c0.3-0.1,0.6-0.2,0.8-0.2
				c0.3,0,0.6,0.1,0.9,0.2c0.3,0.1,0.5,0.3,0.6,0.5c0.2,0.2,0.3,0.5,0.4,0.7s0.1,0.6,0.1,0.9c0,0.1,0,0.3,0,0.4c0,0.1,0,0.2,0,0.3
				h-2.9c0.1,0.3,0.2,0.6,0.4,0.8c0.2,0.2,0.5,0.2,0.8,0.2c0.3,0,0.7-0.1,1-0.3l0.5,0.9c-0.2,0.2-0.5,0.3-0.8,0.4
				C41.3,11.5,41.1,11.5,40.8,11.5z M39.7,8.5h1.7c0-0.3-0.1-0.5-0.2-0.7c-0.1-0.2-0.3-0.3-0.6-0.3c-0.2,0-0.4,0.1-0.6,0.2
				C39.9,7.9,39.7,8.2,39.7,8.5z"/>
			<path class="st4" d="M45.8,11.5c-0.3,0-0.7-0.1-1-0.2c-0.3-0.1-0.6-0.3-0.8-0.5c-0.2-0.2-0.4-0.5-0.5-0.8
				c-0.1-0.3-0.2-0.7-0.2-1.1c0-0.4,0.1-0.7,0.2-1.1c0.1-0.3,0.3-0.6,0.5-0.8c0.2-0.2,0.5-0.4,0.7-0.5c0.3-0.1,0.6-0.2,0.8-0.2
				c0.3,0,0.6,0.1,0.9,0.2c0.3,0.1,0.5,0.3,0.6,0.5c0.2,0.2,0.3,0.5,0.4,0.7s0.1,0.6,0.1,0.9c0,0.1,0,0.3,0,0.4c0,0.1,0,0.2,0,0.3
				h-2.9c0.1,0.3,0.2,0.6,0.4,0.8c0.2,0.2,0.5,0.2,0.8,0.2c0.3,0,0.7-0.1,1-0.3l0.5,0.9c-0.2,0.2-0.5,0.3-0.8,0.4
				C46.4,11.5,46.1,11.5,45.8,11.5z M44.7,8.5h1.7c0-0.3-0.1-0.5-0.2-0.7c-0.1-0.2-0.3-0.3-0.6-0.3c-0.2,0-0.4,0.1-0.6,0.2
				C44.9,7.9,44.8,8.2,44.7,8.5z"/>
			<path class="st4" d="M50.7,11.4V5.1H53c0.3,0,0.7,0,0.9,0.1c0.3,0.1,0.5,0.2,0.8,0.3c0.2,0.2,0.4,0.4,0.5,0.6
				c0.1,0.3,0.2,0.6,0.2,0.9c0,0.5-0.1,0.8-0.3,1.1c-0.2,0.3-0.5,0.5-0.8,0.7l1.4,2.5h-1.6l-1.2-2.3h-0.8v2.3H50.7z M52.1,8h0.7
				c0.4,0,0.7-0.1,0.9-0.2S54,7.4,54,7c0-0.3-0.1-0.5-0.3-0.6c-0.2-0.1-0.5-0.2-0.9-0.2h-0.7V8z"/>
			<path class="st4" d="M58.6,11.5c-0.3,0-0.7-0.1-1-0.2s-0.6-0.3-0.8-0.5c-0.2-0.2-0.4-0.5-0.5-0.8c-0.1-0.3-0.2-0.7-0.2-1.1
				c0-0.4,0.1-0.7,0.2-1.1c0.1-0.3,0.3-0.6,0.5-0.8s0.5-0.4,0.7-0.5s0.6-0.2,0.8-0.2c0.3,0,0.6,0.1,0.9,0.2c0.3,0.1,0.5,0.3,0.6,0.5
				c0.2,0.2,0.3,0.5,0.4,0.7s0.1,0.6,0.1,0.9c0,0.1,0,0.3,0,0.4c0,0.1,0,0.2,0,0.3h-2.9c0.1,0.3,0.2,0.6,0.4,0.8
				c0.2,0.2,0.5,0.2,0.8,0.2c0.3,0,0.7-0.1,1-0.3l0.5,0.9c-0.2,0.2-0.5,0.3-0.8,0.4C59.2,11.5,58.9,11.5,58.6,11.5z M57.5,8.5h1.7
				c0-0.3-0.1-0.5-0.2-0.7s-0.3-0.3-0.6-0.3c-0.2,0-0.4,0.1-0.6,0.2C57.7,7.9,57.6,8.2,57.5,8.5z"/>
			<path class="st4" d="M63.2,11.5c-0.3,0-0.6,0-0.8-0.1c-0.2-0.1-0.4-0.2-0.5-0.4c-0.1-0.2-0.2-0.4-0.3-0.6
				c-0.1-0.2-0.1-0.5-0.1-0.8V7.7h-0.7V6.6l0.7-0.1l0.2-1.3H63v1.3h1.2v1.1H63v1.9c0,0.3,0.1,0.5,0.2,0.6c0.1,0.1,0.3,0.2,0.5,0.2
				c0.1,0,0.2,0,0.2,0s0.2,0,0.2-0.1l0.2,1c-0.1,0-0.3,0.1-0.5,0.1C63.6,11.5,63.4,11.5,63.2,11.5z"/>
			<path class="st4" d="M66.5,11.5c-0.5,0-0.9-0.2-1.1-0.5S65,10.2,65,9.6v-3h1.4v2.8c0,0.3,0,0.6,0.1,0.7c0.1,0.1,0.2,0.2,0.5,0.2
				c0.2,0,0.3,0,0.5-0.1c0.1-0.1,0.3-0.2,0.4-0.4V6.6h1.4v4.8h-1.2L68,10.7h0c-0.2,0.2-0.4,0.4-0.7,0.6
				C67.1,11.4,66.8,11.5,66.5,11.5z"/>
			<path class="st4" d="M70.6,11.4V6.6h1.2l0.1,0.8h0c0.2-0.3,0.4-0.6,0.6-0.7c0.2-0.2,0.5-0.2,0.7-0.2c0.1,0,0.2,0,0.3,0
				c0.1,0,0.2,0,0.2,0.1l-0.2,1.2c-0.1,0-0.2,0-0.3-0.1c-0.1,0-0.2,0-0.3,0c-0.2,0-0.4,0.1-0.6,0.2C72.3,8,72.1,8.3,72,8.6v2.8H70.6
				z"/>
			<path class="st4" d="M74.4,11.4V6.6h1.2l0.1,0.6h0c0.2-0.2,0.4-0.4,0.7-0.5c0.2-0.1,0.5-0.2,0.9-0.2c0.5,0,0.9,0.2,1.1,0.5
				s0.4,0.8,0.4,1.4v3h-1.4V8.6c0-0.3,0-0.6-0.1-0.7c-0.1-0.1-0.2-0.2-0.5-0.2c-0.2,0-0.3,0-0.5,0.1S76,8,75.8,8.1v3.2H74.4z"/>
			<path class="st4" d="M81.4,11.5c-0.3,0-0.6-0.1-1-0.2s-0.6-0.3-0.9-0.5l0.6-0.9c0.2,0.2,0.4,0.3,0.6,0.4c0.2,0.1,0.4,0.1,0.6,0.1
				c0.2,0,0.4,0,0.5-0.1C82,10.3,82,10.2,82,10c0-0.1,0-0.1-0.1-0.2c-0.1-0.1-0.1-0.1-0.2-0.2s-0.2-0.1-0.3-0.1
				c-0.1,0-0.2-0.1-0.4-0.1c-0.1-0.1-0.3-0.1-0.4-0.2c-0.1-0.1-0.3-0.2-0.4-0.3c-0.1-0.1-0.2-0.2-0.3-0.4c-0.1-0.2-0.1-0.3-0.1-0.5
				c0-0.2,0-0.4,0.1-0.6C80,7.2,80.1,7,80.3,6.9c0.2-0.1,0.4-0.2,0.6-0.3s0.5-0.1,0.8-0.1c0.4,0,0.7,0.1,1,0.2
				c0.3,0.1,0.5,0.3,0.7,0.4l-0.6,0.9c-0.2-0.1-0.3-0.2-0.5-0.3c-0.2-0.1-0.3-0.1-0.5-0.1c-0.4,0-0.5,0.1-0.5,0.4
				c0,0.1,0,0.1,0.1,0.2c0.1,0.1,0.1,0.1,0.2,0.1c0.1,0,0.2,0.1,0.3,0.1c0.1,0,0.2,0.1,0.4,0.1c0.2,0.1,0.3,0.1,0.5,0.2
				c0.2,0.1,0.3,0.2,0.4,0.3s0.2,0.2,0.3,0.4c0.1,0.2,0.1,0.3,0.1,0.6s0,0.4-0.1,0.6c-0.1,0.2-0.2,0.4-0.4,0.5
				c-0.2,0.1-0.4,0.2-0.6,0.3C82,11.5,81.7,11.5,81.4,11.5z"/>
			<path class="st4" d="M88.2,11.5c-0.3,0-0.6-0.1-0.8-0.2s-0.5-0.3-0.7-0.5s-0.4-0.5-0.5-0.8S86,9.4,86,9c0-0.4,0.1-0.7,0.2-1.1
				s0.3-0.6,0.5-0.8c0.2-0.2,0.4-0.4,0.7-0.5s0.5-0.2,0.8-0.2s0.6,0.1,0.8,0.2s0.5,0.3,0.7,0.5c0.2,0.2,0.4,0.5,0.5,0.8
				s0.2,0.7,0.2,1.1c0,0.4-0.1,0.7-0.2,1s-0.3,0.6-0.5,0.8c-0.2,0.2-0.4,0.4-0.7,0.5S88.5,11.5,88.2,11.5z M88.2,10.8
				c0.2,0,0.4,0,0.6-0.1c0.2-0.1,0.3-0.2,0.4-0.4c0.1-0.2,0.2-0.3,0.3-0.6s0.1-0.5,0.1-0.7c0-0.3,0-0.5-0.1-0.7
				c-0.1-0.2-0.2-0.4-0.3-0.6c-0.1-0.2-0.3-0.3-0.4-0.4c-0.2-0.1-0.4-0.1-0.6-0.1s-0.4,0-0.6,0.1c-0.2,0.1-0.3,0.2-0.4,0.4
				c-0.1,0.2-0.2,0.4-0.3,0.6c-0.1,0.2-0.1,0.5-0.1,0.7c0,0.3,0,0.5,0.1,0.7s0.2,0.4,0.3,0.6c0.1,0.2,0.3,0.3,0.4,0.4
				C87.8,10.8,88,10.8,88.2,10.8z"/>
			<path class="st4" d="M91.6,11.4V6.7h0.7l0.1,0.7h0c0.2-0.2,0.5-0.4,0.7-0.6s0.5-0.2,0.9-0.2c0.5,0,0.9,0.2,1.1,0.5
				c0.2,0.3,0.3,0.8,0.3,1.4v3h-0.8V8.5c0-0.4-0.1-0.8-0.2-1c-0.1-0.2-0.4-0.3-0.7-0.3c-0.2,0-0.5,0.1-0.6,0.2
				c-0.2,0.1-0.4,0.3-0.6,0.5v3.4H91.6z"/>
			<path class="st4" d="M99.9,11.5c-0.4,0-0.7-0.1-1-0.3s-0.4-0.6-0.4-1c0-0.5,0.2-0.9,0.7-1.2s1.2-0.5,2.2-0.6c0-0.1,0-0.3,0-0.4
				c0-0.1-0.1-0.3-0.1-0.4c-0.1-0.1-0.2-0.2-0.3-0.3s-0.3-0.1-0.5-0.1c-0.3,0-0.5,0.1-0.8,0.2c-0.2,0.1-0.5,0.2-0.6,0.3l-0.3-0.6
				C99,7,99.2,6.9,99.5,6.8s0.7-0.2,1-0.2c0.6,0,1,0.2,1.3,0.5s0.4,0.8,0.4,1.4v2.9h-0.7l-0.1-0.6h0c-0.2,0.2-0.5,0.3-0.7,0.5
				C100.5,11.4,100.2,11.5,99.9,11.5z M100.1,10.9c0.2,0,0.4-0.1,0.6-0.2c0.2-0.1,0.4-0.3,0.6-0.5V8.9c-0.4,0.1-0.7,0.1-1,0.2
				c-0.3,0.1-0.5,0.2-0.6,0.3c-0.2,0.1-0.3,0.2-0.4,0.3s-0.1,0.3-0.1,0.4c0,0.3,0.1,0.5,0.2,0.6C99.7,10.8,99.9,10.9,100.1,10.9z"/>
			<path class="st4" d="M104.6,11.5c-0.3,0-0.5-0.1-0.6-0.3c-0.1-0.2-0.2-0.4-0.2-0.8V4.5h0.8v6c0,0.1,0,0.2,0.1,0.3
				c0,0.1,0.1,0.1,0.2,0.1c0,0,0,0,0.1,0c0,0,0.1,0,0.1,0l0.1,0.6c-0.1,0-0.1,0-0.2,0.1C104.8,11.5,104.7,11.5,104.6,11.5z"/>
			<path class="st4" d="M107,11.5c-0.3,0-0.5-0.1-0.6-0.3c-0.1-0.2-0.2-0.4-0.2-0.8V4.5h0.8v6c0,0.1,0,0.2,0.1,0.3
				c0,0.1,0.1,0.1,0.2,0.1c0,0,0,0,0.1,0c0,0,0.1,0,0.1,0l0.1,0.6c-0.1,0-0.1,0-0.2,0.1C107.2,11.5,107.1,11.5,107,11.5z"/>
			<path class="st4" d="M112.4,11.5c-0.3,0-0.6-0.1-0.8-0.2s-0.5-0.3-0.7-0.5s-0.4-0.5-0.5-0.8c-0.1-0.3-0.2-0.7-0.2-1
				c0-0.4,0.1-0.7,0.2-1.1c0.1-0.3,0.3-0.6,0.5-0.8c0.2-0.2,0.4-0.4,0.7-0.5s0.5-0.2,0.8-0.2c0.3,0,0.6,0.1,0.8,0.2s0.5,0.3,0.7,0.5
				c0.2,0.2,0.4,0.5,0.5,0.8s0.2,0.7,0.2,1.1c0,0.4-0.1,0.7-0.2,1s-0.3,0.6-0.5,0.8s-0.4,0.4-0.7,0.5S112.7,11.5,112.4,11.5z
				 M112.4,10.8c0.2,0,0.4,0,0.6-0.1c0.2-0.1,0.3-0.2,0.4-0.4c0.1-0.2,0.2-0.3,0.3-0.6s0.1-0.5,0.1-0.7c0-0.3,0-0.5-0.1-0.7
				c-0.1-0.2-0.2-0.4-0.3-0.6c-0.1-0.2-0.3-0.3-0.4-0.4c-0.2-0.1-0.4-0.1-0.6-0.1c-0.2,0-0.4,0-0.6,0.1c-0.2,0.1-0.3,0.2-0.4,0.4
				c-0.1,0.2-0.2,0.4-0.3,0.6c-0.1,0.2-0.1,0.5-0.1,0.7c0,0.3,0,0.5,0.1,0.7s0.2,0.4,0.3,0.6c0.1,0.2,0.3,0.3,0.4,0.4
				C112,10.8,112.2,10.8,112.4,10.8z"/>
			<path class="st4" d="M115.8,11.4V6.7h0.7l0.1,0.9h0c0.2-0.3,0.4-0.5,0.6-0.7c0.2-0.2,0.5-0.3,0.8-0.3c0.2,0,0.4,0,0.5,0.1
				l-0.2,0.7c-0.1,0-0.1,0-0.2-0.1c-0.1,0-0.1,0-0.2,0c-0.2,0-0.4,0.1-0.6,0.2c-0.2,0.2-0.4,0.4-0.6,0.8v3H115.8z"/>
			<path class="st4" d="M120.7,11.5c-0.6,0-1.1-0.2-1.4-0.6c-0.4-0.4-0.5-1-0.5-1.8c0-0.4,0.1-0.7,0.2-1c0.1-0.3,0.3-0.6,0.5-0.8
				c0.2-0.2,0.4-0.4,0.6-0.5c0.2-0.1,0.5-0.2,0.8-0.2c0.3,0,0.5,0,0.7,0.1s0.4,0.2,0.6,0.4l0-0.8V4.5h0.8v6.9h-0.7l-0.1-0.6h0
				c-0.2,0.2-0.4,0.3-0.6,0.5S121,11.5,120.7,11.5z M120.9,10.8c0.2,0,0.4-0.1,0.6-0.2c0.2-0.1,0.4-0.3,0.6-0.5V7.7
				c-0.2-0.2-0.4-0.3-0.6-0.4s-0.4-0.1-0.6-0.1c-0.2,0-0.4,0-0.5,0.1c-0.2,0.1-0.3,0.2-0.4,0.4s-0.2,0.3-0.3,0.6
				c-0.1,0.2-0.1,0.5-0.1,0.7c0,0.6,0.1,1,0.3,1.3C120.2,10.7,120.5,10.8,120.9,10.8z"/>
			<path class="st4" d="M126.4,11.5c-0.3,0-0.6-0.1-0.9-0.2s-0.5-0.3-0.7-0.5c-0.2-0.2-0.4-0.5-0.5-0.8s-0.2-0.6-0.2-1
				c0-0.4,0.1-0.7,0.2-1c0.1-0.3,0.3-0.6,0.5-0.8c0.2-0.2,0.4-0.4,0.7-0.5c0.3-0.1,0.5-0.2,0.8-0.2c0.3,0,0.6,0.1,0.8,0.2
				c0.2,0.1,0.4,0.3,0.6,0.4c0.2,0.2,0.3,0.4,0.4,0.7c0.1,0.3,0.1,0.6,0.1,0.9c0,0.1,0,0.2,0,0.2c0,0.1,0,0.1,0,0.2h-3.2
				c0,0.5,0.2,0.9,0.5,1.2s0.6,0.4,1.1,0.4c0.2,0,0.4,0,0.6-0.1c0.2-0.1,0.4-0.2,0.5-0.3l0.3,0.5c-0.2,0.1-0.4,0.2-0.7,0.3
				C127,11.5,126.7,11.5,126.4,11.5z M124.9,8.7h2.5c0-0.5-0.1-0.8-0.3-1.1c-0.2-0.2-0.5-0.4-0.9-0.4c-0.2,0-0.3,0-0.5,0.1
				c-0.2,0.1-0.3,0.2-0.4,0.3c-0.1,0.1-0.2,0.3-0.3,0.5C125,8.2,124.9,8.4,124.9,8.7z"/>
			<path class="st4" d="M129.3,11.4V6.7h0.7l0.1,0.9h0c0.2-0.3,0.4-0.5,0.6-0.7c0.2-0.2,0.5-0.3,0.8-0.3c0.2,0,0.4,0,0.5,0.1
				l-0.2,0.7c-0.1,0-0.1,0-0.2-0.1c-0.1,0-0.1,0-0.2,0c-0.2,0-0.4,0.1-0.6,0.2c-0.2,0.2-0.4,0.4-0.6,0.8v3H129.3z"/>
			<path class="st4" d="M133.8,11.5c-0.3,0-0.7-0.1-1-0.2s-0.6-0.3-0.8-0.5l0.4-0.5c0.2,0.2,0.4,0.3,0.6,0.4
				c0.2,0.1,0.5,0.2,0.8,0.2c0.3,0,0.5-0.1,0.7-0.2s0.2-0.3,0.2-0.5c0-0.1,0-0.2-0.1-0.3c-0.1-0.1-0.1-0.2-0.2-0.2s-0.2-0.1-0.3-0.2
				s-0.3-0.1-0.4-0.2c-0.2-0.1-0.3-0.1-0.5-0.2c-0.2-0.1-0.3-0.2-0.5-0.3c-0.1-0.1-0.2-0.2-0.3-0.4s-0.1-0.3-0.1-0.5
				c0-0.2,0-0.4,0.1-0.5s0.2-0.3,0.3-0.4c0.1-0.1,0.3-0.2,0.5-0.3s0.4-0.1,0.7-0.1c0.3,0,0.6,0.1,0.8,0.2c0.2,0.1,0.5,0.2,0.6,0.4
				L135,7.6c-0.2-0.1-0.3-0.2-0.5-0.3c-0.2-0.1-0.4-0.1-0.6-0.1c-0.3,0-0.5,0.1-0.7,0.2s-0.2,0.3-0.2,0.5c0,0.1,0,0.2,0.1,0.3
				c0.1,0.1,0.1,0.2,0.2,0.2c0.1,0.1,0.2,0.1,0.3,0.2s0.3,0.1,0.4,0.1c0.2,0.1,0.3,0.1,0.5,0.2c0.2,0.1,0.3,0.2,0.5,0.3
				c0.1,0.1,0.2,0.2,0.3,0.4c0.1,0.2,0.1,0.3,0.1,0.6c0,0.2,0,0.4-0.1,0.5c-0.1,0.2-0.2,0.3-0.3,0.4c-0.1,0.1-0.3,0.2-0.5,0.3
				S134.1,11.5,133.8,11.5z"/>
		</g>
	</g>
	<g>
		<path class="st4" d="M17.4,16c-1.6,0-2.9-1.3-2.9-2.9s1.3-2.9,2.9-2.9s2.9,1.3,2.9,2.9S19,16,17.4,16z M17.4,11.6
			c-0.8,0-1.5,0.7-1.5,1.5s0.7,1.5,1.5,1.5s1.5-0.7,1.5-1.5S18.2,11.6,17.4,11.6z"/>
		<path class="st4" d="M7.5,16c-1.6,0-2.9-1.3-2.9-2.9s1.3-2.9,2.9-2.9s2.9,1.3,2.9,2.9S9.1,16,7.5,16z M7.5,11.6
			c-0.8,0-1.5,0.7-1.5,1.5s0.7,1.5,1.5,1.5s1.5-0.7,1.5-1.5S8.3,11.6,7.5,11.6z"/>
		<path class="st4" d="M20.3,6.8l-2-3.9h-3.4V1.5h3.8c0.3,0,0.5,0.2,0.6,0.4l2.2,4.3L20.3,6.8z"/>
		<rect x="9.7" y="12.4" class="st4" width="5.5" height="1.5"/>
		<path class="st4" d="M5.3,13.8H2.8c-0.4,0-0.7-0.3-0.7-0.7c0-0.4,0.3-0.7,0.7-0.7h2.5c0.4,0,0.7,0.3,0.7,0.7
			C6,13.5,5.7,13.8,5.3,13.8z"/>
		<path class="st4" d="M22.4,13.8h-2.7c-0.4,0-0.7-0.3-0.7-0.7c0-0.4,0.3-0.7,0.7-0.7h2V8.6l-1.1-1.4h-5.7c-0.4,0-0.7-0.3-0.7-0.7
			V1.5H2.8c-0.4,0-0.7-0.3-0.7-0.7S2.4,0,2.8,0h12.1c0.4,0,0.7,0.3,0.7,0.7v5.1h5.3c0.2,0,0.4,0.1,0.6,0.3l1.4,1.8
			c0.1,0.1,0.2,0.3,0.2,0.4v4.7C23.1,13.5,22.8,13.8,22.4,13.8z"/>
		<path class="st4" d="M5.3,10.2H1.9c-0.4,0-0.7-0.3-0.7-0.7s0.3-0.7,0.7-0.7h3.3C5.7,8.7,6,9,6,9.4S5.7,10.2,5.3,10.2z"/>
		<path class="st4" d="M6.9,7.3H0.7C0.3,7.3,0,7,0,6.6s0.3-0.7,0.7-0.7h6.2c0.4,0,0.7,0.3,0.7,0.7S7.3,7.3,6.9,7.3z"/>
		<path class="st4" d="M8.1,4.4H1.9c-0.4,0-0.7-0.3-0.7-0.7C1.2,3.3,1.5,3,1.9,3h6.2c0.4,0,0.7,0.3,0.7,0.7C8.8,4.1,8.5,4.4,8.1,4.4
			z"/>
	</g>
</g>
</svg>
