<?xml version="1.0" encoding="utf-8"?>
<!-- Generator: Adobe Illustrator 23.0.0, SVG Export Plug-In . SVG Version: 6.00 Build 0)  -->
<svg version="1.1" xmlns="http://www.w3.org/2000/svg" xmlns:xlink="http://www.w3.org/1999/xlink" x="0px" y="0px"
	 viewBox="0 0 20 20" style="enable-background:new 0 0 20 20;" xml:space="preserve">
<style type="text/css">
	.st0{fill:#EFEBE3;}
	.st1{fill:url(#SVGID_1_);}
	.st2{fill:url(#SVGID_2_);}
	.st3{fill:#2C569B;}
	.st4{fill-rule:evenodd;clip-rule:evenodd;fill:#EFEBE3;}
	.st5{fill:#FFFFFF;}
	.st6{opacity:0.25;fill:#131313;stroke:#F6F6F6;stroke-width:0.2136;stroke-miterlimit:10;}
	.st7{fill:url(#SVGID_3_);}
	.st8{fill:url(#SVGID_4_);}
	.st9{fill:url(#SVGID_5_);}
	.st10{fill:url(#SVGID_6_);}
	.st11{fill:url(#SVGID_7_);}
	.st12{fill-rule:evenodd;clip-rule:evenodd;fill:#FFFFFF;}
	.st13{fill-rule:evenodd;clip-rule:evenodd;fill:#002C3C;}
	.st14{fill-rule:evenodd;clip-rule:evenodd;fill:url(#SVGID_8_);}
	.st15{fill-rule:evenodd;clip-rule:evenodd;fill:url(#SVGID_9_);}
	.st16{fill-rule:evenodd;clip-rule:evenodd;fill:url(#SVGID_10_);}
	.st17{fill-rule:evenodd;clip-rule:evenodd;fill:url(#SVGID_11_);}
	.st18{fill-rule:evenodd;clip-rule:evenodd;fill:url(#SVGID_12_);}
	.st19{fill-rule:evenodd;clip-rule:evenodd;fill:url(#SVGID_13_);}
	.st20{fill-rule:evenodd;clip-rule:evenodd;fill:url(#SVGID_14_);}
	.st21{fill-rule:evenodd;clip-rule:evenodd;fill:url(#SVGID_15_);}
	.st22{fill-rule:evenodd;clip-rule:evenodd;fill:url(#SVGID_16_);}
	.st23{fill-rule:evenodd;clip-rule:evenodd;fill:url(#SVGID_17_);}
	.st24{fill-rule:evenodd;clip-rule:evenodd;fill:url(#SVGID_18_);}
	.st25{fill-rule:evenodd;clip-rule:evenodd;fill:url(#SVGID_19_);}
	.st26{fill-rule:evenodd;clip-rule:evenodd;fill:url(#SVGID_20_);}
	.st27{fill-rule:evenodd;clip-rule:evenodd;fill:url(#SVGID_21_);}
	.st28{fill-rule:evenodd;clip-rule:evenodd;fill:url(#SVGID_22_);}
	.st29{fill-rule:evenodd;clip-rule:evenodd;fill:url(#SVGID_23_);}
	.st30{fill-rule:evenodd;clip-rule:evenodd;fill:url(#SVGID_24_);}
	.st31{fill-rule:evenodd;clip-rule:evenodd;fill:url(#SVGID_25_);}
	.st32{fill-rule:evenodd;clip-rule:evenodd;fill:url(#SVGID_26_);}
	.st33{fill-rule:evenodd;clip-rule:evenodd;fill:url(#SVGID_27_);}
	.st34{fill-rule:evenodd;clip-rule:evenodd;fill:url(#SVGID_28_);}
	.st35{fill-rule:evenodd;clip-rule:evenodd;fill:url(#SVGID_29_);}
	.st36{fill-rule:evenodd;clip-rule:evenodd;fill:url(#SVGID_30_);}
	.st37{fill-rule:evenodd;clip-rule:evenodd;fill:url(#SVGID_31_);}
	.st38{fill-rule:evenodd;clip-rule:evenodd;fill:url(#SVGID_32_);}
	.st39{fill-rule:evenodd;clip-rule:evenodd;fill:url(#SVGID_33_);}
	.st40{fill-rule:evenodd;clip-rule:evenodd;fill:url(#SVGID_34_);}
	.st41{fill-rule:evenodd;clip-rule:evenodd;fill:url(#SVGID_35_);}
	.st42{fill-rule:evenodd;clip-rule:evenodd;fill:url(#SVGID_36_);}
	.st43{fill-rule:evenodd;clip-rule:evenodd;fill:url(#SVGID_37_);}
	.st44{fill-rule:evenodd;clip-rule:evenodd;fill:url(#SVGID_38_);}
	.st45{fill-rule:evenodd;clip-rule:evenodd;fill:url(#SVGID_39_);}
	.st46{fill-rule:evenodd;clip-rule:evenodd;fill:url(#SVGID_40_);}
	.st47{fill-rule:evenodd;clip-rule:evenodd;fill:url(#SVGID_41_);}
	.st48{fill-rule:evenodd;clip-rule:evenodd;fill:url(#SVGID_42_);}
	.st49{fill-rule:evenodd;clip-rule:evenodd;fill:#2C569B;}
	.st50{fill-rule:evenodd;clip-rule:evenodd;fill:#FEFEFE;}
	.st51{filter:url(#Adobe_OpacityMaskFilter);}
	.st52{opacity:0.75;mask:url(#SVGID_43_);}
	.st53{fill:url(#SVGID_44_);}
	.st54{fill:url(#SVGID_45_);}
	.st55{fill:#F70044;}
	.st56{clip-path:url(#SVGID_50_);}
	.st57{clip-path:url(#SVGID_55_);}
	.st58{clip-path:url(#SVGID_56_);}
	.st59{clip-path:url(#SVGID_57_);fill:#3E82F1;}
	.st60{clip-path:url(#SVGID_62_);}
	.st61{clip-path:url(#SVGID_63_);fill:#32A753;}
	.st62{clip-path:url(#SVGID_65_);fill:#F9BB00;}
	.st63{clip-path:url(#SVGID_67_);fill:#E74133;}
	.st64{fill-rule:evenodd;clip-rule:evenodd;fill:#FF9900;}
	.st65{fill-rule:evenodd;clip-rule:evenodd;fill:#221F1F;}
	.st66{fill-rule:evenodd;clip-rule:evenodd;fill:#2165A8;}
	.st67{fill-rule:evenodd;clip-rule:evenodd;fill:#1C96F0;}
	.st68{fill-rule:evenodd;clip-rule:evenodd;fill:#21458B;}
	.st69{opacity:0.55;fill:#EFEBE3;}
	.st70{opacity:0.23;}
	.st71{opacity:0.7;}
</style>
<g id="Background">
</g>
<g id="Objects">
	<g>
		<path class="st64" d="M13.41,11.42c0-0.03-0.03-0.03-0.03-0.05c-0.31-0.38-0.63-0.69-0.63-1.42V7.53c0-1.05,0.12-1.96-0.63-2.68
			c-0.63-0.55-1.56-0.77-2.32-0.77H9.48C8.1,4.17,6.65,4.77,6.32,6.46C6.27,6.67,6.44,6.76,6.54,6.77l1.51,0.19
			c0.17-0.02,0.26-0.19,0.27-0.33c0.12-0.6,0.62-0.98,1.17-0.98h0.1c0.31,0,0.65,0.17,0.82,0.45c0.19,0.31,0.17,0.77,0.17,1.15v0.19
			C10.4,7.48,9.84,7.53,9.41,7.58c-0.6,0.09-1.22,0.19-1.72,0.45c-1,0.39-1.66,1.25-1.66,2.51c0,0.33,0.05,0.62,0.14,0.89
			c0.31,1.01,1.15,1.51,2.18,1.51c0.43,0,0.79-0.07,1.1-0.12c0.51-0.17,0.94-0.46,1.46-1c0.29,0.39,0.38,0.58,0.88,1.03
			c0.12,0.07,0.26,0.07,0.38-0.02c0.33-0.27,0.89-0.76,1.18-1.03C13.49,11.7,13.48,11.54,13.41,11.42L13.41,11.42z M16.08,12.85
			L16.08,12.85c0-0.12-0.03-0.24-0.09-0.29l0,0l0,0c-0.07-0.07-0.1-0.09-0.17-0.1c-0.17-0.07-0.41-0.12-0.7-0.12
			c-0.14,0-0.19,0-0.41,0.03l0,0c0,0.02-0.19,0.02-0.27,0.03c-0.38,0.09-0.63,0.26-0.76,0.36c-0.09,0.07-0.17,0.15-0.17,0.27
			c0,0.07,0.02,0.15,0.09,0.19c0.07,0.03,0.14,0.07,0.17,0.07c0.02,0,0.02,0,0.03,0h0.03l0,0c0.1-0.03,0.24-0.05,0.46-0.07
			c0.1-0.02,0.17-0.02,0.24-0.02l-0.93,0.58c-1.27,0.55-2.61,0.84-3.84,0.86c-1.13,0-2.37-0.21-3.35-0.7
			c-0.14-0.09-0.31-0.15-0.45-0.22c-0.41-0.19-0.77-0.39-1.1-0.62c-0.19-0.09-0.34-0.17-0.48-0.26c-0.07-0.02-0.15-0.05-0.19-0.05
			c-0.09,0-0.17,0.03-0.22,0.09c-0.05,0.05-0.09,0.14-0.09,0.22c0,0.1,0.05,0.19,0.14,0.24c1.53,1.34,3.23,2.57,5.51,2.57
			c0.05,0,0.09,0,0.14,0c1.44-0.03,3.09-0.53,4.36-1.32l0,0c0.1-0.07,0.58-0.38,0.98-0.65c-0.07,0.21-0.15,0.41-0.22,0.57
			c-0.02,0.03-0.02,0.09-0.02,0.12c0,0.07,0.02,0.17,0.09,0.21c0.07,0.05,0.12,0.09,0.19,0.09l0,0c0.09,0,0.17-0.05,0.22-0.1
			c0.6-0.51,0.81-1.41,0.82-1.89L16.08,12.85z M9.44,8.82c0.34-0.09,0.77-0.1,1.17-0.1v0.33c0,0.6,0.02,1.1-0.33,1.63
			c-0.17,0.38-0.5,0.6-0.82,0.69c-0.05,0-0.12,0.02-0.21,0.02c-0.58,0-0.94-0.46-0.94-1.13C8.29,9.4,8.81,9,9.44,8.82L9.44,8.82z"/>
		<path class="st65" d="M9.41,7.58c-0.6,0.09-1.22,0.19-1.72,0.45c-1,0.39-1.66,1.25-1.66,2.51c0,0.33,0.05,0.62,0.14,0.89
			c0.31,1.01,1.15,1.51,2.18,1.51c0.43,0,0.79-0.07,1.1-0.12c0.51-0.17,0.94-0.46,1.46-1c0.29,0.39,0.38,0.58,0.88,1.03
			c0.12,0.07,0.26,0.07,0.38-0.02c0.33-0.27,0.89-0.76,1.18-1.03c0.17-0.1,0.15-0.26,0.09-0.38c0-0.03-0.03-0.03-0.03-0.05
			c-0.31-0.38-0.63-0.69-0.63-1.42V7.53c0-1.05,0.12-1.96-0.63-2.68c-0.65-0.55-1.58-0.77-2.33-0.77H9.48
			C8.1,4.17,6.65,4.77,6.32,6.46C6.27,6.67,6.44,6.76,6.54,6.77l1.51,0.19c0.17-0.02,0.26-0.19,0.27-0.33
			c0.12-0.6,0.62-0.98,1.17-0.98h0.1c0.31,0,0.65,0.17,0.82,0.45c0.19,0.31,0.17,0.77,0.17,1.15v0.19C10.4,7.48,9.84,7.53,9.41,7.58
			z M10.61,8.71v0.33c0,0.6,0.02,1.1-0.33,1.63c-0.17,0.38-0.5,0.6-0.82,0.69c-0.05,0-0.12,0.02-0.21,0.02
			c-0.58,0-0.94-0.46-0.94-1.13C8.31,9.4,8.81,9,9.44,8.8C9.79,8.73,10.21,8.71,10.61,8.71z"/>
	</g>
	<g>
		<g>
		</g>
	</g>
</g>
<g id="Texture">
</g>
<g id="Designed_by_Freepik">
</g>
</svg>
