<?xml version="1.0"?>
<svg xmlns="http://www.w3.org/2000/svg" xmlns:xlink="http://www.w3.org/1999/xlink" version="1.1" viewBox="0 0 224 224" width="30px" height="30px"><g fill="none" fill-rule="nonzero" stroke="none" stroke-width="1" stroke-linecap="butt" stroke-linejoin="miter" stroke-miterlimit="10" stroke-dasharray="" stroke-dashoffset="0" font-family="none" font-weight="none" font-size="none" text-anchor="none" style="mix-blend-mode: normal"><path d="M0,224v-224h224v224z" fill="none"/><g fill="#3b5998"><path d="M89.6,201.6v-89.6h-29.86667v-29.86667h29.86667v-16.0384c0,-30.36693 14.79147,-43.69493 40.0288,-43.69493c12.08853,0 18.48,0.896 21.504,1.30667v28.56h-17.21067c-10.71467,0 -14.45547,5.65227 -14.45547,17.10613v12.76053h31.39733l-4.26347,29.86667h-27.13387v89.6z"/></g><path d="M112,224c-61.85589,0 -112,-50.14411 -112,-112v0c0,-61.85589 50.14411,-112 112,-112v0c61.85589,0 112,50.14411 112,112v0c0,61.85589 -50.14411,112 -112,112z" fill="none"/><path d="M112,219.52c-59.38166,0 -107.52,-48.13834 -107.52,-107.52v0c0,-59.38166 48.13834,-107.52 107.52,-107.52h0c59.38166,0 107.52,48.13834 107.52,107.52v0c0,59.38166 -48.13834,107.52 -107.52,107.52z" fill="none"/></g></svg>
