<?xml version="1.0" encoding="utf-8"?>
<!-- Generator: Adobe Illustrator 23.0.0, SVG Export Plug-In . SVG Version: 6.00 Build 0)  -->
<svg version="1.1" xmlns="http://www.w3.org/2000/svg" xmlns:xlink="http://www.w3.org/1999/xlink" x="0px" y="0px"
	 viewBox="0 0 20 20" style="enable-background:new 0 0 20 20;" xml:space="preserve">
<style type="text/css">
	.st0{fill:#EFEBE3;}
	.st1{fill:url(#SVGID_1_);}
	.st2{fill:url(#SVGID_2_);}
	.st3{fill:#2C569B;}
	.st4{fill-rule:evenodd;clip-rule:evenodd;fill:#EFEBE3;}
	.st5{fill:#FFFFFF;}
	.st6{opacity:0.25;fill:#131313;stroke:#F6F6F6;stroke-width:0.2136;stroke-miterlimit:10;}
	.st7{fill:url(#SVGID_3_);}
	.st8{fill:url(#SVGID_4_);}
	.st9{fill:url(#SVGID_5_);}
	.st10{fill:url(#SVGID_6_);}
	.st11{fill:url(#SVGID_7_);}
	.st12{fill-rule:evenodd;clip-rule:evenodd;fill:#FFFFFF;}
	.st13{fill-rule:evenodd;clip-rule:evenodd;fill:#002C3C;}
	.st14{fill-rule:evenodd;clip-rule:evenodd;fill:url(#SVGID_8_);}
	.st15{fill-rule:evenodd;clip-rule:evenodd;fill:url(#SVGID_9_);}
	.st16{fill-rule:evenodd;clip-rule:evenodd;fill:url(#SVGID_10_);}
	.st17{fill-rule:evenodd;clip-rule:evenodd;fill:url(#SVGID_11_);}
	.st18{fill-rule:evenodd;clip-rule:evenodd;fill:url(#SVGID_12_);}
	.st19{fill-rule:evenodd;clip-rule:evenodd;fill:url(#SVGID_13_);}
	.st20{fill-rule:evenodd;clip-rule:evenodd;fill:url(#SVGID_14_);}
	.st21{fill-rule:evenodd;clip-rule:evenodd;fill:url(#SVGID_15_);}
	.st22{fill-rule:evenodd;clip-rule:evenodd;fill:url(#SVGID_16_);}
	.st23{fill-rule:evenodd;clip-rule:evenodd;fill:url(#SVGID_17_);}
	.st24{fill-rule:evenodd;clip-rule:evenodd;fill:url(#SVGID_18_);}
	.st25{fill-rule:evenodd;clip-rule:evenodd;fill:url(#SVGID_19_);}
	.st26{fill-rule:evenodd;clip-rule:evenodd;fill:url(#SVGID_20_);}
	.st27{fill-rule:evenodd;clip-rule:evenodd;fill:url(#SVGID_21_);}
	.st28{fill-rule:evenodd;clip-rule:evenodd;fill:url(#SVGID_22_);}
	.st29{fill-rule:evenodd;clip-rule:evenodd;fill:url(#SVGID_23_);}
	.st30{fill-rule:evenodd;clip-rule:evenodd;fill:url(#SVGID_24_);}
	.st31{fill-rule:evenodd;clip-rule:evenodd;fill:url(#SVGID_25_);}
	.st32{fill-rule:evenodd;clip-rule:evenodd;fill:url(#SVGID_26_);}
	.st33{fill-rule:evenodd;clip-rule:evenodd;fill:url(#SVGID_27_);}
	.st34{fill-rule:evenodd;clip-rule:evenodd;fill:url(#SVGID_28_);}
	.st35{fill-rule:evenodd;clip-rule:evenodd;fill:url(#SVGID_29_);}
	.st36{fill-rule:evenodd;clip-rule:evenodd;fill:url(#SVGID_30_);}
	.st37{fill-rule:evenodd;clip-rule:evenodd;fill:url(#SVGID_31_);}
	.st38{fill-rule:evenodd;clip-rule:evenodd;fill:url(#SVGID_32_);}
	.st39{fill-rule:evenodd;clip-rule:evenodd;fill:url(#SVGID_33_);}
	.st40{fill-rule:evenodd;clip-rule:evenodd;fill:url(#SVGID_34_);}
	.st41{fill-rule:evenodd;clip-rule:evenodd;fill:url(#SVGID_35_);}
	.st42{fill-rule:evenodd;clip-rule:evenodd;fill:url(#SVGID_36_);}
	.st43{fill-rule:evenodd;clip-rule:evenodd;fill:url(#SVGID_37_);}
	.st44{fill-rule:evenodd;clip-rule:evenodd;fill:url(#SVGID_38_);}
	.st45{fill-rule:evenodd;clip-rule:evenodd;fill:url(#SVGID_39_);}
	.st46{fill-rule:evenodd;clip-rule:evenodd;fill:url(#SVGID_40_);}
	.st47{fill-rule:evenodd;clip-rule:evenodd;fill:url(#SVGID_41_);}
	.st48{fill-rule:evenodd;clip-rule:evenodd;fill:url(#SVGID_42_);}
	.st49{fill-rule:evenodd;clip-rule:evenodd;fill:#2C569B;}
	.st50{fill-rule:evenodd;clip-rule:evenodd;fill:#FEFEFE;}
	.st51{filter:url(#Adobe_OpacityMaskFilter);}
	.st52{opacity:0.75;mask:url(#SVGID_43_);}
	.st53{fill:url(#SVGID_44_);}
	.st54{fill:url(#SVGID_45_);}
	.st55{fill:#F70044;}
	.st56{clip-path:url(#SVGID_50_);}
	.st57{clip-path:url(#SVGID_55_);}
	.st58{clip-path:url(#SVGID_56_);}
	.st59{clip-path:url(#SVGID_57_);fill:#3E82F1;}
	.st60{clip-path:url(#SVGID_62_);}
	.st61{clip-path:url(#SVGID_63_);fill:#32A753;}
	.st62{clip-path:url(#SVGID_65_);fill:#F9BB00;}
	.st63{clip-path:url(#SVGID_67_);fill:#E74133;}
	.st64{fill-rule:evenodd;clip-rule:evenodd;fill:#FF9900;}
	.st65{fill-rule:evenodd;clip-rule:evenodd;fill:#221F1F;}
	.st66{fill-rule:evenodd;clip-rule:evenodd;fill:#2165A8;}
	.st67{fill-rule:evenodd;clip-rule:evenodd;fill:#1C96F0;}
	.st68{fill-rule:evenodd;clip-rule:evenodd;fill:#21458B;}
	.st69{opacity:0.55;fill:#EFEBE3;}
	.st70{opacity:0.23;}
	.st71{opacity:0.7;}
</style>
<g id="Background">
</g>
<g id="Objects">
	<g>
		<g>
			<g>
				<defs>
					<rect id="SVGID_46_" x="-4.23" y="-4.25" width="28.5" height="28.5"/>
				</defs>
				<clipPath id="SVGID_1_">
					<use xlink:href="#SVGID_46_"  style="overflow:visible;"/>
				</clipPath>
			</g>
			<g>
				<defs>
					<rect id="SVGID_48_" x="-4.23" y="-4.25" width="28.5" height="28.5"/>
				</defs>
				<defs>
					<path id="SVGID_49_" d="M15.36,10.13c0-0.4-0.03-0.78-0.11-1.14h-5.25v2.15H13c-0.12,0.71-0.51,1.29-1.1,1.69v1.4h1.8
						C14.75,13.26,15.36,11.83,15.36,10.13L15.36,10.13L15.36,10.13z"/>
				</defs>
				<clipPath id="SVGID_2_">
					<use xlink:href="#SVGID_48_"  style="overflow:visible;"/>
				</clipPath>
				<clipPath id="SVGID_3_" style="clip-path:url(#SVGID_2_);">
					<use xlink:href="#SVGID_49_"  style="overflow:visible;"/>
				</clipPath>
			</g>
			<g>
				<defs>
					<rect id="SVGID_52_" x="-4.23" y="-4.25" width="28.5" height="28.5"/>
				</defs>
				<defs>
					<path id="SVGID_53_" d="M15.36,10.13c0-0.4-0.03-0.78-0.11-1.14h-5.25v2.15H13c-0.12,0.71-0.51,1.29-1.1,1.69v1.4h1.8
						C14.75,13.26,15.36,11.83,15.36,10.13L15.36,10.13L15.36,10.13z"/>
				</defs>
				<defs>
					<rect id="SVGID_54_" x="-4.86" y="-4.86" width="29.72" height="29.72"/>
				</defs>
				<clipPath id="SVGID_4_">
					<use xlink:href="#SVGID_52_"  style="overflow:visible;"/>
				</clipPath>
				<clipPath id="SVGID_5_" style="clip-path:url(#SVGID_4_);">
					<use xlink:href="#SVGID_53_"  style="overflow:visible;"/>
				</clipPath>
				<clipPath id="SVGID_6_" style="clip-path:url(#SVGID_5_);">
					<use xlink:href="#SVGID_54_"  style="overflow:visible;"/>
				</clipPath>
				<rect x="6.91" y="5.9" style="clip-path:url(#SVGID_6_);fill:#3E82F1;" width="11.54" height="11.43"/>
			</g>
		</g>
		<g>
			<g>
				<defs>
					<path id="SVGID_58_" d="M10.01,15.58c1.5,0,2.76-0.51,3.68-1.35l-1.8-1.4c-0.49,0.34-1.14,0.52-1.89,0.52
						c-1.46,0-2.69-0.98-3.12-2.3H5.04v1.44C5.94,14.33,7.83,15.58,10.01,15.58L10.01,15.58L10.01,15.58z"/>
				</defs>
				<clipPath id="SVGID_7_">
					<use xlink:href="#SVGID_58_"  style="overflow:visible;"/>
				</clipPath>
			</g>
			<g>
				<defs>
					<path id="SVGID_60_" d="M10.01,15.58c1.5,0,2.76-0.51,3.68-1.35l-1.8-1.4c-0.49,0.34-1.14,0.52-1.89,0.52
						c-1.46,0-2.69-0.98-3.12-2.3H5.04v1.44C5.94,14.33,7.83,15.58,10.01,15.58L10.01,15.58L10.01,15.58z"/>
				</defs>
				<defs>
					<rect id="SVGID_61_" x="-4.86" y="-4.86" width="29.72" height="29.72"/>
				</defs>
				<clipPath id="SVGID_8_">
					<use xlink:href="#SVGID_60_"  style="overflow:visible;"/>
				</clipPath>
				<clipPath id="SVGID_9_" style="clip-path:url(#SVGID_8_);">
					<use xlink:href="#SVGID_61_"  style="overflow:visible;"/>
				</clipPath>
				<rect x="1.94" y="7.97" style="clip-path:url(#SVGID_9_);fill:#32A753;" width="14.87" height="10.71"/>
			</g>
		</g>
		<g>
			<g>
				<defs>
					<path id="SVGID_64_" d="M6.89,11.07c-0.11-0.34-0.18-0.69-0.18-1.06s0.06-0.72,0.17-1.06V7.51H5.04c-0.38,0.75-0.6,1.6-0.6,2.5
						s0.21,1.75,0.6,2.5L6.89,11.07L6.89,11.07L6.89,11.07z"/>
				</defs>
				<clipPath id="SVGID_10_">
					<use xlink:href="#SVGID_64_"  style="overflow:visible;"/>
				</clipPath>
				<rect x="1.34" y="4.41" style="clip-path:url(#SVGID_10_);fill:#F9BB00;" width="8.65" height="11.2"/>
			</g>
		</g>
		<g>
			<g>
				<defs>
					<path id="SVGID_66_" d="M10.01,6.65c0.81,0,1.55,0.28,2.13,0.83l1.6-1.6c-0.97-0.91-2.23-1.46-3.73-1.46
						c-2.18,0-4.07,1.24-4.99,3.07l1.86,1.44C7.32,7.63,8.57,6.65,10.01,6.65L10.01,6.65L10.01,6.65z"/>
				</defs>
				<clipPath id="SVGID_11_">
					<use xlink:href="#SVGID_66_"  style="overflow:visible;"/>
				</clipPath>
				<rect x="2.35" y="1.58" style="clip-path:url(#SVGID_11_);fill:#E74133;" width="15.35" height="10.74"/>
			</g>
		</g>
	</g>
	<g>
		<g>
		</g>
	</g>
</g>
<g id="Texture">
</g>
<g id="Designed_by_Freepik">
</g>
</svg>
