<?xml version="1.0" encoding="utf-8"?>
<!-- Generator: Adobe Illustrator 23.0.0, SVG Export Plug-In . SVG Version: 6.00 Build 0)  -->
<svg version="1.1" xmlns="http://www.w3.org/2000/svg" xmlns:xlink="http://www.w3.org/1999/xlink" x="0px" y="0px"
	 viewBox="0 0 20 20" style="enable-background:new 0 0 20 20;" xml:space="preserve">
<style type="text/css">
	.st0{fill:#EFEBE3;}
	.st1{fill:url(#SVGID_1_);}
	.st2{fill:url(#SVGID_2_);}
	.st3{fill:#2C569B;}
	.st4{fill-rule:evenodd;clip-rule:evenodd;fill:#EFEBE3;}
	.st5{fill:#FFFFFF;}
	.st6{opacity:0.25;fill:#131313;stroke:#F6F6F6;stroke-width:0.2136;stroke-miterlimit:10;}
	.st7{fill:url(#SVGID_3_);}
	.st8{fill:url(#SVGID_4_);}
	.st9{fill:url(#SVGID_5_);}
	.st10{fill:url(#SVGID_6_);}
	.st11{fill:url(#SVGID_7_);}
	.st12{fill-rule:evenodd;clip-rule:evenodd;fill:#FFFFFF;}
	.st13{fill-rule:evenodd;clip-rule:evenodd;fill:#002C3C;}
	.st14{fill-rule:evenodd;clip-rule:evenodd;fill:url(#SVGID_8_);}
	.st15{fill-rule:evenodd;clip-rule:evenodd;fill:url(#SVGID_9_);}
	.st16{fill-rule:evenodd;clip-rule:evenodd;fill:url(#SVGID_10_);}
	.st17{fill-rule:evenodd;clip-rule:evenodd;fill:url(#SVGID_11_);}
	.st18{fill-rule:evenodd;clip-rule:evenodd;fill:url(#SVGID_12_);}
	.st19{fill-rule:evenodd;clip-rule:evenodd;fill:url(#SVGID_13_);}
	.st20{fill-rule:evenodd;clip-rule:evenodd;fill:url(#SVGID_14_);}
	.st21{fill-rule:evenodd;clip-rule:evenodd;fill:url(#SVGID_15_);}
	.st22{fill-rule:evenodd;clip-rule:evenodd;fill:url(#SVGID_16_);}
	.st23{fill-rule:evenodd;clip-rule:evenodd;fill:url(#SVGID_17_);}
	.st24{fill-rule:evenodd;clip-rule:evenodd;fill:url(#SVGID_18_);}
	.st25{fill-rule:evenodd;clip-rule:evenodd;fill:url(#SVGID_19_);}
	.st26{fill-rule:evenodd;clip-rule:evenodd;fill:url(#SVGID_20_);}
	.st27{fill-rule:evenodd;clip-rule:evenodd;fill:url(#SVGID_21_);}
	.st28{fill-rule:evenodd;clip-rule:evenodd;fill:url(#SVGID_22_);}
	.st29{fill-rule:evenodd;clip-rule:evenodd;fill:url(#SVGID_23_);}
	.st30{fill-rule:evenodd;clip-rule:evenodd;fill:url(#SVGID_24_);}
	.st31{fill-rule:evenodd;clip-rule:evenodd;fill:url(#SVGID_25_);}
	.st32{fill-rule:evenodd;clip-rule:evenodd;fill:url(#SVGID_26_);}
	.st33{fill-rule:evenodd;clip-rule:evenodd;fill:url(#SVGID_27_);}
	.st34{fill-rule:evenodd;clip-rule:evenodd;fill:url(#SVGID_28_);}
	.st35{fill-rule:evenodd;clip-rule:evenodd;fill:url(#SVGID_29_);}
	.st36{fill-rule:evenodd;clip-rule:evenodd;fill:url(#SVGID_30_);}
	.st37{fill-rule:evenodd;clip-rule:evenodd;fill:url(#SVGID_31_);}
	.st38{fill-rule:evenodd;clip-rule:evenodd;fill:url(#SVGID_32_);}
	.st39{fill-rule:evenodd;clip-rule:evenodd;fill:url(#SVGID_33_);}
	.st40{fill-rule:evenodd;clip-rule:evenodd;fill:url(#SVGID_34_);}
	.st41{fill-rule:evenodd;clip-rule:evenodd;fill:url(#SVGID_35_);}
	.st42{fill-rule:evenodd;clip-rule:evenodd;fill:url(#SVGID_36_);}
	.st43{fill-rule:evenodd;clip-rule:evenodd;fill:url(#SVGID_37_);}
	.st44{fill-rule:evenodd;clip-rule:evenodd;fill:url(#SVGID_38_);}
	.st45{fill-rule:evenodd;clip-rule:evenodd;fill:url(#SVGID_39_);}
	.st46{fill-rule:evenodd;clip-rule:evenodd;fill:url(#SVGID_40_);}
	.st47{fill-rule:evenodd;clip-rule:evenodd;fill:url(#SVGID_41_);}
	.st48{fill-rule:evenodd;clip-rule:evenodd;fill:url(#SVGID_42_);}
	.st49{fill-rule:evenodd;clip-rule:evenodd;fill:#2C569B;}
	.st50{fill-rule:evenodd;clip-rule:evenodd;fill:#FEFEFE;}
	.st51{filter:url(#Adobe_OpacityMaskFilter);}
	.st52{opacity:0.75;mask:url(#SVGID_43_);}
	.st53{fill:url(#SVGID_44_);}
	.st54{fill:url(#SVGID_45_);}
	.st55{fill:#F70044;}
	.st56{clip-path:url(#SVGID_50_);}
	.st57{clip-path:url(#SVGID_55_);}
	.st58{clip-path:url(#SVGID_56_);}
	.st59{clip-path:url(#SVGID_57_);fill:#3E82F1;}
	.st60{clip-path:url(#SVGID_62_);}
	.st61{clip-path:url(#SVGID_63_);fill:#32A753;}
	.st62{clip-path:url(#SVGID_65_);fill:#F9BB00;}
	.st63{clip-path:url(#SVGID_67_);fill:#E74133;}
	.st64{fill-rule:evenodd;clip-rule:evenodd;fill:#FF9900;}
	.st65{fill-rule:evenodd;clip-rule:evenodd;fill:#221F1F;}
	.st66{fill-rule:evenodd;clip-rule:evenodd;fill:#2165A8;}
	.st67{fill-rule:evenodd;clip-rule:evenodd;fill:#1C96F0;}
	.st68{fill-rule:evenodd;clip-rule:evenodd;fill:#21458B;}
	.st69{opacity:0.55;fill:#EFEBE3;}
	.st70{opacity:0.23;}
	.st71{opacity:0.7;}
</style>
<g id="Background">
</g>
<g id="Objects">
	<g>
		<g>
			<g>
				<path class="st55" d="M10.58,5.3c1.63,0,1.82,0.01,2.47,0.04c0.59,0.03,0.92,0.13,1.13,0.21c0.28,0.11,0.49,0.24,0.7,0.46
					c0.21,0.21,0.35,0.42,0.46,0.7c0.08,0.21,0.18,0.54,0.21,1.13c0.03,0.64,0.04,0.84,0.04,2.47c0,1.63-0.01,1.82-0.04,2.47
					c-0.03,0.59-0.13,0.92-0.21,1.13c-0.11,0.28-0.24,0.49-0.46,0.7c-0.21,0.21-0.42,0.35-0.7,0.46c-0.21,0.08-0.54,0.18-1.13,0.21
					c-0.64,0.03-0.84,0.04-2.47,0.04c-1.63,0-1.82-0.01-2.47-0.04c-0.59-0.03-0.92-0.13-1.13-0.21c-0.28-0.11-0.49-0.24-0.7-0.46
					c-0.21-0.21-0.35-0.42-0.46-0.7c-0.08-0.21-0.18-0.54-0.21-1.13c-0.03-0.64-0.04-0.84-0.04-2.47c0-1.63,0.01-1.82,0.04-2.47
					c0.03-0.59,0.13-0.92,0.21-1.13C5.93,6.42,6.06,6.22,6.28,6c0.21-0.21,0.42-0.35,0.7-0.46c0.21-0.08,0.54-0.18,1.13-0.21
					C8.75,5.31,8.95,5.3,10.58,5.3 M10.58,4.2c-1.66,0-1.86,0.01-2.52,0.04C7.41,4.27,6.97,4.37,6.58,4.52
					c-0.4,0.16-0.74,0.36-1.08,0.7C5.16,5.57,4.95,5.91,4.8,6.31C4.65,6.7,4.54,7.14,4.51,7.79C4.48,8.44,4.48,8.65,4.48,10.3
					c0,1.66,0.01,1.86,0.04,2.52c0.03,0.65,0.13,1.09,0.28,1.48c0.16,0.4,0.36,0.74,0.7,1.08c0.34,0.34,0.68,0.55,1.08,0.7
					c0.39,0.15,0.83,0.25,1.48,0.28c0.65,0.03,0.86,0.04,2.52,0.04c1.66,0,1.86-0.01,2.52-0.04c0.65-0.03,1.09-0.13,1.48-0.28
					c0.4-0.16,0.74-0.36,1.08-0.7c0.34-0.34,0.55-0.68,0.7-1.08c0.15-0.39,0.25-0.83,0.28-1.48c0.03-0.65,0.04-0.86,0.04-2.52
					c0-1.66-0.01-1.86-0.04-2.52c-0.03-0.65-0.13-1.09-0.28-1.48c-0.16-0.4-0.36-0.74-0.7-1.08c-0.34-0.34-0.68-0.55-1.08-0.7
					c-0.39-0.15-0.83-0.25-1.48-0.28C12.44,4.21,12.23,4.2,10.58,4.2"/>
				<path class="st55" d="M10.58,7.17c-1.73,0-3.13,1.4-3.13,3.13c0,1.73,1.4,3.13,3.13,3.13s3.13-1.4,3.13-3.13
					C13.71,8.57,12.31,7.17,10.58,7.17 M10.58,12.34c-1.12,0-2.03-0.91-2.03-2.03s0.91-2.03,2.03-2.03s2.03,0.91,2.03,2.03
					S11.7,12.34,10.58,12.34"/>
				<path class="st55" d="M14.56,7.05c0,0.4-0.33,0.73-0.73,0.73c-0.4,0-0.73-0.33-0.73-0.73c0-0.4,0.33-0.73,0.73-0.73
					C14.24,6.32,14.56,6.64,14.56,7.05"/>
			</g>
		</g>
	</g>
	<g>
		<g>
		</g>
	</g>
</g>
<g id="Texture">
</g>
<g id="Designed_by_Freepik">
</g>
</svg>
