<?xml version="1.0" encoding="utf-8"?>
<!-- Generator: Adobe Illustrator 23.0.0, SVG Export Plug-In . SVG Version: 6.00 Build 0)  -->
<svg version="1.1" xmlns="http://www.w3.org/2000/svg" xmlns:xlink="http://www.w3.org/1999/xlink" x="0px" y="0px"
	 viewBox="0 0 20 20" style="enable-background:new 0 0 20 20;" xml:space="preserve">
<style type="text/css">
	.st0{fill:#EFEBE3;}
	.st1{fill:url(#SVGID_1_);}
	.st2{fill:url(#SVGID_2_);}
	.st3{fill:#2C569B;}
	.st4{fill-rule:evenodd;clip-rule:evenodd;fill:#EFEBE3;}
	.st5{fill:#FFFFFF;}
	.st6{opacity:0.25;fill:#131313;stroke:#F6F6F6;stroke-width:0.2136;stroke-miterlimit:10;}
	.st7{fill:url(#SVGID_3_);}
	.st8{fill:url(#SVGID_4_);}
	.st9{fill:url(#SVGID_5_);}
	.st10{fill:url(#SVGID_6_);}
	.st11{fill:url(#SVGID_7_);}
	.st12{fill-rule:evenodd;clip-rule:evenodd;fill:#FFFFFF;}
	.st13{fill-rule:evenodd;clip-rule:evenodd;fill:#002C3C;}
	.st14{fill-rule:evenodd;clip-rule:evenodd;fill:url(#SVGID_8_);}
	.st15{fill-rule:evenodd;clip-rule:evenodd;fill:url(#SVGID_9_);}
	.st16{fill-rule:evenodd;clip-rule:evenodd;fill:url(#SVGID_10_);}
	.st17{fill-rule:evenodd;clip-rule:evenodd;fill:url(#SVGID_11_);}
	.st18{fill-rule:evenodd;clip-rule:evenodd;fill:url(#SVGID_12_);}
	.st19{fill-rule:evenodd;clip-rule:evenodd;fill:url(#SVGID_13_);}
	.st20{fill-rule:evenodd;clip-rule:evenodd;fill:url(#SVGID_14_);}
	.st21{fill-rule:evenodd;clip-rule:evenodd;fill:url(#SVGID_15_);}
	.st22{fill-rule:evenodd;clip-rule:evenodd;fill:url(#SVGID_16_);}
	.st23{fill-rule:evenodd;clip-rule:evenodd;fill:url(#SVGID_17_);}
	.st24{fill-rule:evenodd;clip-rule:evenodd;fill:url(#SVGID_18_);}
	.st25{fill-rule:evenodd;clip-rule:evenodd;fill:url(#SVGID_19_);}
	.st26{fill-rule:evenodd;clip-rule:evenodd;fill:url(#SVGID_20_);}
	.st27{fill-rule:evenodd;clip-rule:evenodd;fill:url(#SVGID_21_);}
	.st28{fill-rule:evenodd;clip-rule:evenodd;fill:url(#SVGID_22_);}
	.st29{fill-rule:evenodd;clip-rule:evenodd;fill:url(#SVGID_23_);}
	.st30{fill-rule:evenodd;clip-rule:evenodd;fill:url(#SVGID_24_);}
	.st31{fill-rule:evenodd;clip-rule:evenodd;fill:url(#SVGID_25_);}
	.st32{fill-rule:evenodd;clip-rule:evenodd;fill:url(#SVGID_26_);}
	.st33{fill-rule:evenodd;clip-rule:evenodd;fill:url(#SVGID_27_);}
	.st34{fill-rule:evenodd;clip-rule:evenodd;fill:url(#SVGID_28_);}
	.st35{fill-rule:evenodd;clip-rule:evenodd;fill:url(#SVGID_29_);}
	.st36{fill-rule:evenodd;clip-rule:evenodd;fill:url(#SVGID_30_);}
	.st37{fill-rule:evenodd;clip-rule:evenodd;fill:url(#SVGID_31_);}
	.st38{fill-rule:evenodd;clip-rule:evenodd;fill:url(#SVGID_32_);}
	.st39{fill-rule:evenodd;clip-rule:evenodd;fill:url(#SVGID_33_);}
	.st40{fill-rule:evenodd;clip-rule:evenodd;fill:url(#SVGID_34_);}
	.st41{fill-rule:evenodd;clip-rule:evenodd;fill:url(#SVGID_35_);}
	.st42{fill-rule:evenodd;clip-rule:evenodd;fill:url(#SVGID_36_);}
	.st43{fill-rule:evenodd;clip-rule:evenodd;fill:url(#SVGID_37_);}
	.st44{fill-rule:evenodd;clip-rule:evenodd;fill:url(#SVGID_38_);}
	.st45{fill-rule:evenodd;clip-rule:evenodd;fill:url(#SVGID_39_);}
	.st46{fill-rule:evenodd;clip-rule:evenodd;fill:url(#SVGID_40_);}
	.st47{fill-rule:evenodd;clip-rule:evenodd;fill:url(#SVGID_41_);}
	.st48{fill-rule:evenodd;clip-rule:evenodd;fill:url(#SVGID_42_);}
	.st49{fill-rule:evenodd;clip-rule:evenodd;fill:#2C569B;}
	.st50{fill-rule:evenodd;clip-rule:evenodd;fill:#FEFEFE;}
	.st51{filter:url(#Adobe_OpacityMaskFilter);}
	.st52{opacity:0.75;mask:url(#SVGID_43_);}
	.st53{fill:url(#SVGID_44_);}
	.st54{fill:url(#SVGID_45_);}
	.st55{fill:#F70044;}
	.st56{clip-path:url(#SVGID_50_);}
	.st57{clip-path:url(#SVGID_55_);}
	.st58{clip-path:url(#SVGID_56_);}
	.st59{clip-path:url(#SVGID_57_);fill:#3E82F1;}
	.st60{clip-path:url(#SVGID_62_);}
	.st61{clip-path:url(#SVGID_63_);fill:#32A753;}
	.st62{clip-path:url(#SVGID_65_);fill:#F9BB00;}
	.st63{clip-path:url(#SVGID_67_);fill:#E74133;}
	.st64{fill-rule:evenodd;clip-rule:evenodd;fill:#FF9900;}
	.st65{fill-rule:evenodd;clip-rule:evenodd;fill:#221F1F;}
	.st66{fill-rule:evenodd;clip-rule:evenodd;fill:#2165A8;}
	.st67{fill-rule:evenodd;clip-rule:evenodd;fill:#1C96F0;}
	.st68{fill-rule:evenodd;clip-rule:evenodd;fill:#21458B;}
	.st69{opacity:0.55;fill:#EFEBE3;}
	.st70{opacity:0.23;}
	.st71{opacity:0.7;}
</style>
<g id="Background">
</g>
<g id="Objects">
	<g>
		<g>
		</g>
	</g>
	<g>
		<g>
			<path class="st68" d="M15.43,6.29c0.46,0.85,0.31,1.85,0.13,2.44c-0.99,3.22-5.43,3.05-6.07,3.05c-0.64,0-0.79,0.59-0.79,0.59
				l-0.48,2.09c-0.13,0.74-0.8,0.7-0.8,0.7s-0.87,0-1.44,0c-0.04,0-0.07,0-0.11,0c0,0.13,0.02,0.52,0.49,0.52c0.58,0,1.45,0,1.45,0
				s0.66,0.04,0.8-0.7l0.47-2.09c0,0,0.15-0.6,0.8-0.6c0.64,0,5.08,0.18,6.07-3.04C16.17,8.53,16.34,7.22,15.43,6.29L15.43,6.29z"/>
			<path class="st68" d="M7.77,14.01l0.47-2.09c0,0,0.15-0.6,0.8-0.6c0.64,0,5.08,0.18,6.07-3.04c0.36-1.17,0.61-3.97-3.88-3.97
				H7.99c0,0-0.68-0.03-0.85,0.69l-2.11,9.14c0,0-0.09,0.57,0.48,0.57c0.58,0,1.45,0,1.45,0S7.63,14.75,7.77,14.01L7.77,14.01z
				 M8.98,8.7l0.43-1.87c0,0,0.14-0.5,0.58-0.57c0.44-0.08,1.19,0.01,1.39,0.05c1.25,0.24,0.99,1.42,0.99,1.42
				c-0.25,1.85-3.11,1.59-3.11,1.59C8.81,9.16,8.98,8.7,8.98,8.7L8.98,8.7z"/>
		</g>
	</g>
</g>
<g id="Texture">
</g>
<g id="Designed_by_Freepik">
</g>
</svg>
