<?xml version="1.0" encoding="utf-8"?>
<!-- Generator: Adobe Illustrator 23.0.0, SVG Export Plug-In . SVG Version: 6.00 Build 0)  -->
<svg version="1.1" xmlns="http://www.w3.org/2000/svg" xmlns:xlink="http://www.w3.org/1999/xlink" x="0px" y="0px"
	 viewBox="0 0 20 20" style="enable-background:new 0 0 20 20;" xml:space="preserve">
<style type="text/css">
	.st0{fill:#EFEBE3;}
	.st1{fill:url(#SVGID_1_);}
	.st2{fill:url(#SVGID_2_);}
	.st3{fill:#2C569B;}
	.st4{fill-rule:evenodd;clip-rule:evenodd;fill:#EFEBE3;}
	.st5{fill:#FFFFFF;}
	.st6{opacity:0.25;fill:#131313;stroke:#F6F6F6;stroke-width:0.2136;stroke-miterlimit:10;}
	.st7{fill:url(#SVGID_3_);}
	.st8{fill:url(#SVGID_4_);}
	.st9{fill:url(#SVGID_5_);}
	.st10{fill:url(#SVGID_6_);}
	.st11{fill:url(#SVGID_7_);}
	.st12{fill-rule:evenodd;clip-rule:evenodd;fill:#FFFFFF;}
	.st13{fill-rule:evenodd;clip-rule:evenodd;fill:#002C3C;}
	.st14{fill-rule:evenodd;clip-rule:evenodd;fill:url(#SVGID_8_);}
	.st15{fill-rule:evenodd;clip-rule:evenodd;fill:url(#SVGID_9_);}
	.st16{fill-rule:evenodd;clip-rule:evenodd;fill:url(#SVGID_10_);}
	.st17{fill-rule:evenodd;clip-rule:evenodd;fill:url(#SVGID_11_);}
	.st18{fill-rule:evenodd;clip-rule:evenodd;fill:url(#SVGID_12_);}
	.st19{fill-rule:evenodd;clip-rule:evenodd;fill:url(#SVGID_13_);}
	.st20{fill-rule:evenodd;clip-rule:evenodd;fill:url(#SVGID_14_);}
	.st21{fill-rule:evenodd;clip-rule:evenodd;fill:url(#SVGID_15_);}
	.st22{fill-rule:evenodd;clip-rule:evenodd;fill:url(#SVGID_16_);}
	.st23{fill-rule:evenodd;clip-rule:evenodd;fill:url(#SVGID_17_);}
	.st24{fill-rule:evenodd;clip-rule:evenodd;fill:url(#SVGID_18_);}
	.st25{fill-rule:evenodd;clip-rule:evenodd;fill:url(#SVGID_19_);}
	.st26{fill-rule:evenodd;clip-rule:evenodd;fill:url(#SVGID_20_);}
	.st27{fill-rule:evenodd;clip-rule:evenodd;fill:url(#SVGID_21_);}
	.st28{fill-rule:evenodd;clip-rule:evenodd;fill:url(#SVGID_22_);}
	.st29{fill-rule:evenodd;clip-rule:evenodd;fill:url(#SVGID_23_);}
	.st30{fill-rule:evenodd;clip-rule:evenodd;fill:url(#SVGID_24_);}
	.st31{fill-rule:evenodd;clip-rule:evenodd;fill:url(#SVGID_25_);}
	.st32{fill-rule:evenodd;clip-rule:evenodd;fill:url(#SVGID_26_);}
	.st33{fill-rule:evenodd;clip-rule:evenodd;fill:url(#SVGID_27_);}
	.st34{fill-rule:evenodd;clip-rule:evenodd;fill:url(#SVGID_28_);}
	.st35{fill-rule:evenodd;clip-rule:evenodd;fill:url(#SVGID_29_);}
	.st36{fill-rule:evenodd;clip-rule:evenodd;fill:url(#SVGID_30_);}
	.st37{fill-rule:evenodd;clip-rule:evenodd;fill:url(#SVGID_31_);}
	.st38{fill-rule:evenodd;clip-rule:evenodd;fill:url(#SVGID_32_);}
	.st39{fill-rule:evenodd;clip-rule:evenodd;fill:url(#SVGID_33_);}
	.st40{fill-rule:evenodd;clip-rule:evenodd;fill:url(#SVGID_34_);}
	.st41{fill-rule:evenodd;clip-rule:evenodd;fill:url(#SVGID_35_);}
	.st42{fill-rule:evenodd;clip-rule:evenodd;fill:url(#SVGID_36_);}
	.st43{fill-rule:evenodd;clip-rule:evenodd;fill:url(#SVGID_37_);}
	.st44{fill-rule:evenodd;clip-rule:evenodd;fill:url(#SVGID_38_);}
	.st45{fill-rule:evenodd;clip-rule:evenodd;fill:url(#SVGID_39_);}
	.st46{fill-rule:evenodd;clip-rule:evenodd;fill:url(#SVGID_40_);}
	.st47{fill-rule:evenodd;clip-rule:evenodd;fill:url(#SVGID_41_);}
	.st48{fill-rule:evenodd;clip-rule:evenodd;fill:url(#SVGID_42_);}
	.st49{fill-rule:evenodd;clip-rule:evenodd;fill:#2C569B;}
	.st50{fill-rule:evenodd;clip-rule:evenodd;fill:#FEFEFE;}
	.st51{filter:url(#Adobe_OpacityMaskFilter);}
	.st52{opacity:0.75;mask:url(#SVGID_43_);}
	.st53{fill:url(#SVGID_44_);}
	.st54{fill:url(#SVGID_45_);}
	.st55{fill:#F70044;}
	.st56{clip-path:url(#SVGID_50_);}
	.st57{clip-path:url(#SVGID_55_);}
	.st58{clip-path:url(#SVGID_56_);}
	.st59{clip-path:url(#SVGID_57_);fill:#3E82F1;}
	.st60{clip-path:url(#SVGID_62_);}
	.st61{clip-path:url(#SVGID_63_);fill:#32A753;}
	.st62{clip-path:url(#SVGID_65_);fill:#F9BB00;}
	.st63{clip-path:url(#SVGID_67_);fill:#E74133;}
	.st64{fill-rule:evenodd;clip-rule:evenodd;fill:#FF9900;}
	.st65{fill-rule:evenodd;clip-rule:evenodd;fill:#221F1F;}
	.st66{fill-rule:evenodd;clip-rule:evenodd;fill:#2165A8;}
	.st67{fill-rule:evenodd;clip-rule:evenodd;fill:#1C96F0;}
	.st68{fill-rule:evenodd;clip-rule:evenodd;fill:#21458B;}
	.st69{opacity:0.55;fill:#EFEBE3;}
	.st70{opacity:0.23;}
	.st71{opacity:0.7;}
</style>
<g id="Background">
</g>
<g id="Objects">
	<g>
		<g>
			<path class="st67" d="M16.96,5.85c-0.5,0.22-1.04,0.36-1.61,0.43c0.58-0.34,1.02-0.88,1.23-1.53c-0.53,0.32-1.14,0.55-1.78,0.67
				c-0.5-0.54-1.23-0.86-2.04-0.86c-1.54,0-2.79,1.23-2.79,2.74c0,0.22,0.03,0.42,0.08,0.63C7.74,7.82,5.68,6.73,4.31,5.06
				C4.07,5.47,3.92,5.94,3.92,6.44c0,0.96,0.5,1.8,1.24,2.29C4.71,8.72,4.28,8.59,3.9,8.39c0,0.01,0,0.02,0,0.03
				c0,0.35,0.07,0.68,0.19,0.99c0.34,0.87,1.12,1.51,2.05,1.7c-0.24,0.07-0.48,0.1-0.74,0.1c-0.17,0-0.35-0.02-0.52-0.06
				c0.36,1.09,1.39,1.89,2.61,1.91c-0.96,0.74-2.15,1.17-3.46,1.17c-0.23,0-0.44-0.01-0.67-0.03c1.24,0.77,2.71,1.23,4.28,1.23
				c4.36,0,7.05-3.02,7.75-6.15c0.13-0.56,0.18-1.12,0.18-1.66c0-0.11,0-0.24,0-0.35C16.11,6.89,16.58,6.4,16.96,5.85L16.96,5.85z"
				/>
		</g>
	</g>
</g>
<g id="Texture">
</g>
<g id="Designed_by_Freepik">
</g>
</svg>
