<?xml version="1.0" encoding="utf-8"?>
<!-- Generator: Adobe Illustrator 19.2.0, SVG Export Plug-In . SVG Version: 6.00 Build 0)  -->
<svg version="1.1" id="Layer_1" xmlns="http://www.w3.org/2000/svg" xmlns:xlink="http://www.w3.org/1999/xlink" x="0px" y="0px"
	 viewBox="0 0 60 40" style="enable-background:new 0 0 60 40;" xml:space="preserve">
<style type="text/css">
	.st0{fill:none;}
	.st1{fill:#FFFFFF;}
	.st2{fill-rule:evenodd;clip-rule:evenodd;}
	.st3{fill:#0083C0;}
</style>
<g>
	<rect class="st1" width="60" height="40"/>
	<g>
		<path class="st3" d="M10.2,16.1h1v1.5c0.4-0.5,0.8-0.9,1.4-1.2c0.5-0.3,1.1-0.4,1.8-0.4c1.1,0,2.1,0.4,2.9,1.2
			c0.8,0.8,1.2,1.8,1.2,2.9c0,1.1-0.4,2.2-1.2,3c-0.7,0.8-1.8,1.2-2.9,1.2c-0.6,0-1.2-0.1-1.7-0.4c-0.6-0.3-1-0.7-1.4-1.2v4.3h-1
			V16.1z M14.2,16.9c-0.8,0-1.6,0.3-2.2,0.9c-0.6,0.6-0.9,1.4-0.9,2.3c0,0.6,0.1,1.1,0.4,1.6c0.3,0.5,0.7,0.9,1.1,1.1
			c0.5,0.3,1,0.4,1.6,0.4c0.5,0,1.1-0.1,1.5-0.4c0.5-0.3,0.9-0.7,1.1-1.2c0.6-1,0.6-2.2,0-3.2C16.4,17.5,15.3,16.9,14.2,16.9
			L14.2,16.9z"/>
		<path class="st3" d="M27,21.4l0.9,0.5c-0.2,0.5-0.6,1-1,1.3c-0.4,0.3-0.8,0.6-1.3,0.8c-0.5,0.2-1,0.3-1.6,0.3
			c-1.3,0-2.3-0.4-3-1.3c-0.7-0.8-1.1-1.8-1.1-2.9c0-1,0.3-1.9,0.9-2.7c0.7-1,1.9-1.5,3.2-1.5c1.3,0,2.5,0.5,3.3,1.5
			c0.6,0.8,0.9,1.7,0.9,2.7H21c0,0.8,0.3,1.7,0.9,2.3c0.5,0.6,1.3,0.9,2.1,0.9c0.4,0,0.8-0.1,1.2-0.2c0.4-0.1,0.7-0.3,1-0.6
			C26.5,22.2,26.8,21.8,27,21.4z M27,19.3c-0.1-0.5-0.3-0.9-0.6-1.3c-0.3-0.3-0.6-0.6-1.1-0.8c-0.4-0.2-0.9-0.3-1.3-0.3
			c-0.7,0-1.5,0.3-2,0.7c-0.5,0.4-0.8,1-0.9,1.6H27z"/>
		<path class="st3" d="M38,16.1v7.9h-1v-1.4c-0.4,0.5-0.9,0.9-1.4,1.2c-0.5,0.3-1.1,0.4-1.8,0.4c-1.1,0-2.1-0.4-2.9-1.2
			c-0.8-0.8-1.2-1.8-1.2-3c0-1.1,0.4-2.2,1.2-2.9c0.7-0.8,1.8-1.2,2.9-1.2c0.6,0,1.2,0.1,1.8,0.4c0.6,0.3,1,0.7,1.4,1.2v-1.5
			L38,16.1z M33.9,16.9c-1.1,0-2.2,0.6-2.7,1.6c-0.6,1-0.6,2.2,0,3.2c0.3,0.5,0.7,0.9,1.1,1.2c0.5,0.3,1,0.4,1.5,0.4
			c0.6,0,1.1-0.1,1.6-0.4c0.5-0.3,0.9-0.7,1.1-1.1c0.3-0.5,0.4-1.1,0.4-1.6c0-0.9-0.3-1.7-0.9-2.3C35.5,17.2,34.7,16.9,33.9,16.9
			L33.9,16.9z"/>
		<path class="st3" d="M39.9,16.1H41v1.2c0.3-0.4,0.6-0.7,1-1c0.3-0.2,0.7-0.3,1.1-0.3c0.3,0,0.6,0.1,0.9,0.3L43.4,17
			c-0.2-0.1-0.4-0.1-0.5-0.1c-0.4,0-0.7,0.2-1,0.4c-0.4,0.4-0.6,0.8-0.7,1.3C41.1,19.1,41,20,41,21.4v2.7h-1.1L39.9,16.1z"/>
		<rect x="44.7" y="13.1" class="st3" width="1" height="11"/>
		<path class="st3" d="M49,22.4c0.2,0,0.5,0.1,0.6,0.3c0.4,0.4,0.4,0.9,0,1.3c-0.4,0.4-0.9,0.4-1.3,0l0,0c-0.4-0.4-0.4-0.9,0-1.3
			C48.5,22.5,48.7,22.4,49,22.4L49,22.4z"/>
	</g>
</g>
</svg>
