<svg id="Layer_1" data-name="Layer 1" xmlns="http://www.w3.org/2000/svg" viewBox="0 0 190 66.38"><defs><style>.cls-1,.cls-2{fill:#231f20;}.cls-1{fill-rule:evenodd;}</style></defs><title>pearl3</title><path class="cls-1" d="M5,16.69H9.85v7a19.27,19.27,0,0,1,6.65-5.94,17.88,17.88,0,0,1,8.4-2,18.76,18.76,0,0,1,13.82,5.8,19.14,19.14,0,0,1,5.75,14,19.52,19.52,0,0,1-5.7,14.17A18.52,18.52,0,0,1,25,55.52a18.55,18.55,0,0,1-8.32-1.88A21.07,21.07,0,0,1,9.85,48V68.44H5V16.69Zm19.55,3.78a14.31,14.31,0,0,0-10.65,4.4,15,15,0,0,0-4.33,11,15.51,15.51,0,0,0,1.93,7.73A14.06,14.06,0,0,0,17,49a15.33,15.33,0,0,0,7.59,2A14.35,14.35,0,0,0,32,49a14.84,14.84,0,0,0,5.51-5.66,15.29,15.29,0,0,0,0-15.26,14.72,14.72,0,0,0-13-7.59Z" transform="translate(-5 -2.06)"/><path class="cls-1" d="M85.79,42,89.9,44.2a22.43,22.43,0,0,1-4.69,6.38,18.84,18.84,0,0,1-6,3.69,21,21,0,0,1-7.52,1.26q-9.31,0-14.55-6.07a20.4,20.4,0,0,1-5.25-13.7,20.14,20.14,0,0,1,4.45-12.82,18.19,18.19,0,0,1,15.07-7.16A18.8,18.8,0,0,1,87,23.1,20.41,20.41,0,0,1,91.19,36H56.93a15.3,15.3,0,0,0,4.24,10.78A13.58,13.58,0,0,0,71.29,51a16.45,16.45,0,0,0,5.66-1,14.86,14.86,0,0,0,4.68-2.65A22.42,22.42,0,0,0,85.79,42Zm0-10.21A16.13,16.13,0,0,0,83,25.59a13.58,13.58,0,0,0-5-3.76,15.28,15.28,0,0,0-6.48-1.43A14,14,0,0,0,61.88,24a16.19,16.19,0,0,0-4.46,7.84Z" transform="translate(-5 -2.06)"/><path class="cls-1" d="M138.1,16.69v37.9h-4.85V48.07a20.59,20.59,0,0,1-6.88,5.59A18.74,18.74,0,0,1,118,55.52a18.51,18.51,0,0,1-13.73-5.82,19.51,19.51,0,0,1-5.69-14.17,19.14,19.14,0,0,1,5.75-14,18.71,18.71,0,0,1,13.81-5.8,18,18,0,0,1,8.43,2,19,19,0,0,1,6.63,5.94v-7Zm-19.53,3.78a14.72,14.72,0,0,0-13,7.59,15.29,15.29,0,0,0,0,15.26A14.83,14.83,0,0,0,111.1,49a14.41,14.41,0,0,0,7.42,2,15.18,15.18,0,0,0,7.57-2,14,14,0,0,0,5.51-5.45,15.51,15.51,0,0,0,1.93-7.73,15,15,0,0,0-4.33-11A14.3,14.3,0,0,0,118.56,20.48Z" transform="translate(-5 -2.06)"/><path class="cls-1" d="M147.41,16.69h5v5.54a17.16,17.16,0,0,1,4.71-4.88,9.46,9.46,0,0,1,5.16-1.59A8.93,8.93,0,0,1,166.61,17l-2.55,4.09a6.83,6.83,0,0,0-2.58-.67,7.07,7.07,0,0,0-4.71,2,12.74,12.74,0,0,0-3.46,6.22q-.91,3.23-.9,13.09V54.59h-5Z" transform="translate(-5 -2.06)"/><rect class="cls-2" x="165.19" width="4.85" height="52.53"/><path class="cls-1" d="M190.72,46.88a4.15,4.15,0,0,1,3,1.25,4.37,4.37,0,0,1,0,6.11,4.25,4.25,0,0,1-6.07,0,4.31,4.31,0,0,1,3-7.36Z" transform="translate(-5 -2.06)"/></svg>