<svg id="Layer_1" data-name="Layer 1" xmlns="http://www.w3.org/2000/svg" viewBox="0 0 55 55"><title>Pearl_Thank You Page</title><path d="M27.5,55A27.5,27.5,0,1,1,55,27.5,27.54,27.54,0,0,1,27.5,55Zm0-53A25.53,25.53,0,1,0,53,27.5,25.56,25.56,0,0,0,27.5,2Z" style="fill:#0f0f0f"/><path d="M27.5,26.36a5.95,5.95,0,1,1,6-5.95A6,6,0,0,1,27.5,26.36Zm0-9.92a4,4,0,1,0,4,4A4,4,0,0,0,27.5,16.44Z" style="fill:#0f0f0f"/><path d="M36.54,40.53H18.46l-.15-.79a15.8,15.8,0,0,1-.3-3c0-6.79,4.26-12.32,9.49-12.32S37,29.92,37,36.71a15.62,15.62,0,0,1-.3,3Zm-16.43-2H34.89A12.89,12.89,0,0,0,35,36.71C35,31,31.65,26.36,27.5,26.36S20,31,20,36.71A12.89,12.89,0,0,0,20.11,38.56Z" style="fill:#0f0f0f"/></svg>