<?xml version="1.0" standalone="no"?>
<!DOCTYPE svg PUBLIC "-//W3C//DTD SVG 1.1//EN" "http://www.w3.org/Graphics/SVG/1.1/DTD/svg11.dtd" >
<svg xmlns="http://www.w3.org/2000/svg" xmlns:xlink="http://www.w3.org/1999/xlink" version="1.1">
<metadata>
Created by FontForge 20200511 at Tue Dec 19 16:22:02 2023
 By convertio
</metadata>
<defs>
<font id="font-icons" horiz-adv-x="512" >
  <font-face 
    font-family="font-icons"
    font-weight="400"
    font-stretch="normal"
    units-per-em="512"
    panose-1="0 0 0 0 0 0 0 0 0 0"
    ascent="480"
    descent="-32"
    bbox="-3 -64 714 525"
    underline-thickness="0"
    underline-position="0"
    unicode-range="U+0001-E898"
  />
<missing-glyph horiz-adv-x="0" 
 />
    <glyph glyph-name=".notdef" horiz-adv-x="0" 
 />
    <glyph glyph-name="uni0000" horiz-adv-x="0" 
d="M0 0v0v0v0z" />
    <glyph glyph-name="uni0000" horiz-adv-x="0" 
d="M0 0v0v0v0z" />
    <glyph glyph-name="nonmarkingreturn" horiz-adv-x="170" 
 />
    <glyph glyph-name="uni0001" horiz-adv-x="0" 
d="M0 0v0v0v0z" />
    <glyph glyph-name="space" unicode=" " horiz-adv-x="256" 
d="M0 0v0v0v0z" />
    <glyph glyph-name="uniE600" unicode="&#xe600;" 
d="M427 411v43l-128 -1v-41l42 -1v-383l-42 -1v-42l128 -1v44l-43 -1v385zM299 361q0 2 -1 2t-2 1.5t-2 2t-2 1.5q-5 3 -9.5 6t-9.5 4.5t-10 4t-10 2.5q-6 2 -11.5 2t-12 1t-13.5 1t-14 1q-5 -1 -10.5 -1t-11 -1.5t-11 -2t-10.5 -3.5q-6 -1 -11 -3.5t-9.5 -4t-9 -4
t-8.5 -4.5l-8 -6t-8 -6.5t-7 -6.5t-6 -8q-3 -2 -5 -6.5t-3.5 -7.5t-2 -7.5t-0.5 -7.5q0 -5 0.5 -8t1.5 -7t2.5 -6.5t3.5 -6.5q2 -3 4.5 -5.5t5.5 -3.5t7 -2.5t8 -0.5q5 -1 9.5 0.5t8 2t7 3t6.5 3.5q2 4 4 6t3.5 5.5t2 5.5t0.5 6v5.5t-0.5 6t-1 6.5t-1.5 6l-1.5 7.5t-1 5.5
t-0.5 4.5v4.5q1 0 3 2t4.5 3t5.5 3t6 2q3 2 7 2.5t7.5 2t7.5 1t8 0.5q5 -1 10.5 -1t10 -1.5t8 -3t6.5 -4.5q4 -2 6.5 -5t5 -5t4.5 -5.5t4 -5.5q2 -4 2.5 -8t0.5 -8.5v-6.5v-3v-50q0 -3 -5 -5.5t-13.5 -6t-19.5 -6.5t-23 -8q-12 -3 -21.5 -7t-17 -6t-13 -4.5t-9.5 -3.5
q-3 -2 -6 -3t-6.5 -3t-6.5 -3.5t-7 -4.5q-3 -1 -6.5 -3.5t-6 -4.5t-5 -5t-4.5 -4q-3 -4 -5.5 -7t-4.5 -7l-3.5 -7t-3.5 -8q-1 -3 -2 -8t-1.5 -8.5t-1 -9t-0.5 -9.5q0 -10 1.5 -18t4.5 -16.5t8 -14.5t11 -13q6 -5 13 -10t15 -7.5t16.5 -4.5t18.5 -1q9 -1 17.5 1t16 4.5t15 6
t13.5 5.5q6 5 12.5 8.5t12.5 9.5l12 12t11 15l2 -1q1 -7 3 -14t4.5 -11.5t6 -9t7.5 -6.5l14 -2v314v-1zM262 107q-4 -3 -7.5 -7.5t-7.5 -7.5t-8 -6.5t-9 -5.5q-5 -4 -10 -6l-10 -4t-11 -2t-12 -1q-6 1 -11 1.5t-10 2.5t-9.5 4t-7.5 6q-4 3 -7 8t-4.5 9.5t-2.5 11.5t-1 13
t0.5 11t1.5 10t3 9t5 9l5 7.5t6.5 7.5t7.5 6.5t8 5.5q5 4 10 6.5t10 5.5t10.5 5t10.5 5q6 1 11.5 3.5t11.5 4t12.5 4t14.5 3.5v-118v-1z" />
    <glyph glyph-name="uniE601" unicode="&#xe601;" 
d="M21 405v-149h22v-235h426v235h22v149h-470v0zM427 64h-342v192h342v-192v0zM448 299h-384v64h384v-64v0zM384 235h-256v-150h256v150v0zM363 107h-214v106h214v-106v0zM341 192h-170v-21h170v21v0zM277 149h-106v-21h106v21v0z" />
    <glyph glyph-name="uniE602" unicode="&#xe602;" 
d="M448 235v149h-64v64h-341v-213h-22v-43h22v-235h426v235h22v43h-43v0zM405 341v-106h-256v106h256v0zM85 405h256v-21h-234v-149h-22v170v0zM427 0h-342v192h342v-192v0zM384 171h-256v-150h256v150v0zM363 43h-214v106h214v-106v0zM341 128h-170v-21h170v21v0zM277 85
h-106v-21h106v21v0z" />
    <glyph glyph-name="uniE603" unicode="&#xe603;" 
d="M21 341v-277h448v277h-448v0zM64 107v167l332 -167h-332v0zM427 129l-136 73l136 72v-145v0zM258 226l-143 73h281l-138 -73v0z" />
    <glyph glyph-name="uniE604" unicode="&#xe604;" 
d="M277 341h-128v-42h128v42v0zM341 277h-192v-21h192v21v0zM341 235h-192v-22h192v22v0zM427 213v235h-363v-235l-43 22v-278h448v277l-42 -21v0zM107 405h277v-211l-43 -23v21h-192v-21h192l-96 -52l-138 72v214v0zM64 0v168l313 -168h-313v0zM427 22l-136 73l136 73v-146
v0z" />
    <glyph glyph-name="uniE605" unicode="&#xe605;" 
d="M107 469v-64h-64v-448h362v64h64v448h-362v0zM363 0h-278v363h22v-342h256v-21v0zM427 64h-278v363h278v-363v0zM320 363h-128v-43h128v43v0zM384 299h-192v-22h192v22v0zM384 256h-192v-21h192v21v0zM384 213h-192v-21h192v21v0zM256 171h-64v-22h64v22v0z" />
    <glyph glyph-name="uniE606" unicode="&#xe606;" 
d="M462 213h-35v214h-363v-214h-29q-9 0 -15.5 -3t-11 -9t-6.5 -14t-2 -16v-43q0 -9 2 -16.5t6.5 -13.5t11 -9.5t15.5 -3.5h29v-106h128v106h43v-106h170v106h57q9 0 17.5 3.5t16 9.5t12 13.5t4.5 16.5v43q0 8 -4.5 16t-12 14t-16 9t-17.5 3v0zM149 21h-42v64h42v-64v0z
M299 21h-22v64h22v-64v0zM363 21h-22v64h22v-64v0zM384 213h-277v171h277v-171v0zM432 115q-6 0 -12 3t-10.5 7t-7 10t-2.5 13t2.5 13t7 10t10.5 7t12 3q7 0 13 -3t10.5 -7t7 -10t2.5 -13t-2.5 -13t-7 -10t-10.5 -7t-13 -3v0zM149 320h128v-43h-128v43zM149 256h192v-21
h-192v21zM21 363h22v-107h-22v107zM448 320h21v-64h-21v64z" />
    <glyph glyph-name="uniE607" unicode="&#xe607;" 
d="M299 405v21q0 9 -3.5 16.5t-9.5 14t-13.5 9t-16.5 3.5l-85 -1q-9 1 -17 -2.5t-13.5 -9t-9 -14t-3.5 -15.5v-23l-85 1v-65l-22 1v-150l43 1v106l384 1v-257l-235 1v-44l278 1v404l-192 1v0zM448 340l-363 1v21l86 1v63l85 1v-65l192 1v-23v0zM128 171l-64 -1v-63l-64 -1
v-63l64 -1v-63l64 -1v65l64 -1v65l-64 -1v65z" />
    <glyph glyph-name="uniE608" unicode="&#xe608;" 
d="M299 384v21q0 9 -3.5 17t-9.5 13.5t-13.5 9t-16.5 3.5h-85q-9 0 -17 -3.5t-13.5 -9t-9 -13.5t-3.5 -17v-21h-85v-64h-22v-149h43v106h384v-256h-235v-42h278v405h-192v0zM448 320h-363v21h86v64h85v-64h192v-21v0zM159 53q0 1 0.5 2.5t0.5 3v3v2.5v2.5t-0.5 3t-0.5 3v2.5
l33 20l-19 29l-31 -20q-2 1 -4.5 2.5t-4.5 2.5t-3.5 1.5t-1.5 1.5v37h-43v-37q0 -1 -1.5 -1.5t-3.5 -1.5t-4.5 -2.5t-3.5 -2.5l-31 20l-19 -29l33 -20q-1 -1 -1 -2.5v-3t-0.5 -3t-0.5 -2.5v-2.5t0.5 -3t0.5 -3v-2.5l-33 -20l19 -29l32 20q1 -1 3.5 -2.5t4.5 -2.5t3.5 -1.5
t1.5 -1.5v-37h43v37q0 1 1.5 1.5t3.5 1.5t4.5 2.5t4.5 2.5l32 -20l18 29l-33 20v0zM107 30q-8 0 -14.5 2.5t-11 7.5t-7.5 11t-3 13t3 13t7.5 11t11 7.5t14.5 2.5q7 0 13.5 -2.5t11.5 -7.5t7.5 -11t2.5 -13t-2.5 -13t-7.5 -11t-11.5 -7.5t-13.5 -2.5v0z" />
    <glyph glyph-name="uniE609" unicode="&#xe609;" 
d="M299 384v21q0 9 -3.5 17t-9.5 13.5t-13.5 9t-16.5 3.5h-85q-9 0 -17 -3.5t-13.5 -9t-9 -13.5t-3.5 -17v-21h-85v-64h-22v-149h43v106h384v-256h-235v-42h278v405h-192v0zM448 320h-363v21h86v64h85v-64h192v-21v0zM85 53l-15 40l-32 -39l52 -70l86 140l-32 18z" />
    <glyph glyph-name="uniE60A" unicode="&#xe60a;" 
d="M256 279q-16 0 -30.5 -3t-28 -9t-26 -14t-22.5 -18l30 -30q8 7 16.5 13t18 10t20.5 6t22 2t22 -2t20.5 -6t18 -10t16.5 -13l30 30q-10 10 -22.5 18t-26 14t-28 9t-30.5 3v0zM256 190q-7 0 -12.5 -2.5t-10 -6.5t-7 -10t-2.5 -13q0 -6 2.5 -12t7 -10.5t10 -7t12.5 -2.5
t12.5 2.5t10 7t7 10.5t2.5 12q0 7 -2.5 13t-7 10t-10 6.5t-12.5 2.5v0z" />
    <glyph glyph-name="uniE60B" unicode="&#xe60b;" 
d="M149 194l30 -30q8 7 16.5 13t18 10t20.5 6t22 2t22 -2t20.5 -6t18 -10t16.5 -13l30 30q-10 10 -22.5 18t-26 14t-28 9t-30.5 3t-30.5 -3t-28 -9t-26 -14t-22.5 -18v0zM256 335q-26 0 -50 -5t-46.5 -14.5t-42.5 -23t-37 -29.5l30 -31q14 14 30.5 25.5t35 19t39 12
t41.5 4.5t41.5 -4.5t39 -12t35 -19t30.5 -25.5l30 31q-17 16 -37 29.5t-42.5 23t-46.5 14.5t-50 5v0zM256 149q-7 0 -12.5 -2.5t-10 -6.5t-7 -10t-2.5 -13q0 -6 2.5 -12t7 -10.5t10 -7t12.5 -2.5t12.5 2.5t10 7t7 10.5t2.5 12q0 7 -2.5 13t-7 10t-10 6.5t-12.5 2.5v0z" />
    <glyph glyph-name="uniE60C" unicode="&#xe60c;" 
d="M149 130l30 -30q8 7 16.5 13t18 10t20.5 6t22 2t22 -2t20.5 -6t18 -10t16.5 -13l30 30q-10 10 -22.5 18t-26 14t-28 9t-30.5 3t-30.5 -3t-28 -9t-26 -14t-22.5 -18v0zM80 199l30 -31q14 14 30.5 25.5t35 19t39 12t41.5 4.5t41.5 -4.5t39 -12t35 -19t30.5 -25.5l30 31
q-17 16 -37 29.5t-42.5 23t-46.5 14.5t-50 5t-50 -5t-46.5 -14.5t-42.5 -23t-37 -29.5v0zM256 369q-36 0 -70 -7t-65 -20.5t-58.5 -32t-51.5 -42.5l31 -30q20 21 44.5 37.5t51.5 28t57 17.5t61 6t61 -6t57 -17.5t51.5 -28t44.5 -37.5l31 30q-24 24 -51.5 42.5t-58.5 32
t-65 20.5t-70 7v0zM256 85q-7 0 -12.5 -2.5t-10 -6.5t-7 -10t-2.5 -13q0 -6 2.5 -12t7 -10.5t10 -7t12.5 -2.5t12.5 2.5t10 7t7 10.5t2.5 12q0 7 -2.5 13t-7 10t-10 6.5t-12.5 2.5v0z" />
    <glyph glyph-name="uniE60D" unicode="&#xe60d;" 
d="M299 427v-85l-86 -1v-84l-85 -1v-84l-85 -1v-170l405 -1v428l-149 -1v0zM149 44l-64 -1v86l64 -1v-84v0zM235 43l-64 1v169l64 1v-171v0zM320 44l-64 -1v257l64 -1v-255v0zM405 43l-64 1v340l64 1v-342v0z" />
    <glyph glyph-name="uniE60E" unicode="&#xe60e;" 
d="M444 299q-3 9 -9 17t-14 13.5t-17.5 8.5t-19.5 3h-320q-13 0 -24.5 -5t-20.5 -13.5t-14 -20t-5 -25.5v-149q0 -13 5 -25t14 -20.5t20.5 -13.5t24.5 -5h320q10 0 19.5 3t17.5 9t14 13.5t9 17.5h46v192h-46v0zM405 128q0 -4 -1.5 -8t-4.5 -7t-7 -4.5t-8 -1.5h-320
q-4 0 -8 1.5t-7 4.5t-4.5 7t-1.5 8v149q0 5 1.5 9t4.5 6.5t7 4.5t8 2h320q4 0 8 -2t7 -4.5t4.5 -6.5t1.5 -9v-149v0zM448 149h-22v107h22v-107v0zM149 277h64v-149h-64v149zM235 277h64v-149h-64v149zM352 277h-32v-149h32q7 0 12.5 3.5t10 9t7 13.5t2.5 17v64q0 8 -2.5 16
t-7 14t-10 9t-12.5 3v0zM64 235v-64q0 -9 2.5 -17t7 -13.5t10.5 -9t12 -3.5h32v149h-32q-6 0 -12 -3t-10.5 -9t-7 -14t-2.5 -16v0z" />
    <glyph glyph-name="uniE60F" unicode="&#xe60f;" 
d="M213 288q16 0 31 -5.5t25.5 -16t18.5 -24t9 -29.5h76q-2 4 -1.5 8t-1 7.5t-1.5 7t-2 7.5l62 35l-44 74l-60 -35q-8 7 -15.5 13t-16.5 11t-18 9t-20 7l1 70h-86l1 -70q-11 -3 -20 -7t-18.5 -9t-17 -11t-15.5 -13l-59 35l-44 -74l62 -35q-3 -5 -3.5 -10t-1.5 -10t-1 -10
t-1 -10q1 -5 1 -10.5t1 -10.5t1.5 -10t3.5 -9l-62 -35l44 -74l59 35q8 -7 15.5 -13.5t17 -11.5t18.5 -9t20 -6l-1 -70h86l-1 150q-4 -3 -9.5 -5t-10.5 -3.5t-11 -2.5t-11 -1q-18 0 -33 7t-27.5 18.5t-18.5 27t-7 33.5q1 17 7 32.5t18.5 27.5t27.5 18.5t33 6.5v0zM490 85
q1 3 0 6t-1 6t-1 5.5t-1 5.5l39 23l-21 37l-40 -23q-3 4 -8 7.5t-9.5 6.5t-10.5 5t-10 4l-1 45h-42l-1 -45q-5 -2 -11 -4t-10 -5t-9.5 -6.5t-8.5 -7.5l-40 23l-20 -37l38 -23q1 -3 -0.5 -5.5t-1.5 -5.5t-0.5 -6t0.5 -6q-1 -3 -0.5 -5.5t0.5 -5.5t1.5 -6t0.5 -5l-38 -23
l20 -37l40 23q3 -5 8.5 -8t9.5 -6t10 -5.5t11 -3.5l1 -46h42l1 46q4 1 10 3.5t10.5 5.5t9.5 6.5t8 7.5l41 -23l20 37l-39 23q0 2 1 5t1 6t1 5.5t0 5.5v0zM405 43q-10 0 -17 3t-13.5 9t-9 14t-3.5 16q1 9 3.5 17t9 13.5t13.5 9t17 3.5q8 0 16.5 -3.5t13.5 -9t9 -13.5t3 -17
q1 -8 -3 -16t-9 -14t-13.5 -9t-16.5 -3v0z" />
    <glyph glyph-name="uniE610" unicode="&#xe610;" 
d="M384 256h-192v96l-139 -139l139 -138v96h193q9 0 16.5 3t13 9t9 13.5t3.5 16.5t-3.5 17t-9.5 13.5t-13.5 9t-16.5 3.5v0z" />
    <glyph glyph-name="uniE611" unicode="&#xe611;" 
d="M299 64v192h96l-139 139l-139 -139h96v-193q0 -9 3.5 -16.5t9.5 -13t13.5 -9t16.5 -3.5t16.5 3.5t13.5 9.5t9.5 13.5t3.5 16.5v0z" />
    <glyph glyph-name="uniE612" unicode="&#xe612;" 
d="M213 341v-192h-96l139 -138l139 138h-96v193q0 9 -3.5 16.5t-9.5 13t-13.5 9t-16.5 3.5t-16.5 -3.5t-13.5 -9.5t-9.5 -13.5t-3.5 -16.5v0z" />
    <glyph glyph-name="uniE613" unicode="&#xe613;" 
d="M107 171h192v-96l138 138l-138 139v-96h-193q-9 0 -16.5 -3.5t-13 -9t-9 -13.5t-3.5 -17t3.5 -16.5t9.5 -13.5t13.5 -9t16.5 -3v0z" />
    <glyph glyph-name="uniE614" unicode="&#xe614;" 
d="M295 404q-36 0 -68 -12t-57 -33.5t-41.5 -50.5t-20.5 -65l-81 16l80 -118l118 80l-75 14q4 23 17 45.5t32.5 40.5t44.5 29t52 11q31 0 57.5 -12t46 -32.5t31 -47.5t11.5 -57q0 -31 -13.5 -57.5t-34.5 -46t-46.5 -31t-49.5 -11.5v-43q40 0 74.5 15t59.5 41t39 60.5
t14 73.5t-15 74t-41 60.5t-60.5 41t-73.5 15.5v0z" />
    <glyph glyph-name="uniE615" unicode="&#xe615;" 
d="M320 235v235l-107 -1v-233l-84 -1l136 -135l135 135h-80zM430 321l-67 -1v-42l67 -1q4 1 7.5 0.5t6 -1t3.5 -3.5t1 -7v-161q0 -5 -2 -13t-5.5 -13.5t-9 -10t-12.5 -3.5l-326 -1q-7 1 -12.5 4.5t-9 10t-5.5 13.5t-2 14v159q0 6 1 8t3.5 3.5t6 1t7.5 0.5l67 -1v44l-67 -1
q-13 1 -24.5 -3t-19.5 -10.5t-12.5 -17.5t-4.5 -23v-235q0 -13 4.5 -26.5t12.5 -23.5t19.5 -17t24.5 -6l348 -1q13 1 24.5 7t19.5 17t12.5 23.5t4.5 27.5v233q0 14 -4.5 24t-12.5 17.5t-19.5 10.5t-24.5 4v0zM448 31q0 -4 -1 -9.5t-3.5 -10t-6 -8t-7.5 -2.5l-348 -1
q-4 1 -7.5 3.5t-6 8t-3.5 10t-1 10.5v31q0 -2 3 -6t7 -6.5t9 -5t10 -1.5l326 -1q5 1 10 2.5t9 5t7 6.5t3 7v-33v0z" />
    <glyph glyph-name="uniE616" unicode="&#xe616;" 
d="M469 281l-60 188l-196 -60l-170 -315l251 -136l170 314h1v0v0.5v0.5l4 8v0v0zM378 292q-6 -11 -15 -18.5t-19.5 -10.5t-22.5 -2t-22 7q-11 6 -18.5 15t-10.5 19.5t-2 22.5t7 22q6 11 15 18.5t20 10.5t22.5 2t22.5 -7q10 -6 17.5 -15t10.5 -20t2 -22.5t-7 -21.5v0z" />
    <glyph glyph-name="uniE617" unicode="&#xe617;" 
d="M320 384v64h-128v-64h-85v-43h298v43h-85v0zM278 384h-43v21h43v-21v0zM107 320v-320l42 -43h214l42 43v320h-298v0zM171 0h-22v235h22v-235v0zM213 0h-21v235h21v-235v0zM256 0h-21v235h21v-235v0zM363 0h-86v235h86v-235v0zM363 256h-214v21h214v-21v0z" />
    <glyph glyph-name="uniE618" unicode="&#xe618;" 
d="M17 18l30 -30l94 93l-30 31l-94 -94v0zM301 448q-39 0 -73.5 -15t-60 -40.5t-40.5 -60t-15 -73.5q0 -16 2.5 -30.5t7 -28.5t11 -26.5t14.5 -24.5l36 -38q12 -9 25.5 -17t28.5 -13.5t31 -8.5t33 -3q40 0 74.5 15t60 40.5t40.5 60t15 74.5q0 39 -15 73.5t-40.5 60t-60 40.5
t-74.5 15v0zM301 112q-30 0 -56.5 11.5t-46.5 31.5t-31.5 46.5t-11.5 57.5q0 30 11.5 56.5t31.5 46.5t46.5 31.5t56.5 11.5q31 0 57.5 -11.5t46.5 -31.5t31.5 -46.5t11.5 -56.5q0 -31 -11.5 -57.5t-31.5 -46.5t-46.5 -31.5t-57.5 -11.5v0z" />
    <glyph glyph-name="uniE619" unicode="&#xe619;" 
d="M17 18l30 -30l94 93l-30 31l-94 -94v0zM301 448q-39 0 -73.5 -15t-60 -40.5t-40.5 -60t-15 -73.5q0 -16 2.5 -30.5t7 -28.5t11 -26.5t14.5 -24.5l36 -38q12 -9 25.5 -17t28.5 -13.5t31 -8.5t33 -3q40 0 74.5 15t60 40.5t40.5 60t15 74.5q0 39 -15 73.5t-40.5 60t-60 40.5
t-74.5 15v0zM301 112q-30 0 -56.5 11.5t-46.5 31.5t-31.5 46.5t-11.5 57.5q0 30 11.5 56.5t31.5 46.5t46.5 31.5t56.5 11.5q31 0 57.5 -11.5t46.5 -31.5t31.5 -46.5t11.5 -56.5q0 -31 -11.5 -57.5t-31.5 -46.5t-46.5 -31.5t-57.5 -11.5v0zM320 320h-42v-43h-43v-42h43v-43
h42v43h43v42h-43v43v0z" />
    <glyph glyph-name="uniE61A" unicode="&#xe61a;" 
d="M17 18l30 -30l94 93l-30 31l-94 -94v0zM301 448q-39 0 -73.5 -15t-60 -40.5t-40.5 -60t-15 -73.5q0 -16 2.5 -30.5t7 -28.5t11 -26.5t14.5 -24.5l36 -38q12 -9 25.5 -17t28.5 -13.5t31 -8.5t33 -3q40 0 74.5 15t60 40.5t40.5 60t15 74.5q0 39 -15 73.5t-40.5 60t-60 40.5
t-74.5 15v0zM301 112q-30 0 -56.5 11.5t-46.5 31.5t-31.5 46.5t-11.5 57.5q0 30 11.5 56.5t31.5 46.5t46.5 31.5t56.5 11.5q31 0 57.5 -11.5t46.5 -31.5t31.5 -46.5t11.5 -56.5q0 -31 -11.5 -57.5t-31.5 -46.5t-46.5 -31.5t-57.5 -11.5v0zM235 277h128v-42h-128v42z" />
    <glyph glyph-name="uniE61B" unicode="&#xe61b;" 
d="M427 448h-363q-13 0 -25 -5t-20.5 -13.5t-13.5 -20.5t-5 -25v-256q0 -13 7 -21.5t17 -13t21 -6.5t19 -2v-128l192 128h171q13 0 24.5 5t20.5 14t14 20.5t5 24.5v235q0 13 -5 25t-14 20.5t-20.5 13.5t-24.5 5v0zM448 149q0 -4 -1.5 -8t-4.5 -7t-7 -4.5t-8 -1.5h-192
l-128 -107v107h-43q-4 0 -8 1.5t-7 4.5t-4.5 7t-1.5 8v235q0 4 1.5 8t4.5 7t7 4.5t8 1.5h363q4 0 8 -1.5t7 -4.5t4.5 -7t1.5 -8v-235v0z" />
    <glyph glyph-name="uniE61C" unicode="&#xe61c;" 
d="M256 469q-53 0 -99.5 -20t-81.5 -54.5t-55 -81.5t-20 -100t20 -99.5t55 -81t81.5 -55t99.5 -20.5t99.5 20.5t81.5 55t55 81t20 99.5t-20 100t-55 81.5t-81.5 54.5t-99.5 20v0zM256 0q-44 0 -83 17t-68 46t-45.5 67.5t-16.5 82.5t16.5 83t45.5 68t68 46t83 17t83 -17
t68 -46t45.5 -68t16.5 -83t-16.5 -82.5t-45.5 -67.5t-68 -46t-83 -17v0zM351 360q-4 2 -8.5 2.5t-8 -1t-7 -4t-5.5 -6.5l-72 -144l-43 43q-3 3 -7 4.5t-8 1.5t-8 -1.5t-7 -4.5t-4.5 -7t-1.5 -8t1.5 -8t4.5 -7l64 -64q1 -2 3 -3l4 -2t4 -1.5t4 -0.5h0.5h1t1 0.5l0.5 0.5
q3 0 5.5 1t4.5 2.5t3.5 3.5t2.5 4l85 171q2 4 2.5 8t-1 8t-4 7t-6.5 5v0zM235 64h42v-21h-42v21zM235 405h42v-21h-42v21zM64 235h43v-22h-43v22zM405 235h43v-22h-43v22z" />
    <glyph glyph-name="uniE61D" unicode="&#xe61d;" 
d="M469 277h-43l1 171h-343l1 -171h-43q-8 0 -16.5 -3t-13.5 -9t-9 -14t-3 -16l-1 -214q1 -8 3 -16t7 -14t10 -9t13 -3h52l1 -22h341l1 22h52q8 0 13 3t10 9t7 14t3 16l-1 214q1 8 -3 16t-9 14t-13.5 9t-16.5 3v0zM84 0h-20l-1 107h22l-1 -107v0zM384 0h-257l1 107h42l1 -22
h169l1 22h42l1 -107v0zM383 277h-255l-1 128h257l-1 -128v0zM448 0h-22l1 107h20l1 -107v0zM468 213h-41l-1 22h43l-1 -22v0zM171 43h169l1 21h-171l1 -21v0z" />
    <glyph glyph-name="uniE61E" unicode="&#xe61e;" 
d="M448 306v142h-107v-63l-85 63l-256 -192h64v-277h384v277h64l-64 50v0zM256 21h-85v171h85v-171v0zM405 21h-128v192h-128v-192h-42v256l149 107l149 -107v-256v0zM405 360l-21 14v31h21v-45v0zM384 171h-85v-86h85v86v0zM363 107h-43v42h43v-42v0zM235 107h-22v-22h22
v22v0z" />
    <glyph glyph-name="uniE61F" unicode="&#xe61f;" 
d="M405 427v-9q-8 2 -15 4t-14 3l-14 2t-14 1q-14 0 -28.5 -2t-28.5 -5.5t-28 -7.5t-27 -9q-13 -4 -25.5 -8t-25 -7t-24.5 -4.5t-24 -1.5q-9 0 -17 1t-16 3.5t-15.5 6t-14.5 8.5l-31 21v-328l7 -6q11 -7 21 -12t21 -8t22 -4.5t24 -1.5q14 0 28 2t28 5.5t27.5 7.5t26.5 8
l26 8t25.5 7t24.5 5t24 2q8 0 14.5 -1t13.5 -2.5t14 -4.5t15 -6v-138h43v471h-43v0zM405 141q-8 2 -15 4t-14 3t-14 1.5t-14 0.5q-14 0 -28.5 -2t-28.5 -5t-28 -7.5t-27 -8.5t-25.5 -8t-24.5 -7t-23.5 -4.5t-23.5 -1.5q-7 0 -13.5 0.5t-12.5 2t-13 4t-15 6.5v231
q8 -3 14.5 -4.5l13 -3t12.5 -2t14 -0.5q14 0 28 2t27.5 5.5t27 7.5t27.5 9q13 4 25.5 8t25 6.5t25 4.5t23.5 2q8 0 15 -1t13.5 -2.5t13.5 -4t15 -5.5v-231v0z" />
    <glyph glyph-name="uniE620" unicode="&#xe620;" 
d="M256 469q-53 0 -99.5 -20t-81.5 -54.5t-55 -81.5t-20 -100t20 -99.5t55 -81t81.5 -55t99.5 -20.5t99.5 20.5t81.5 55t55 81t20 99.5t-20 100t-55 81.5t-81.5 54.5t-99.5 20v0zM256 0q-44 0 -83 17t-68 46t-45.5 67.5t-16.5 82.5t16.5 83t45.5 68t68 46t83 17t83 -17
t68 -46t45.5 -68t16.5 -83t-16.5 -82.5t-45.5 -67.5t-68 -46t-83 -17v0zM152 348v0v0v0v0v0v0v0v0v0h-0.5h-0.5v0v0v0v0v0v0v0v0v0v0v0v0v0v0v0v0v0v0v0v0v0v0v0v0v0v0v0v0v0v0v0v0v0v0v0v0v0v0v0v0v0v0v0v0v0v0v0v0v0v0v0v-0.5t-0.5 -0.5h-0.5v0v0v0v0v0v0v0v0v0v0v0v0v0v0
v0v0v0v0v0v0v0v0v0v0v0v0v0v0v0v0v0v0v0h-0.5h-0.5v0q0 -1 -1 -1.5t-2 -1.5t-2 -1.5t-1 -1.5h-0.5h-0.5v0v0v0v0v0v-0.5v-0.5v0v0v0v0v0v0v0v0v0v0v0v0v0v0v0v0v0v0v0v0v0v0v0v0v0v0v0h-1v0v0v0v0v0v0v0v0v0v0v0v0v0v0v0v0v0v0v0v0v-1v0v0v0v0v0v0v0v0v0v0v0v0v0v0v0v0v0v0
v0v0v0v0v0v0v0v0v0v0v0v0v0v0v0h-0.5h-0.5v0v0v0v0v0v0v0v0v0v0v0v0v0v0v0v0v0v0v0v0v0v0v0v-1v0v0v0v0v0v0v0v0v0v0v0v0v0l14 -15q2 1 3.5 2.5t3.5 3l4 3t4 2.5l-13 18q0 -1 -1 -1t-1.5 -0.5l-1 -1t-0.5 -1.5v0zM114 260l-20 7q0 -1 -0.5 -2.5l-1 -3l-1 -3t-0.5 -3.5v0v0
h-0.5h-0.5v0v0v0v0v0v-1v0v0v0v0v0v0v0v0v0v0v0v0v0v0v0v0v0v0v-1v0v0v0v0v0v0v0v0v0v0v0v0v0v0v0v0v0v0v0v0v-1v0v0v0v0v0v0v0v0v0v0v0v0v0v0v0v0v0v0v0v0v0v0v0v0v0v-0.5v-0.5v0v0v0v0v0h-1v0v0v0v0v0v0v0v0v-0.5v-0.5v0v0v0v0v0v0v0v0v0v0v0v0v0v0v0v0v0v0v-0.5v-0.5v0v0
v0v0v0v0v0v0v0v-1v-0.5v-0.5v0l20 -5q1 3 1.5 5t1 4.5t1.5 4.5t1 4v0zM256 363h1.5h1h1h1.5l1 21h-1.5h-1h-1h-1.5v0v0v0v0v0v0v0v0v0v0v0v0v0v0v0h-1v0v0v0v0v0v0v0v0v0v0v0v0v0v0v0v0v0v0v0v0h-0.5h-0.5v0v0v0v0v0v0v0v0v0v0v0h-1v0v0v0v0v0v0v0v0v0h-1v0v0v0v0v0v0v0v0v0
v0v0v0v0v0v0v0v0v0v0v0v0v0v0v0v0v0v0h-1v0v0v0v0v0v0h-0.5h-0.5v0v0v0v0v0h-1h-3.5t-3.5 -0.5t-3.5 -0.5h-3.5v0v0v0v0v0h-0.5h-0.5v0v0v0v0v0v0v0v0v0v0v0v0v0v0v0v0v0v0v0v0v0v0l2 -21h5t4.5 0.5t5 0.5h4.5v0zM93 162v0v0v0v0v0v0v0v0v0v0q1 -3 2 -5.5l2 -5t2 -4.5t2 -5
l19 9q-1 2 -2 4.5t-1.5 4.5t-1.5 4t-2 5l-20 -7v0zM420 262q-1 2 -1.5 4t-1.5 4t-1.5 4.5t-1.5 4.5v0v0v0v0v0v0v0v0v0v0v0v0v0v0v0v0h-1v0v0v0v0v0v0v0v0v0v0v0v0.5v0.5v0v0v0v0v0v0v0v0v0v0v0v0v0v0v0v0v0v0v0v0v0v0v0v0v0v0v0v0v0v0v0v0v0v0v0v0v0v0v0v0v0v0.5v0.5v0v0v0
v0v0v0v0v0v0v0v0v0v0v0v0v0l-0.5 0.5l-0.5 0.5v0v0l-19 -9l2 -4t1.5 -4.5t1.5 -4.5t1 -4l21 6v0zM402 182q0 -3 -1 -5t-1.5 -4.5t-1 -4.5t-1.5 -4l20 -7l0.5 0.5t0.5 1v1v1.5l1 1q0 2 1 4t1.5 4t0.5 3.5t1 3.5l-21 5v0zM356 351v0v0v0v0v0v0v0.5v0.5v0v0v0v0v0v0v0v0v0v0v0
v0v0v0v0v0v0v0v0v0v0v0v0v0v0v0v0v0v0v0v0v0v0v0v0v0v0h-0.5h-0.5v0v0v0v0v0v0v0v0v0v0v0v0q-1 1 -2.5 2l-3 2t-3.5 2t-3 2l-11 -18q2 -1 4 -2.5t4 -2.5t4 -2.5t3 -3.5l13 17q0 1 -0.5 1t-1 0.5l-1 1l-0.5 0.5v0h-0.5h-0.5v0v0zM217 293l-5 -20t-10 -47t-8 -54t0 -40
q4 -12 12 -22t18.5 -16t23 -8t25.5 2q13 3 23 11t16 18.5t7.5 23t-1.5 25.5q-4 13 -20 34.5t-34 42t-32.5 35.5l-14.5 15v0zM267 108q-8 -2 -16.5 -1t-15.5 5t-12.5 11t-7.5 15q-2 9 -1 17t5 15.5t10.5 12.5t15.5 7q8 3 16.5 1.5t15.5 -5.5t12.5 -10.5t7.5 -14.5
q2 -9 1 -17.5t-5 -15.5t-10.5 -12t-15.5 -8v0z" />
    <glyph glyph-name="uniE621" unicode="&#xe621;" 
d="M245 171q7 0 13 3t10 9t6.5 14t2.5 16v171q0 9 -2.5 16.5t-6.5 13.5t-10 9.5t-13 3.5q-6 0 -12 -3.5t-10.5 -9.5t-7 -13.5t-2.5 -16.5v-171q0 -8 2.5 -16t7 -14t10.5 -9t12 -3v0zM320 369v-46q19 -11 34.5 -25.5t27 -32.5t17.5 -39.5t6 -44.5q0 -33 -12.5 -62t-34 -50.5
t-51 -34.5t-62.5 -13t-62 13t-50.5 34.5t-34.5 50.5t-13 62q0 23 6.5 44.5t17.5 39.5t27 32.5t35 25.5v46q-28 -11 -51.5 -29.5t-40.5 -43t-26.5 -54t-9.5 -61.5q0 -42 16 -78.5t43.5 -64t64 -43.5t78.5 -16t79 16t64.5 43.5t43.5 64t16 78.5q0 32 -9.5 61.5t-26.5 54
t-40.5 43t-51.5 29.5v0z" />
    <glyph glyph-name="uniE622" unicode="&#xe622;" 
d="M245 405q-42 0 -78.5 -16t-64 -43.5t-43.5 -64t-16 -78.5t16 -79t43.5 -64.5t64 -43.5t78.5 -16t79 16t64.5 43.5t43.5 64.5t16 79t-16 78.5t-43.5 64t-64.5 43.5t-79 16v0zM85 203q0 33 13 62t34.5 50.5t50.5 34.5t62 13q13 0 24.5 -2t22.5 -5.5t21.5 -8.5t19.5 -11
l-221 -221q-6 9 -11 19.5t-8.5 21.5t-5.5 22.5t-2 24.5v0zM245 43q-12 0 -23.5 1.5t-23 5t-21.5 8.5t-20 11l222 222q6 -10 11 -20t8.5 -21.5t5 -23t1.5 -23.5q0 -33 -12.5 -62.5t-34 -51t-51 -34t-62.5 -12.5v0z" />
    <glyph glyph-name="uniE623" unicode="&#xe623;" 
d="M43 363h171l-1 -43h44l-1 43q1 8 -3 16t-9 14t-13.5 9t-16.5 3h-171q-8 0 -16.5 -3t-13.5 -9t-9 -14t-3 -16l-1 -299q1 -9 3.5 -16.5t8 -13.5t12.5 -9.5t17 -3.5h23l1 86h-22l1 256h-1zM448 277h-298q-9 0 -16.5 -3t-14 -9t-9 -14t-3.5 -16l1 -171q-1 -9 2.5 -16.5
t9 -13.5t14 -9.5t15.5 -3.5h300q8 0 16 3.5t13.5 9.5t9.5 13.5t3 16.5l1 171q-1 8 -4 16t-9.5 14t-13.5 9t-17 3v0zM172 128h-44l1 43h42l1 -43v0zM448 64h-255l-1 171h257l-1 -171v0z" />
    <glyph glyph-name="uniE624" unicode="&#xe624;" 
d="M405 448h-299q-8 0 -16.5 -3.5t-13.5 -9t-9 -13.5t-3 -17l-1 -384q1 -8 4 -16t9 -14t13.5 -9t17.5 -3h297q10 0 17.5 3t13.5 9t9 14t4 16l-1 384q1 9 -3 17t-9 13.5t-13.5 9t-16.5 3.5v0zM276 0h-41l-1 43h43l-1 -43v0zM405 64h-299l1 341h297l1 -341v0z" />
    <glyph glyph-name="uniE625" unicode="&#xe625;" 
d="M491 64v299q0 8 -3.5 16t-9.5 14t-13.5 9t-16.5 3h-384q-9 0 -16.5 -3t-13.5 -9t-9.5 -14t-3.5 -16v-299q0 -9 3.5 -16.5t9.5 -13.5t13.5 -9.5t16.5 -3.5h384q9 0 16.5 3.5t13.5 9.5t9.5 13.5t3.5 16.5v0zM43 192v43h42v-43h-42v0zM107 64v299h341v-299h-341v0z" />
    <glyph glyph-name="uniE626" unicode="&#xe626;" 
d="M64 341h384v-213h43v256h-470v-256h43v213v0zM341 107q-1 -4 -5.5 -6.5t-10.5 -5t-12.5 -4.5t-13.5 -3v-3h-86v3q-7 1 -13.5 3t-12.5 4.5t-10.5 5t-5.5 6.5h-171v-22q0 -8 10 -16t22 -14t22 -9l10 -3h384l10 3t22 9t22 14t10 16v22h-171v0zM427 64h-22v21h22v-21v0z" />
    <glyph glyph-name="uniE627" unicode="&#xe627;" 
d="M267 277q-20 0 -37.5 -7.5t-30.5 -20.5t-20.5 -30.5t-7.5 -37.5t7.5 -37.5t20.5 -30.5t30.5 -20.5t37.5 -7.5t37 7.5t30.5 20.5t21 30.5t7.5 37.5t-7.5 37.5t-21 30.5t-30.5 20.5t-37 7.5v0zM229 246q5 2 9 4t9 3.5t10 2t10 0.5q14 0 26.5 -5t22.5 -14t16.5 -21t7.5 -26
q-13 11 -28 19.5t-29.5 15.5t-28 12t-25.5 9v0zM480 363h-103l-14 42h-214l-14 -42h-82q-8 0 -17.5 -3.5t-17.5 -9.5t-13 -13.5t-5 -16.5v-256q0 -9 5 -16.5t13 -13.5t17.5 -9.5t17.5 -3.5h427q9 0 15 3.5t10 9.5t5.5 13.5t1.5 16.5v256q0 9 -1.5 16.5t-5.5 13.5t-10 9.5
t-15 3.5v0zM267 43q-29 0 -54.5 10.5t-44 29.5t-29.5 44.5t-11 53.5q0 29 11 54.5t29.5 44t44 29.5t54.5 11q28 0 53.5 -11t44.5 -29.5t29.5 -44t10.5 -54.5q0 -28 -10.5 -53.5t-29.5 -44.5t-44.5 -29.5t-53.5 -10.5v0zM469 277h-42v43h42v-43v0z" />
    <glyph glyph-name="uniE628" unicode="&#xe628;" 
d="M448 405h-384q-13 0 -25 -5t-20.5 -13.5t-13.5 -20t-5 -25.5v-234q0 -14 5 -25.5t13.5 -20t20.5 -13.5t25 -5h21l22 -43h21l21 43h214l21 -43h21l22 43h21q13 0 25 5t20.5 13.5t13.5 20t5 25.5v234q0 14 -5 25.5t-13.5 20t-20.5 13.5t-25 5v0zM469 107q0 -5 -1.5 -9
t-4.5 -6.5t-7 -4.5t-8 -2h-384q-4 0 -8 2t-7 4.5t-4.5 6.5t-1.5 9v234q0 5 1.5 9t4.5 6.5t7 4.5t8 2h384q4 0 8 -2t7 -4.5t4.5 -6.5t1.5 -9v-234v0zM64 107h320v234h-320v-234v0zM85 320h278v-192h-278v192v0zM405 320h22v-21h-22v21zM427 299h21v-22h-21v22zM405 277h22
v-21h-22v21zM427 256h21v-21h-21v21zM405 192h43v-21h-43v21zM405 149h43v-21h-43v21z" />
    <glyph glyph-name="uniE629" unicode="&#xe629;" 
d="M469 320h-43l1 13q-1 8 -4 17.5t-9.5 17t-13.5 12t-17 4.5h-340q-10 0 -17.5 -4.5t-13.5 -12t-9 -17t-4 -17.5l1 -192q-1 -9 3 -15.5t9 -10.5t13.5 -6t16.5 -2h22l-1 -52q1 -9 4 -15t9 -10.5t13.5 -6.5t17.5 -2h361q10 0 17.5 2t13.5 6.5t9 10.5t4 15l-1 214q1 8 -3 17.5
t-9 17t-13.5 12t-16.5 4.5v0zM63 149h-20l-1 86h22l-1 -86v0zM70 299h-28l1 42h340l1 -21h-278q-5 0 -11 -3.5t-10.5 -7.5t-8.5 -7t-6 -3v0zM106 64l1 213h361l1 -213h-363v0zM341 128h106l1 85h-108l1 -85v0zM362 192h65l-1 -43h-63l-1 43v0zM171 85h84l1 22h-86l1 -22v0z
M127 213h150l-1 43h-148l-1 -43v0zM277 85h21l1 22h-23l1 -22v0zM127 85h22l-1 22h-20l-1 -22v0z" />
    <glyph glyph-name="uniE62A" unicode="&#xe62a;" 
d="M256 469q-40 0 -75.5 -15t-62 -41.5t-41.5 -62t-15 -75.5t24.5 -94.5t57 -104.5t64.5 -84.5t48 -34.5q12 0 43.5 34.5t65 84.5t59.5 104.5t26 94.5t-15 75.5t-41.5 62t-62 41.5t-75.5 15v0zM255 180q-20 0 -38 7.5t-31.5 21t-21.5 31.5t-8 38q0 21 8 39t21.5 31t31.5 21
t38 8q21 0 38.5 -8t31 -21t21.5 -31t8 -39q0 -20 -8 -38t-21.5 -31.5t-31 -21t-38.5 -7.5v0z" />
    <glyph glyph-name="uniE62B" unicode="&#xe62b;" 
d="M329 457l-154 -85l-175 97v-390l180 -98l145 86l166 -91v389l-162 92v0zM448 208l-107 55v134l107 -57v-132v0zM192 335l107 61v-134l-107 -61v134v0zM192 176l107 61v-133l-107 -61v133v0zM149 335v-133l-106 64v130l106 -61v0zM43 241l106 -64v-134l-106 61v137v0z
M341 104v135l107 -55v-137l-107 57v0z" />
    <glyph glyph-name="uniE62C" unicode="&#xe62c;" 
d="M437 394q-17 17 -37.5 31t-43.5 23.5t-48 15t-52 4.5q-26 1 -51.5 -4.5t-48.5 -15t-43.5 -23.5t-37.5 -31q-17 -18 -31 -38t-24 -43.5t-15 -48t-5 -52.5q0 -25 5 -50.5t15 -48t24 -43.5t31 -38q17 -18 37.5 -31.5t43.5 -23.5t48.5 -15t51.5 -6q27 1 52 6t48 15t43.5 23.5
t37.5 31.5q17 17 31 38t24 43.5t15 48t5 50.5q0 28 -5 52.5t-15 48t-24 43.5t-31 38v0zM341 212q0 -7 -1.5 -16t-5 -16.5t-8 -14.5t-10.5 -12q-5 -7 -12 -11t-14.5 -8t-16 -5t-17.5 -2q-9 1 -17.5 2t-16 5t-14 8t-12.5 11q-6 5 -10.5 12t-8 14.5t-5 16.5t-1.5 16
q0 10 1.5 18t5 16t8 14.5t10.5 13.5q6 4 12.5 9.5t14 8t16 5t17.5 1.5q9 1 17.5 -1.5t16 -5t14.5 -8t12 -9.5q6 -7 10.5 -13.5t8 -14.5t5 -16t1.5 -18v0zM43 213q0 21 4 42.5t12.5 40t20 36.5t25.5 31l61 -59q-9 -10 -16 -19.5t-12 -21.5t-7.5 -24t-2.5 -27q0 -12 2.5 -25
t7.5 -24t12 -21.5t16 -18.5l-61 -61q-14 15 -25.5 31.5t-20 36t-12.5 40t-4 43.5v0zM407 62l-61 61q9 8 16 18.5t12 21.5t7.5 24t2.5 25q0 15 -2.5 27t-7.5 24t-12 21.5t-16 19.5l61 59q14 -13 25.5 -31t20 -36.5t12.5 -40t4 -42.5q0 -23 -4 -43.5t-12.5 -40t-20 -36
t-25.5 -31.5v0z" />
    <glyph glyph-name="uniE62D" unicode="&#xe62d;" 
d="M171 448v-85h-150v-320h131l36 -86h235l46 43v448h-298v0zM64 85v176l70 -176h-70v0zM160 107l-85 213h85v-213v0zM427 21l-25 -21h-189v405h214v-384v0zM235 363h106v-22h-106v22zM235 235h106v-22h-106v22zM235 192h106v-21h-106v21zM235 149h106v-21h-106v21zM235 107
h106v-22h-106v22zM235 64h106v-21h-106v21zM363 363h42v-22h-42v22zM363 320h21v-21h-21v21zM320 320h21v-21h-21v21zM299 320h-64v-21h64v21zM384 235h21v-22h-21v22zM384 192h21v-21h-21v21zM384 149h21v-21h-21v21zM384 107h21v-22h-21v22z" />
    <glyph glyph-name="uniE62E" unicode="&#xe62e;" 
d="M464 277q-4 0 -7 -3t-5 -9t-3 -14t-1 -16v-43q0 -9 1 -16.5t3 -13.5t5 -9.5t7 -3.5q5 0 8 3.5t5 9.5t3 13.5t1 16.5h31v43h-31q0 8 -1 16t-3 14t-5 9t-8 3v0zM384 341q-8 0 -12.5 -3t-6.5 -9t-2 -14v-16v-64h-214v64v16t-2 14t-6.5 9t-12.5 3q-9 0 -16.5 -3t-13.5 -9
t-9.5 -14t-3.5 -16v-171q0 -9 3.5 -16.5t9.5 -13.5t13.5 -9.5t16.5 -3.5q8 0 12.5 3.5t6.5 9.5t2 13.5v16.5v64h214v-64v-16.5t2 -13.5t6.5 -9.5t12.5 -3.5q9 0 16.5 3.5t13.5 9.5t9.5 13.5t3.5 16.5v171q0 8 -3.5 16t-9.5 14t-13.5 9t-16.5 3v0zM48 277q4 0 7 -3t5 -9
t3 -14t1 -16v-43q0 -9 -1 -16.5t-3 -13.5t-5 -9.5t-7 -3.5q-5 0 -8 3.5t-5 9.5t-3 13.5t-1 16.5h-31v43h31q0 8 1 16t3 14t5 9t8 3v0z" />
    <glyph glyph-name="uniE62F" unicode="&#xe62f;" 
d="M277 383v22h11q2 0 4 1t3.5 2.5t2.5 3.5t1 4v43q0 2 -1 4t-2.5 3.5t-3.5 2t-4 0.5h-64q-2 0 -4 -0.5t-3.5 -2t-2.5 -3.5t-1 -4v-43q0 -2 1 -4t2.5 -3.5t3.5 -2.5t4 -1h11v-22q-8 -1 -15 -2t-13.5 -3t-13.5 -4t-13 -4l-23 21l-39 39l-75 -75l49 -48q-12 -14 -21 -30
t-15.5 -33t-9.5 -35.5t-3 -37.5q0 -45 16.5 -83.5t45.5 -67.5t68 -46t83 -17t83 17t68 46t45.5 67.5t16.5 83.5q0 41 -14.5 78t-40.5 65.5t-61 46.5t-76 22v0zM235 448h42v-21h-42v21v0zM73 355l45 45l25 -25l-45 -45l-25 25v0zM256 0q-35 0 -66 13.5t-54.5 36.5t-37 54
t-13.5 67q0 35 13.5 66t37 54t54.5 36.5t66 13.5t66 -13.5t54.5 -36.5t37 -54t13.5 -66q0 -36 -13.5 -67t-37 -54t-54.5 -36.5t-66 -13.5v0zM239 268q-3 3 -7 4.5t-8 1.5t-8 -1.5t-7 -4.5q-3 -4 -4.5 -7.5t-1.5 -8t1.5 -8t4.5 -7.5l42 -42l-56 -78q-2 -4 -2.5 -8t0.5 -8
t3.5 -7.5t6.5 -5.5q1 -1 2.5 -1.5t2.5 -0.5t2.5 -0.5t2.5 -0.5q3 0 6 1t5 2.5t4 3.5l4 4l64 93q2 3 2.5 6.5t0 6.5t-2 6.5t-4.5 5.5l-53 54v0z" />
    <glyph glyph-name="uniE630" unicode="&#xe630;" 
d="M256 277q-13 0 -25 -5t-20.5 -13.5t-13.5 -20t-5 -25.5q0 -13 5 -24.5t13.5 -20.5t20.5 -14t25 -5t25 5t20.5 14t13.5 20.5t5 24.5q0 14 -5 25.5t-13.5 20t-20.5 13.5t-25 5v0zM453 270q-3 0 -5.5 1.5t-4.5 2.5t-4.5 2.5t-4.5 3.5q-3 -6 -6.5 -12t-7.5 -12l-8 -12l-8 -12
q-7 8 -14 16.5t-15 17.5t-16 17.5t-16 16.5q-9 9 -17.5 17t-17 15.5t-17 14.5t-17.5 14q21 15 41 26.5t38.5 19.5t35 12t30.5 4q6 0 11 -0.5t9.5 -2t8 -4t6.5 -5.5t5.5 -7t4 -8.5t2 -10.5t0.5 -12h0.5h1h1h0.5h5t4 -0.5t4.5 -1t4.5 -1.5q0 9 -0.5 17t-3 15.5t-6 13.5
t-8.5 11q-4 4 -9.5 7.5t-11.5 5.5t-13.5 3.5t-15.5 1.5q-16 0 -35 -5t-40 -14t-43 -22t-45 -29q-23 16 -45 29t-43 22t-40 14t-35 5q-2 0 -3.5 -0.5t-3.5 -0.5h-3.5h-2.5q2 -3 4 -5t3.5 -4.5t3 -5.5t2.5 -6q14 0 30.5 -4t35 -12t38.5 -19.5t41 -26.5q-9 -7 -17.5 -14
t-17 -14.5t-17 -15.5t-17.5 -17q-8 -8 -16 -16.5t-16 -17.5t-15 -17.5t-14 -17.5q-7 10 -13 19.5t-11.5 19t-10.5 19t-9 18.5q-3 6 -5 12l-4 12t-3.5 11.5t-2.5 10.5q-1 0 -1.5 -0.5t-1.5 -0.5h-2h-1h-4t-4 0.5l-4 1t-4 1.5q1 -7 2.5 -13.5t4 -13.5t5 -14.5t6.5 -15.5
q4 -10 9.5 -20.5t12 -21t13.5 -21.5t15 -22q-8 -11 -15 -21.5t-13.5 -21t-12 -21t-9.5 -21.5q-10 -22 -15 -41t-5 -35.5t4.5 -29.5t13.5 -22q4 -4 9.5 -7.5t11.5 -6t13.5 -3.5t15.5 -1q24 0 53.5 10.5t62.5 29t67 45.5t67 59q8 9 16 17.5l16 17t15 17.5l14 18
q22 -32 36.5 -60.5t20.5 -52t4.5 -41t-11.5 -27.5q-3 -3 -6.5 -5t-8 -3.5t-9.5 -2.5t-11 -1q-7 0 -15.5 1.5t-17.5 4t-18.5 6t-19.5 7.5q-1 -2 -2.5 -4.5l-3 -5t-3 -4.5t-3.5 -4q11 -5 22.5 -9t22 -7t20 -4.5t18.5 -1.5q8 0 15.5 1t13.5 3.5t11.5 6t9.5 7.5q14 14 17 36.5
t-4 50.5t-23.5 60t-41.5 67l10 14t9.5 14t8.5 14l8 14v0zM93 3q-6 0 -11 1t-9.5 2.5t-8 3.5t-6.5 5q-7 7 -9.5 17t-2 23.5t5 29.5t12.5 35q4 9 9 18t10.5 18.5t11.5 19.5t13 19q7 -8 14 -17t15 -17.5l16 -17t16 -17.5q9 -8 17.5 -16t17 -15.5t17.5 -15t17 -13.5
q-20 -15 -40 -26.5t-39 -19.5t-35.5 -12.5t-30.5 -4.5v0zM328 142q-9 -9 -18 -17.5t-18 -16.5t-18 -15l-18 -14l-18 14t-18 15t-18 16.5t-18 17.5q-9 8 -17 17l-16 18t-15.5 18t-14.5 18q7 9 14.5 18.5t15.5 18.5t16.5 17.5t16.5 17.5q9 9 18 17.5t18 16l18 15t18 14.5
q9 -7 18 -14.5l18 -15t18 -16t18 -17.5t17.5 -18t16.5 -18t15 -18t14 -17q-7 -10 -14.5 -19t-15.5 -18l-16 -18t-17 -17v0zM469 341q-4 0 -8 -1.5t-7 -4.5t-4.5 -7t-1.5 -8t1.5 -8t4.5 -7t7 -4.5t8 -1.5q5 0 9 1.5t6.5 4.5t4.5 7t2 8t-2 8t-4.5 7t-6.5 4.5t-9 1.5v0zM299 64
q-5 0 -9 -1.5t-6.5 -4.5t-4.5 -7t-2 -8q0 -5 2 -9t4.5 -6.5t6.5 -4.5t9 -2q4 0 8 2t7 4.5t4.5 6.5t1.5 9q0 4 -1.5 8t-4.5 7t-7 4.5t-8 1.5v0zM43 384q4 0 8 1.5t7 4.5t4.5 7t1.5 8q0 5 -1.5 9t-4.5 6.5t-7 4.5t-8 2q-5 0 -9 -2t-6.5 -4.5t-4.5 -6.5t-2 -9q0 -4 2 -8t4.5 -7
t6.5 -4.5t9 -1.5v0z" />
    <glyph glyph-name="uniE631" unicode="&#xe631;" 
d="M0 405v-384h512v384h-512v0zM469 64h-426v299h426v-299v0zM309 204q9 0 17 3.5t13.5 9t9 13.5t3.5 17q0 8 -3.5 16t-9 13.5t-13.5 9t-17 3.5q-8 0 -16 -3.5t-14 -9t-9 -13.5t-3 -16q0 -9 3 -17t9 -13.5t14 -9t16 -3.5v0zM288 268h43v-43h-43v43v0zM448 341h-384v-256h384
v256v0zM85 193l129 -37l-129 -23v60v0zM427 107h-342v4l342 61v-65v0zM427 193l-171 -32l-171 53v106h342v-127v0z" />
    <glyph glyph-name="uniE632" unicode="&#xe632;" 
d="M258 459l-237 -116v-236l235 -138l235 138v236l-233 116v0zM235 31l-171 100v144l171 -86v-158v0zM74 318l185 94l185 -94l-185 -91l-185 91v0zM448 132l-192 -114v165l192 91v-142v0z" />
    <glyph glyph-name="uniE633" unicode="&#xe633;" 
d="M491 0v21h-22v-21h-21v213h-107v-213h-21v427h-107v-427h-21v256h-21v21h-22v-21h-42v21h-22v-277h-42v469h-43v-512h512v43h-21v0zM149 0h-21v213h21v-213v0zM277 0h-21v384h21v-384v0zM405 0h-21v171h21v-171v0zM85 469h22v-21h-22v21zM149 469h22v-21h-22v21zM213 469
h22v-21h-22v21zM277 469h22v-21h-22v21zM341 469h22v-21h-22v21zM405 469h22v-21h-22v21zM469 469h22v-21h-22v21zM469 405h22v-21h-22v21zM405 405h22v-21h-22v21zM341 405h22v-21h-22v21zM341 341h22v-21h-22v21zM405 341h22v-21h-22v21zM469 341h22v-21h-22v21zM469 277
h22v-21h-22v21zM405 277h22v-21h-22v21zM341 277h22v-21h-22v21zM469 213h22v-21h-22v21zM469 149h22v-21h-22v21zM469 85h22v-21h-22v21zM149 405h22v-21h-22v21zM149 341h22v-21h-22v21zM85 341h22v-21h-22v21zM85 405h22v-21h-22v21z" />
    <glyph glyph-name="uniE634" unicode="&#xe634;" 
d="M84 392q-18 -13 -33.5 -30.5t-25.5 -37t-16 -42.5t-5 -46q-1 -10 0 -18t2.5 -17t4 -17t4.5 -16l182 68l-113 156v0zM34 241q-1 14 2 29t8 28.5t13.5 26.5t17.5 22l91 -98l-128 -43q0 5 -1.5 8.5t-1.5 8.5t-0.5 9t-0.5 9v0zM284 437q-19 1 -39.5 -3t-38.5 -10.5t-35.5 -17
t-32.5 -22.5v-2l-8 -6l135 -157l-197 -62l2 -10l1 1q-1 -2 0 -2.5t0.5 -1.5t0.5 -1.5t0 -1.5l3 -5l-1 -1q13 -31 33.5 -58.5t48.5 -46.5t60.5 -30t68.5 -10q45 -1 86.5 17.5t71.5 48t48 71t17 86.5q1 48 -17 88t-48 71t-71.5 48t-86.5 18zM450 286l-134 -49l87 113
q9 -6 15 -14t12.5 -15.5t11 -16.5t9.5 -17zM173 357q13 10 25.5 16.5t27 12t29 7.5t30.5 3q13 -1 27.5 -3t27 -6.5t25 -10t22.5 -13.5l-102 -132l-112 126v0zM116 150l154 48l-27 -159q-23 4 -42 14.5t-35.5 24t-29 32t-21.5 39.5zM285 33q-4 -1 -6 -0.5t-5 0.5t-5.5 0.5
t-5.5 0.5l31 172l164 60q2 -6 3 -12.5t2.5 -13t1.5 -13.5t1 -13q-1 -38 -14.5 -70.5t-38.5 -57.5t-58 -39t-71 -15z" />
    <glyph glyph-name="uniE635" unicode="&#xe635;" 
d="M275 456l-188 -335h2l8 -151l139 69v-1l188 335l-150 83h1zM129 23l-2 76l69 -38l-68 -38h1zM220 96l-75 42l116 205l73 -42l-114 -205v0zM270 361l22 37l73 -41l-20 -38l-75 42v0z" />
    <glyph glyph-name="uniE636" unicode="&#xe636;" 
d="M64 171h21v21h-21v-21v0zM85 384h-21v-21h21v21v0zM85 0h-21v-21h-43v-22h107v22h-43v21v0zM64 299h21v21h-21v-21v0zM64 235h21v21h-21v-21v0zM192 469v-512h277v512h-277v0zM363 0h-128v427h128v-427v0zM427 0h-43v43h43v-43v0zM427 64h-43v43h43v-43v0zM427 128h-43
v43h43v-43v0zM427 192h-43v43h43v-43v0zM427 256h-43v43h43v-43v0zM427 320h-43v43h43v-43v0zM427 384h-43v43h43v-43v0zM21 448h43v-21h21v21h43v21h-107v-21v0zM64 43h21v21h-21v-21v0zM64 107h21v21h-21v-21v0z" />
    <glyph glyph-name="uniE637" unicode="&#xe637;" 
d="M320 375v43q0 8 -5.5 18t-13.5 17t-18 12t-18 4l-18 1q-8 -1 -18 -5t-18 -12t-13.5 -17t-5.5 -19v-41q-8 -1 -15.5 -4t-13.5 -9.5t-10 -13.5t-4 -17v-20q0 -7 0.5 -12t2.5 -10.5t6.5 -8.5t12.5 -7v-230l21 -1v-85l128 -1v87l21 -1v232q8 2 12.5 6t6.5 8.5t2.5 10.5
t0.5 11v22q0 8 -4 16t-10 13.5t-13.5 9.5t-15.5 3v0zM277 1l-42 -1v65l42 -1v-63v0zM299 85l-86 1v127l86 1v-129v0zM299 236l-86 -1v43l86 -1v-41v0z" />
    <glyph glyph-name="uniE638" unicode="&#xe638;" 
d="M149 320v-43h128v43h-128v0zM149 235h192v21h-192v-21v0zM341 213h-64v-21h64v21v0zM277 149h64v22h-64v-22v0zM64 427v-214h43v171h277v-363h-107v-42h150v448h-363v0zM207 96v4t-0.5 3.5t-0.5 3.5t-1 4l30 20l-19 32l-30 -20q-2 2 -4.5 3.5t-4.5 3t-4.5 2.5t-5.5 2v38
h-36v-38q-2 -1 -4.5 -2t-5 -2.5t-4.5 -3t-4 -3.5l-30 20l-19 -32l30 -20q-1 -2 -1.5 -4t-0.5 -3.5v-3.5v-4v-4v-3.5t0.5 -3.5t1.5 -4l-30 -20l19 -32l30 20q2 -2 4 -3.5t4.5 -3t5 -2.5t4.5 -2v-38h36v38q3 1 5.5 2t4.5 2.5t4.5 3t4.5 3.5l30 -20l19 32l-30 20q1 2 1 4
t0.5 3.5t0.5 3.5v4v0zM149 58q-7 0 -13.5 3t-11.5 8t-7.5 12t-2.5 15t2.5 15t7.5 12t11.5 8t13.5 3q8 0 14.5 -3t11.5 -8t7.5 -12t2.5 -15t-2.5 -15t-7.5 -12t-11.5 -8t-14.5 -3v0z" />
    <glyph glyph-name="uniE639" unicode="&#xe639;" 
d="M171 320v-43h128v43h-128v0zM171 235h192v21h-192v-21v0zM363 213h-171v-21h171v21v0zM363 149v22h-150v-22h150v0zM171 171h-64v-64h-64v-64h64v-64h64v64h64v64h-64v64v0zM85 427v-214h43v171h277v-363h-141l-22 -42h206v448h-363v0z" />
    <glyph glyph-name="uniE63A" unicode="&#xe63a;" 
d="M149 320h128v-43h-128v43zM149 256h192v-21h-192v21zM149 213h192v-21h-192v21zM149 171h192v-22h-192v22zM149 128h64v-21h-64v21zM351 427h-287v-448h363v372l-76 76v0zM384 334v-14h-64v64h13l51 -50v0zM107 21v363h192v-85h85v-278h-277v0z" />
    <glyph glyph-name="uniE63B" unicode="&#xe63b;" 
d="M64 427v-448h363v448h-363v0zM384 21h-277v363h277v-363v0zM277 320h-128v-43h128v43v0zM341 256h-192v-21h192v21v0zM341 213h-192v-21h192v21v0zM341 171h-192v-22h192v22v0zM213 128h-64v-21h64v21v0z" />
    <glyph glyph-name="uniE63C" unicode="&#xe63c;" 
d="M64 427v-448h363v448h-363v0zM384 21h-277v363h277v-363v0zM341 320h-128v-43h128v43v0zM341 256h-192v-21h192v21v0zM341 213h-192v-21h192v21v0zM341 171h-192v-22h192v22v0zM277 107h64v21h-64v-21v0z" />
    <glyph glyph-name="uniE63D" unicode="&#xe63d;" 
d="M64 427v-448h363v448h-363v0zM384 21h-277v363h277v-363v0zM299 320h-128v-43h128v43v0zM341 256h-192v-21h192v21v0zM341 213h-192v-21h192v21v0zM341 171h-192v-22h192v22v0zM213 107h64v21h-64v-21v0z" />
    <glyph glyph-name="uniE63E" unicode="&#xe63e;" 
d="M64 427v-448h363v448h-363v0zM384 21h-277v363h277v-363v0zM341 320h-192v-43h192v43v0zM341 256h-192v-21h192v21v0zM341 213h-192v-21h192v21v0zM341 171h-192v-22h192v22v0zM341 128h-192v-21h192v21v0z" />
    <glyph glyph-name="uniE63F" unicode="&#xe63f;" 
d="M64 427v-448h363v448h-363v0zM384 21h-277v363h277v-363v0zM193 130l52 53l53 -53l30 31l-53 52l53 53l-30 30l-53 -53l-52 53l-31 -30l53 -53l-53 -52l31 -31v0z" />
    <glyph glyph-name="uniE640" unicode="&#xe640;" 
d="M0 448v-469h512v469h-512v0zM469 21h-426v278h426v-278v0zM469 320h-426v85h426v-85v0zM235 384h-43v-43h43v43v0zM171 384h-43v-43h43v43v0zM107 384h-43v-43h43v43v0z" />
    <glyph glyph-name="uniE641" unicode="&#xe641;" 
d="M64 448v-64h-64v-405h448v64h64v405h-448v0zM405 21h-362v320h21v-298h341v-22v0zM469 85h-362v214h362v-214v0zM469 320h-362v85h362v-85v0zM299 384h-43v-43h43v43v0zM235 384h-43v-43h43v43v0zM171 384h-43v-43h43v43v0z" />
    <glyph glyph-name="uniE642" unicode="&#xe642;" 
d="M0 448v-469h512v469h-512v0zM469 21h-426v278h426v-278v0zM469 320h-426v85h426v-85v0zM235 384h-43v-43h43v43v0zM171 384h-43v-43h43v43v0zM107 384h-43v-43h43v43v0zM193 88l52 53l53 -53l30 30l-53 53l53 52l-30 31l-53 -53l-52 53l-31 -31l53 -52l-53 -53l31 -30v0z
" />
    <glyph glyph-name="uniE643" unicode="&#xe643;" 
d="M299 384v21q0 9 -3.5 17t-9.5 13.5t-13.5 9t-16.5 3.5h-85q-9 0 -17 -3.5t-13.5 -9t-9 -13.5t-3.5 -17v-21h-85v-64h-22v-341h470v405h-192v0zM448 21h-384v256h384v-256v0zM448 320h-363v21h86v64h85v-64h192v-21v0z" />
    <glyph glyph-name="uniE644" unicode="&#xe644;" 
d="M299 427v-85l-86 -1v-84l-85 -1v-84l-85 -1v-170l405 -1v428l-149 -1v0zM235 44l-64 -1v171l64 -1v-169v0zM320 43l-64 1v255l64 1v-257v0zM405 44l-64 -1v342l64 -1v-340v0z" />
    <glyph glyph-name="uniE645" unicode="&#xe645;" 
d="M299 427v-85l-86 -1v-84l-85 -1v-84l-85 -1v-170l405 -1v428l-149 -1v0zM320 44l-64 -1v257l64 -1v-255v0zM405 43l-64 1v340l64 1v-342v0z" />
    <glyph glyph-name="uniE646" unicode="&#xe646;" 
d="M299 427v-85l-86 -1v-84l-85 -1v-84l-85 -1v-170l405 -1v428l-149 -1v0zM405 44l-64 -1v342l64 -1v-340v0z" />
    <glyph glyph-name="uniE647" unicode="&#xe647;" 
d="M299 427v-85l-86 -1v-84l-85 -1v-84l-85 -1v-170l405 -1v428l-149 -1v0z" />
    <glyph glyph-name="uniE648" unicode="&#xe648;" 
d="M192 405v-405h256v171h64v234h-320v0zM405 43h-170v64h170v-64v0zM405 128h-170v64h170v-64v0zM469 213h-234v64h234v-64v0zM469 299h-234v64h234v-64v0zM0 0h149v405h-149v-405v0zM43 363h64v-64h-64v64v0zM43 277h64v-64h-64v64v0zM43 192h64v-64h-64v64v0zM43 107h64
v-64h-64v64v0z" />
    <glyph glyph-name="uniE649" unicode="&#xe649;" 
d="M21 427v-448h448v448h-448v0zM426 277h-106v107h106v-107v0zM426 149h-106v107h106v-107v0zM426 21h-106v107h106v-107v0zM64 128h107v-107h-107v107v0zM64 256h107v-107h-107v107v0zM64 384h107v-107h-107v107v0zM298 277h-106v107h106v-107v0zM298 149h-106v107h106
v-107v0zM192 128h106v-107h-106v107v0z" />
    <glyph glyph-name="uniE64A" unicode="&#xe64a;" 
d="M448 335v49h-384v-49l-64 -21v-201l64 -22v-48h384v48l64 22v201l-64 21v0zM64 136l-21 7v140l21 7v-154v0zM405 85h-298v256h298v-256v0zM469 143l-21 -7v154l21 -7v-140v0zM384 320h-256v-213h256v213v0zM363 128h-214v171h214v-171v0z" />
    <glyph glyph-name="uniE64B" unicode="&#xe64b;" 
d="M444 299q-3 9 -9 17t-14 13.5t-17.5 8.5t-19.5 3h-320q-13 0 -25 -5t-20.5 -13.5t-13.5 -20t-5 -25.5v-149q0 -13 5 -25t13.5 -20.5t20.5 -13.5t25 -5h320q10 0 19.5 3t17.5 9t14 13.5t9 17.5h46v192h-46v0zM405 128q0 -4 -1.5 -8t-4.5 -7t-7 -4.5t-8 -1.5h-320
q-4 0 -8 1.5t-7 4.5t-4.5 7t-1.5 8v149q0 5 1.5 9t4.5 6.5t7 4.5t8 2h320q4 0 8 -2t7 -4.5t4.5 -6.5t1.5 -9v-149v0zM448 149h-22v107h22v-107v0zM215 149l22 43h106l-128 64l-21 -43h-107l128 -64v0z" />
    <glyph glyph-name="uniE64C" unicode="&#xe64c;" 
d="M444 299q-3 9 -9 17t-14 13.5t-17.5 8.5t-19.5 3h-320q-13 0 -24.5 -5t-20.5 -13.5t-14 -20t-5 -25.5v-149q0 -13 5 -25t14 -20.5t20.5 -13.5t24.5 -5h320q10 0 19.5 3t17.5 9t14 13.5t9 17.5h46v192h-46v0zM405 128q0 -4 -1.5 -8t-4.5 -7t-7 -4.5t-8 -1.5h-320
q-4 0 -8 1.5t-7 4.5t-4.5 7t-1.5 8v149q0 5 1.5 9t4.5 6.5t7 4.5t8 2h320q4 0 8 -2t7 -4.5t4.5 -6.5t1.5 -9v-149v0zM448 149h-22v107h22v-107v0z" />
    <glyph glyph-name="uniE64D" unicode="&#xe64d;" 
d="M444 299q-3 9 -9 17t-14 13.5t-17.5 8.5t-19.5 3h-320q-13 0 -24.5 -5t-20.5 -13.5t-14 -20t-5 -25.5v-149q0 -13 5 -25t14 -20.5t20.5 -13.5t24.5 -5h320q10 0 19.5 3t17.5 9t14 13.5t9 17.5h46v192h-46v0zM405 128q0 -4 -1.5 -8t-4.5 -7t-7 -4.5t-8 -1.5h-320
q-4 0 -8 1.5t-7 4.5t-4.5 7t-1.5 8v149q0 5 1.5 9t4.5 6.5t7 4.5t8 2h320q4 0 8 -2t7 -4.5t4.5 -6.5t1.5 -9v-149v0zM448 149h-22v107h22v-107v0zM64 235v-64q0 -9 2.5 -17t7 -13.5t10.5 -9t12 -3.5h32v149h-32q-6 0 -12 -3t-10.5 -9t-7 -14t-2.5 -16v0z" />
    <glyph glyph-name="uniE64E" unicode="&#xe64e;" 
d="M444 299q-3 9 -9 17t-14 13.5t-17.5 8.5t-19.5 3h-320q-13 0 -24.5 -5t-20.5 -13.5t-14 -20t-5 -25.5v-149q0 -13 5 -25t14 -20.5t20.5 -13.5t24.5 -5h320q10 0 19.5 3t17.5 9t14 13.5t9 17.5h46v192h-46v0zM405 128q0 -4 -1.5 -8t-4.5 -7t-7 -4.5t-8 -1.5h-320
q-4 0 -8 1.5t-7 4.5t-4.5 7t-1.5 8v149q0 5 1.5 9t4.5 6.5t7 4.5t8 2h320q4 0 8 -2t7 -4.5t4.5 -6.5t1.5 -9v-149v0zM448 149h-22v107h22v-107v0zM149 277h64v-149h-64v149zM64 235v-64q0 -9 2.5 -17t7 -13.5t10.5 -9t12 -3.5h32v149h-32q-6 0 -12 -3t-10.5 -9t-7 -14
t-2.5 -16v0z" />
    <glyph glyph-name="uniE64F" unicode="&#xe64f;" 
d="M444 299q-3 9 -9 17t-14 13.5t-17.5 8.5t-19.5 3h-320q-13 0 -24.5 -5t-20.5 -13.5t-14 -20t-5 -25.5v-149q0 -13 5 -25t14 -20.5t20.5 -13.5t24.5 -5h320q10 0 19.5 3t17.5 9t14 13.5t9 17.5h46v192h-46v0zM405 128q0 -4 -1.5 -8t-4.5 -7t-7 -4.5t-8 -1.5h-320
q-4 0 -8 1.5t-7 4.5t-4.5 7t-1.5 8v149q0 5 1.5 9t4.5 6.5t7 4.5t8 2h320q4 0 8 -2t7 -4.5t4.5 -6.5t1.5 -9v-149v0zM448 149h-22v107h22v-107v0zM149 277h64v-149h-64v149zM235 277h64v-149h-64v149zM64 235v-64q0 -9 2.5 -17t7 -13.5t10.5 -9t12 -3.5h32v149h-32
q-6 0 -12 -3t-10.5 -9t-7 -14t-2.5 -16v0z" />
    <glyph glyph-name="uniE650" unicode="&#xe650;" 
d="M117 229q4 21 16 42.5t30.5 38.5t42 27.5t49.5 10.5q15 0 29.5 -3.5t27.5 -9.5t24 -15t21 -19l34 22q-13 15 -28 27t-32.5 20.5t-37 13t-39.5 4.5q-34 0 -64.5 -11t-54 -31.5t-39 -48t-19.5 -61.5l-77 15l76 -112l111 76l-70 14v0zM436 287l-111 -75l70 -14
q-4 -21 -16 -42.5t-30.5 -38.5t-42 -27.5t-49.5 -10.5q-15 0 -29.5 3.5t-27.5 9.5t-24 14.5t-21 19.5l-34 -23q13 -14 28 -26t32.5 -20.5t37 -13.5t39.5 -5q34 0 64.5 11.5t54 31.5t39 48t19.5 61l77 -15l-76 112v0z" />
    <glyph glyph-name="uniE651" unicode="&#xe651;" 
d="M272 448l-85 -107h-85q-14 0 -24.5 -5.5t-18.5 -15.5t-12 -22.5t-4 -25.5v-123q0 -13 4 -24.5t12 -20.5t18.5 -14t24.5 -5h85l85 -106h16.5h15.5h11.5h4.5v469h-13.5h-10.5h-10.5h-13.5v0zM171 128h-69q-5 0 -8 1.5t-5 4.5t-3 7t-1 8v123q0 4 1 9t3 9t5 6.5t8 2.5h69
v-171v0zM277 43l-85 85v171l85 85v-341v0zM363 320v-44q16 -4 24.5 -10t12.5 -13.5t4.5 -17t0.5 -19.5q0 -11 -0.5 -20.5t-4.5 -17t-12.5 -13.5t-24.5 -10v-44q24 4 40 13.5t26 23t14.5 31t4.5 37.5q0 19 -4.5 36.5t-14.5 31t-26 23t-40 13.5v0z" />
    <glyph glyph-name="uniE652" unicode="&#xe652;" 
d="M251 448l-85 -107h-86q-13 0 -24 -5.5t-18.5 -15.5t-12 -22.5t-4.5 -25.5v-123q0 -13 4.5 -24.5t12 -20.5t18.5 -14t24 -5h86l85 -106h16.5h15.5h11.5h4.5v469h-13.5h-10.5h-10.5h-13.5v0zM149 128h-69q-4 0 -7 1.5t-5 4.5t-3 7t-1 8v123q0 4 1 9t3 9t5 6.5t7 2.5h69
v-171v0zM256 43l-85 85v171l85 85v-341v0zM491 235h-43v42h-43v-42h-42v-43h42v-43h43v43h43v43z" />
    <glyph glyph-name="uniE653" unicode="&#xe653;" 
d="M251 448l-85 -107h-86q-13 0 -24 -5.5t-18.5 -15.5t-12 -22.5t-4.5 -25.5v-123q0 -13 4.5 -24.5t12 -20.5t18.5 -14t24 -5h86l85 -106h16.5h15.5h11.5h4.5v469h-13.5h-10.5h-10.5h-13.5v0zM149 128h-69q-4 0 -7 1.5t-5 4.5t-3 7t-1 8v123q0 4 1 9t3 9t5 6.5t7 2.5h69
v-171v0zM256 43l-85 85v171l85 85v-341v0zM363 235h128v-43h-128v43z" />
    <glyph glyph-name="uniE654" unicode="&#xe654;" 
d="M299 187v-144l-72 72l-30 -30h11l86 -106h16.5h15h11h4.5v251l-42 -43v0zM107 146v0.5v1v1v0.5v123q0 4 0.5 9t2.5 9t5.5 6.5t7.5 2.5h69v-68l21 21v47l86 85v-46l42 42v68h-13.5h-10h-10h-13.5l-86 -107h-85q-13 0 -24 -5.5t-18.5 -15.5t-12 -22.5t-4.5 -25.5v-123
q0 -5 0.5 -10t2 -9.5t3.5 -8.5l4 -8l33 33v0zM73 6l-30 30l394 395l30 -30l-394 -395v0z" />
    <glyph glyph-name="uniE655" unicode="&#xe655;" 
d="M299 448h-107q-13 0 -25 -5t-20.5 -13.5t-13.5 -20.5t-5 -25v-192q0 -13 5 -25t13.5 -20.5t20.5 -13.5t25 -5h107q13 0 24.5 5t20.5 13.5t14 20.5t5 25v192q0 13 -5 25t-14 20.5t-20.5 13.5t-24.5 5v0zM320 341v-21h-43v-21h43v-22h-43v-21h43v-21h-43v-22h43v-21v-8
t-1 -7t-3 -4.5t-6 -1.5h-129q-5 0 -7 1.5t-2.5 4.5t-0.5 7v8v21h42v22h-42v21h42v21h-42v22h42v21h-42v21h42v22h-42v21v8t0.5 7t2.5 4.5t7 1.5h129q4 0 6 -1.5t3 -4.5t1 -7v-8v-21h-43v-22h43v0zM405 213v43h-21v-107q0 -9 -3 -16.5t-9 -13.5t-15.5 -9t-22.5 -3h-178
q-13 0 -22 3t-15 9t-9 13.5t-3 16.5v107h-22v-43h-21v-42h21v-22q0 -18 3 -30t11 -19.5t22 -11t35 -3.5h36v-64h-43v-42h192v42h-42v64h35q22 0 36 3.5t21.5 11t10.5 19.5t3 30v22h22v42h-22v0z" />
    <glyph glyph-name="uniE656" unicode="&#xe656;" 
d="M85 154l21 21l1 81l-23 -1l1 -42l-22 -1l1 -41l20 -1l1 -16v0zM404 212l1 44l-22 -1l1 -106q-1 -10 -7.5 -17t-18 -13.5t-24.5 -9t-27 -3.5l-103 1l-44 -23l32 1l-1 -65l-42 1l-1 -43l193 1l-1 41l-41 1l-1 63l10 1q21 -1 39.5 3t30.5 11t19.5 19.5t6.5 29.5l1 23l21 -1
l1 43l-23 -1v0zM277 341l-1 21l-20 1l-1 -23l22 1v0zM170 255l43 1l-1 20l-41 1l-1 21l43 1l-1 20l-41 1l-1 20l43 1l-1 21l-41 1l-1 20q1 5 -0.5 8.5t-0.5 7t2 4.5t6 2l106 -1q5 1 7.5 -0.5t6 -3.5t5 -5.5t2.5 -6.5l31 31q-3 8 -9 12.5t-12.5 8.5t-14.5 5.5t-15 2.5
l-108 -1q-12 1 -22 -4.5t-15.5 -13.5t-8.5 -20.5t-2 -24.5l-1 -188l44 44l-1 15v0zM284 171l-39 -1l-41 -42l79 -1q14 1 27.5 5.5t25.5 13.5t19 20.5t8 25.5l-1 79l-42 -41l-1 -39q1 -3 -3.5 -7.5t-9.5 -7t-12 -4.5t-10 -1v0zM374 396l-298 -298l20 -43l300 299l-22 42v0z
" />
    <glyph glyph-name="uniE657" unicode="&#xe657;" 
d="M190 449l-92 -68l-13 3v-363l278 -64v363l-209 49l45 35l206 -41v-171h22v210l-237 47v0z" />
    <glyph glyph-name="uniE658" unicode="&#xe658;" 
d="M192 -21l-122 213l74 42l49 -85l176 299l73 -43l-250 -426v0z" />
    <glyph glyph-name="uniE659" unicode="&#xe659;" 
d="M85 341h206l25 43h-273v-213l42 42v128v0zM85 43v8.5v19t0.5 21t0.5 15.5q-9 12 -16.5 23.5t-13.5 20.5t-9.5 14.5l-3.5 5.5v-171h122l-2 3l-6 9l-9 13.5t-12 16.5h-13.5h-14.5t-13 0.5t-10 0.5v0zM405 43l-126 -1l-26 -42h195v299l-43 -43v-213v0zM384 437l-176 -299
l-49 86l-74 -43l122 -213l251 426l-74 43v0z" />
    <glyph glyph-name="uniE65A" unicode="&#xe65a;" 
d="M43 384v-384h405v384h-405v0zM405 43h-320v298h320v-298v0zM363 213h-235v-64h235v64v0z" />
    <glyph glyph-name="uniE65B" unicode="&#xe65b;" 
d="M452 369l-60 60q-16 16 -35.5 23.5t-40.5 7.5t-40 -7.5t-36 -23.5l-210 -211l29 -30l213 211q8 9 20.5 14t24 5t24 -5t20.5 -14l61 -60q9 -10 14 -21.5t4.5 -24t-4.5 -24t-15 -21.5l-210 -211q-11 -10 -21 -16.5t-19.5 -9.5t-15.5 -2.5t-10 3.5l-9 10l-49 48
q-1 1 -1.5 5.5t1.5 9.5t4 10.5t7 9.5l210 211q2 1 5.5 -0.5t9.5 -4.5t11.5 -7.5t12.5 -10.5h-1q-2 -2 -3.5 -3t-1.5 -1.5t-1 -1t-1 -1.5l-154 -153l31 -30l153 153l13.5 13.5t10 14.5t0 17.5t-15.5 22.5h-1q-11 12 -24 21.5t-25 13.5t-24.5 1.5t-23.5 -14.5l-212 -211
q-8 -9 -15 -22t-8.5 -26t1 -25.5t13.5 -21.5l32 -33l26 -25q9 -11 24.5 -14t32 0t35 13t32.5 26l213 211q14 16 22.5 35.5t8 40t-8 40t-23.5 35.5v0z" />
    <glyph glyph-name="uniE65C" unicode="&#xe65c;" 
d="M139 277q7 0 12.5 -2.5t10.5 -6.5t7 -10t3 -13q-1 -6 -3 -12t-7 -10.5t-10.5 -7t-12.5 -2.5q-6 0 -12.5 2.5t-10 7t-6.5 10.5t-2 12q-1 7 2 13t6.5 10t10 6.5t12.5 2.5v0zM428 448h-364q-12 0 -24.5 -5t-20.5 -13.5t-13.5 -20.5t-4.5 -25l-1 -256q1 -13 7.5 -21.5t17 -13
t21 -6.5t19.5 -2l-1 -128l193 128h170q14 0 25 5t20.5 14t14 20.5t5.5 24.5l-1 235q1 13 -4.5 25t-14 20.5t-20.5 13.5t-24 5v0zM448 149q1 -4 -1 -8t-4.5 -7t-7 -4.5t-7.5 -1.5h-193l-127 -107l-1 107h-42q-5 0 -8.5 1.5t-7 4.5t-4.5 7l-2 8l1 235q-1 4 1 8t4.5 7t7 4.5
t7.5 1.5h364q3 0 7.5 -1.5t7 -4.5t4.5 -7t1 -8l1 -235h-1z" />
    <glyph glyph-name="uniE65D" unicode="&#xe65d;" 
d="M139 277q7 0 12.5 -2.5t10.5 -6.5t7 -10t3 -13q-1 -6 -3 -12t-7 -10.5t-10.5 -7t-12.5 -2.5q-6 0 -12.5 2.5t-10 7t-6.5 10.5t-2 12q-1 7 2 13t6.5 10t10 6.5t12.5 2.5v0zM246 277q6 0 12.5 -2.5t10 -6.5t6.5 -10t2 -13q1 -6 -2 -12t-6.5 -10.5t-10 -7t-12.5 -2.5
q-7 0 -12.5 2.5t-10.5 7t-7 10.5t-3 12q1 7 3 13t7 10t10.5 6.5t12.5 2.5v0zM427 448h-362q-14 0 -25.5 -5t-20.5 -13.5t-13.5 -20.5t-5.5 -25l1 -256q-1 -13 6.5 -21.5t17 -13t21 -6.5t18.5 -2l1 -128l191 128h172q12 0 24 5t20.5 14t14 20.5t4.5 24.5l1 235q-1 13 -5.5 25
t-14 20.5t-20.5 13.5t-25 5v0zM449 149l-2 -8t-4.5 -7t-7 -4.5t-8.5 -1.5h-191l-129 -107l1 107h-44q-3 0 -7.5 1.5t-7 4.5t-4.5 7t-1 8l-1 235l2 8t4.5 7t7 4.5t8.5 1.5h362q5 0 8.5 -1.5t7 -4.5t4.5 -7l2 -8l-1 -235h1z" />
    <glyph glyph-name="uniE65E" unicode="&#xe65e;" 
d="M139 277q7 0 12.5 -2.5t10.5 -6.5t7 -10t3 -13q-1 -6 -3 -12t-7 -10.5t-10.5 -7t-12.5 -2.5q-6 0 -12.5 2.5t-10 7t-6.5 10.5t-2 12q-1 7 2 13t6.5 10t10 6.5t12.5 2.5v0zM246 277q6 0 12.5 -2.5t10 -6.5t6.5 -10t2 -13q1 -6 -2 -12t-6.5 -10.5t-10 -7t-12.5 -2.5
q-7 0 -12.5 2.5t-10.5 7t-7 10.5t-3 12q1 7 3 13t7 10t10.5 6.5t12.5 2.5v0zM352 277q8 0 13 -2.5t10 -6.5t7 -10t3 -13q-1 -6 -3 -12t-7 -10.5t-10 -7t-13 -2.5q-6 0 -12 2.5t-10 7t-7 10.5t-2 12q-1 7 2 13t7 10t10 6.5t12 2.5v0zM428 448h-364q-12 0 -24.5 -5
t-20.5 -13.5t-13.5 -20.5t-4.5 -25l-1 -256q1 -13 7.5 -21.5t17 -13t21 -6.5t19.5 -2l-1 -128l193 128h170q14 0 25 5t20.5 14t14 20.5t5.5 24.5l-1 235q1 13 -4.5 25t-14 20.5t-20.5 13.5t-24 5v0zM448 149q1 -4 -1 -8t-4.5 -7t-7 -4.5t-7.5 -1.5h-193l-127 -107l-1 107
h-42q-5 0 -8.5 1.5t-7 4.5t-4.5 7l-2 8l1 235q-1 4 1 8t4.5 7t7 4.5t7.5 1.5h364q3 0 7.5 -1.5t7 -4.5t4.5 -7t1 -8l1 -235h-1z" />
    <glyph glyph-name="uniE65F" unicode="&#xe65f;" 
d="M427 448h-363q-13 0 -25 -5t-20.5 -13.5t-13.5 -20.5t-5 -25v-256q0 -13 7 -21.5t17 -13t21 -6.5t19 -2v-128l192 128h171q13 0 24.5 5t20.5 14t14 20.5t5 24.5v235q0 13 -5 25t-14 20.5t-20.5 13.5t-24.5 5v0zM448 149q0 -4 -1.5 -8t-4.5 -7t-7 -4.5t-8 -1.5h-192
l-128 -107v107h-43q-4 0 -8 1.5t-7 4.5t-4.5 7t-1.5 8v235q0 4 1.5 8t4.5 7t7 4.5t8 1.5h363q4 0 8 -1.5t7 -4.5t4.5 -7t1.5 -8v-235v0zM85 341h256v-42h-256v42zM85 277h320v-21h-320v21zM85 235h320v-22h-320v22zM85 192h171v-21h-171v21z" />
    <glyph glyph-name="uniE660" unicode="&#xe660;" 
d="M427 384v85h-128v-85h-86v85h-128v-85h-85v-405h512v405h-85v0zM341 427h43v-86h-43v86v0zM128 427h43v-86h-43v86v0zM469 21h-426v235h426v-235v0zM469 277h-426v64h42v-42h128v42h86v-42h128v42h42v-64v0zM107 192h42v-43h-42v43zM171 192h42v-43h-42v43zM235 192h42
v-43h-42v43zM299 192h42v-43h-42v43zM363 192h42v-43h-42v43zM107 128h42v-43h-42v43zM171 128h42v-43h-42v43zM235 128h42v-43h-42v43z" />
    <glyph glyph-name="uniE661" unicode="&#xe661;" 
d="M64 469v-495l175 102l188 -110v503l-363 -1v1zM107 49v377l128 1v-308l-14 -6l-114 -65v1zM384 41l-119 71l-9 8v306l128 1v-387v1z" />
    <glyph glyph-name="uniE662" unicode="&#xe662;" 
d="M230 165l-17 -165l102 126l97 -44l100 345l-282 -262v0zM512 427l-512 -211l121 -24l92 -192l-66 192l365 235v0z" />
    <glyph glyph-name="uniE663" unicode="&#xe663;" 
d="M256 50l-1 -1l-170 218q-3 3 -6.5 7.5t-7 10t-5.5 13t-2 17.5q0 18 6.5 33.5t18.5 27t27.5 18t32.5 6.5q18 0 37 -6.5t34.5 -18t25.5 -27t10 -33.5v71q-9 13 -20.5 23.5t-25 18t-29 11.5t-32.5 4q-26 0 -49.5 -10t-41 -27.5t-27.5 -40.5t-10 -50q0 -16 3.5 -28.5t8 -21.5
t9 -16t6.5 -12l208 -252v65v0zM256 50l1 -1l170 218q3 3 6.5 7.5t7 10t5.5 13t2 17.5q0 18 -6.5 33.5t-18.5 27t-27.5 18t-32.5 6.5q-18 0 -37 -6.5t-34.5 -18t-25.5 -27t-10 -33.5v71q9 13 20.5 23.5t25 18t29 11.5t32.5 4q26 0 49.5 -10t41 -27.5t27.5 -40.5t10 -50
q0 -16 -3.5 -28.5t-8 -21.5t-9 -16t-6.5 -12l-208 -252v65v0z" />
    <glyph glyph-name="uniE664" unicode="&#xe664;" 
d="M260 223l-90 90l1 -57l-151 1l1 -65l149 1l1 -60l88 91zM192 448l-1 -71l44 -43l-1 72l173 -1l-131 -41l1 -257l-43 1l1 4l-44 -42l1 -6l84 1l1 -86l191 65l1 404h-277z" />
    <glyph glyph-name="uniE665" unicode="&#xe665;" 
d="M408 21q23 0 41.5 12t32 31t20.5 43.5t7 49.5q0 22 -8.5 42.5t-23 36.5t-34 26.5t-41.5 13.5l-10 26q-9 24 -23.5 43t-34 32.5t-42 20.5t-47.5 7q-32 0 -61 -12.5t-50.5 -34t-34 -51t-12.5 -62.5v-2.5v-3v-3v-2.5q-18 -2 -33.5 -10.5t-26.5 -21t-17.5 -29t-6.5 -34.5
q0 -17 6 -37t17.5 -37t27 -29t34.5 -15h320v0zM298 197v0q7 10 17 16t20.5 10t20.5 6.5t16 5.5v0h15q16 0 30 -6t25.5 -15.5t18 -23t6.5 -28.5t-5 -32t-13.5 -31.5t-21.5 -24.5t-28 -10h-309q-8 0 -16.5 8.5t-14.5 20.5t-10 26t-4 25q0 12 5 22t14 17t20.5 10t24.5 0l33 -8
l-8 33q-1 3 -2 6.5t-1.5 7l-1 7t-0.5 7.5q0 24 9.5 45.5t25 37t36.5 25t45 9.5q19 0 35.5 -5.5t30 -15t24.5 -23.5t17 -32q-16 -9 -26.5 -23.5t-17 -28.5t-9.5 -24l-3 -10z" />
    <glyph glyph-name="uniE666" unicode="&#xe666;" 
d="M212 270q-14 10 -29 20.5t-33.5 19t-39.5 15t-48 8.5l150 -63v0zM211 206q-12 10 -28 20.5t-33.5 19t-39.5 15t-47 8.5l148 -63v0zM148 182q-10 5 -19 8.5t-20 6.5t-22 5t-25 3l86 -23v0zM277 270l151 63q-27 -2 -48 -8.5t-39.5 -15t-33.5 -19t-30 -20.5v0zM278 206
l149 63q-25 -2 -47 -8.5t-39.5 -15t-33.5 -19t-29 -20.5v0zM427 205q-12 -1 -24 -3t-22 -5t-20.5 -6.5t-17.5 -8.5l84 23v0zM470 462q-36 0 -68.5 -7.5t-61.5 -19t-52 -25.5t-41 -27h-5q-17 13 -40 27t-52.5 25.5t-62 19t-68.5 7.5h-19l-1 -406h21q25 0 52 -4.5t50.5 -12
t44 -16.5t32.5 -19q5 -3 8 -6t7 -6t6.5 -6t6.5 -6l16 -15h3l16 15q4 3 7 6t7 6t7 6t8 6q12 10 32.5 19t44 16.5t50.5 12t51 4.5h22l-1 406h-20v0zM234 32q1 0 -0.5 1t-2.5 2t-2.5 1.5t-1.5 1.5q-15 10 -36 20t-46.5 18.5t-51.5 14t-51 7.5l1 320q31 -2 60 -10.5t52.5 -19.5
t42.5 -24t29 -24l7 -6v0l1 -302h-1zM447 98q-23 -2 -50 -7.5t-52 -14t-47 -18.5t-34 -20l-3 -1.5t-2.5 -1.5t-2 -2t-1.5 -1l1 302v0l7 6q10 11 29 24t42.5 24t52.5 19.5t60 10.5l1 -320h-1z" />
    <glyph glyph-name="uniE667" unicode="&#xe667;" 
d="M392 -32h-6t-6.5 1.5t-6.5 2.5t-6 3l-83 43q-5 4 -12.5 4.5t-15.5 1t-15.5 -1t-12.5 -3.5l-83 -45q-7 -3 -15 -5t-14.5 -0.5t-12.5 4t-11 8.5q-2 2 -4 6t-3.5 8t-1.5 11t1 13l16 93q1 5 0 13t-3.5 15t-6 14t-7.5 10l-67 66q-6 4 -9.5 10.5t-5.5 11.5t-2 11t2 11
q2 6 5.5 10.5t8.5 8.5t11 6t13 4l93 12q6 2 12.5 4.5t13 7.5t11.5 10t8 12l41 83q3 7 7.5 11.5t9 8.5t10 5.5t11.5 2.5q6 -1 11.5 -2.5t10 -5.5t9 -8.5t7.5 -12.5l41 -82q3 -7 8 -12t11.5 -10t13 -7.5t12.5 -4.5l93 -12q7 -3 13 -4.5t11 -5.5t8.5 -8.5t5.5 -10.5q2 -5 2 -11
t-2 -11t-5.5 -11.5t-9.5 -10.5l-67 -66q-4 -3 -7.5 -10t-6 -14t-3.5 -15t0 -13l16 -93q1 -6 1 -13t-1.5 -11t-3.5 -8t-4 -6q-3 -4 -6 -6t-6.5 -4t-7.5 -2t-8 -1v0zM256 67q7 -1 13.5 -1t12.5 -2t11.5 -3.5t10.5 -4.5l82 -43l-16 91q-2 12 -0.5 24t5.5 25t10 23.5t15 19.5
l66 63l-92 15q-11 0 -22.5 6t-22 13t-19 17t-13.5 19l-41 84l-41 -84q-5 -9 -13.5 -19t-19 -17t-22 -13t-22.5 -6l-92 -15l66 -63q9 -9 15 -19.5t10 -23.5t5.5 -25t-0.5 -24l-16 -91l82 43q5 3 10.5 4.5t11.5 3.5t12.5 2t13.5 1v0z" />
    <glyph glyph-name="uniE668" unicode="&#xe668;" 
d="M405 277v64q0 16 -8 35t-26 35t-46.5 26.5t-68.5 10.5t-68.5 -10.5t-46.5 -26.5t-26 -35t-8 -35v-64h-43v-234q0 -14 5 -25.5t13.5 -20t20.5 -13.5t25 -5h256q13 0 25 5t20.5 13.5t13.5 20t5 25.5v234h-43v0zM149 363l5 6.5t17 14.5t32.5 14.5t52.5 6.5t52.5 -6.5
t32.5 -14.5t17 -14.5l5 -6.5v-86h-214v86v0zM405 43q0 -5 -1.5 -9t-4.5 -6.5t-7 -4.5t-8 -2h-256q-4 0 -8 2t-7 4.5t-4.5 6.5t-1.5 9v192h298v-192v0zM235 113v-49h42v49q5 2 9 6t7 9t4.5 10t1.5 11q0 9 -3.5 17t-9.5 13.5t-13.5 9t-16.5 3.5t-16.5 -3.5t-13.5 -9
t-9.5 -13.5t-3.5 -17q0 -6 1.5 -11t4.5 -10t7 -9t9 -6v0z" />
    <glyph glyph-name="uniE669" unicode="&#xe669;" 
d="M405 469q-32 0 -52.5 -10.5t-32.5 -26.5t-16.5 -34.5t-4.5 -34.5v-107h-299v-235q0 -13 5 -24.5t13.5 -20.5t20.5 -14t25 -5h256q13 0 25 5t20.5 14t13.5 20.5t5 24.5v235h-43v128l1 6.5t7 14.5t19 15t37 7t37 -7t19 -15t7 -14.5l1 -6.5v-85h43v64q0 16 -4.5 34.5
t-16.5 34.5t-33 26.5t-53 10.5v0zM341 21q0 -4 -1.5 -8t-4.5 -7t-7 -4.5t-8 -1.5h-256q-4 0 -8 1.5t-7 4.5t-4.5 7t-1.5 8v192h298v-192v0zM171 91v-48h42v48q5 3 9 7t7 8.5t4.5 10t1.5 11.5q0 9 -3.5 16.5t-9.5 13.5t-13.5 9.5t-16.5 3.5t-16.5 -3.5t-13.5 -9.5t-9.5 -13.5
t-3.5 -16.5q0 -6 1.5 -11.5t4.5 -10t7 -8.5t9 -7v0z" />
    <glyph glyph-name="uniE66A" unicode="&#xe66a;" 
d="M235 91v-49l42 1v47q5 4 9 7.5t7 8.5t4.5 10t1.5 12q0 8 -3.5 16t-9.5 13.5t-13.5 9.5t-16.5 3q-9 1 -16.5 -3t-13.5 -9.5t-9.5 -13.5t-3.5 -16q0 -7 1.5 -12t4.5 -10t7 -8.5t9 -7.5v1zM405 256v84q0 17 -8 35.5t-26 35t-46.5 26.5t-68.5 11q-40 -1 -68.5 -11
t-46.5 -26.5t-26 -35t-8 -35.5v-148l42 -1v172q0 -1 5 6t17 14.5t32.5 14.5t52.5 6q32 1 52.5 -6t32.5 -14.5t17 -14.5t5 -6v-108l-171 1v-44l213 1v-193q0 -3 -1.5 -7.5t-4.5 -7t-7 -4.5t-8 -1l-256 -1l-8 2t-7 4.5t-4.5 7t-1.5 8.5v127l-43 1v-129q0 -12 5 -24t13.5 -20.5
t20.5 -14t25 -4.5l256 -1q13 1 25 5.5t20.5 14t13.5 20.5t5 25v234l-43 1v0z" />
    <glyph glyph-name="uniE66B" unicode="&#xe66b;" 
d="M320 163l-21.5 -2t-50.5 -12.5t-60 -34t-49 -66.5l14.5 -5.5t39 -11.5t57.5 -11t70 -5t70 5t57.5 11t39 11.5l14.5 5.5q-18 43 -49 66.5t-60 34t-50.5 12.5l-21.5 2v0zM320 179q19 0 34 9t26 26t16.5 41.5t5.5 55.5t-12.5 48t-28 24.5t-28.5 9l-13 1.5l-13 -1.5t-28.5 -9
t-28 -24.5t-12.5 -48t5.5 -55.5t16.5 -41.5t26 -26t34 -9v0zM160 236q6 0 11.5 1t11 3.5t10 6t8.5 8.5q-1 6 -2.5 12.5t-2 13.5t-1 14.5t-0.5 15.5q0 12 2 21.5t6 17.5t8.5 14t10.5 10q-6 14 -16.5 22t-20.5 11.5t-17.5 4l-7.5 0.5l-10.5 -1t-23.5 -7.5t-23.5 -20
t-10.5 -39.5q0 -25 5 -45.5t14 -34.5t21.5 -21t27.5 -7v0zM224 182l-2 27q-13 5 -24 7.5t-19.5 4t-13.5 1.5h-5l-17.5 -1.5t-42 -10.5t-49.5 -28t-40 -55l9 -3.5t25.5 -7.5t38.5 -8.5t47 -6.5q22 23 39.5 38.5t29.5 25t18 13.5l6 4v0z" />
    <glyph glyph-name="uniE66C" unicode="&#xe66c;" 
d="M256 149l-27.5 -2t-65.5 -16t-78 -44.5t-64 -86.5l19 -6.5t51 -14.5t74.5 -15t90.5 -7t90.5 7t74.5 15t51 14.5l19 6.5q-24 56 -64 86.5t-78 44.5t-65.5 16l-27.5 2v0zM256 171q24 0 43.5 11.5t33.5 33.5t22 53.5t8 71.5t-17 62t-37 32t-36.5 11.5l-16.5 1.5l-16.5 -1.5
t-36.5 -11.5t-37 -32t-17 -62t8 -71.5t22 -53.5t33.5 -33.5t43.5 -11.5v0z" />
    <glyph glyph-name="uniE66D" unicode="&#xe66d;" 
d="M503 44q-12 27 -30 48t-40 37.5t-44 27.5t-42 19q13 8 22 23t16 32t10 39t4 45q-1 33 -12.5 53.5t-29 33.5t-36 17.5t-33.5 5.5q-2 -1 -5 -0.5t-5 -0.5t-5 -1t-5 -1q-9 8 -17 12.5t-17.5 8t-18 4.5t-17.5 2q-14 -1 -32 -5.5t-32 -17t-24.5 -30.5t-9.5 -46
q-1 -20 2.5 -39.5t9 -34.5t14 -28t18.5 -21q-16 -6 -35.5 -13.5t-37.5 -21t-35 -32t-27 -46.5l-10 -20l22 -9q-1 1 4.5 -1t13.5 -4.5t20.5 -6t25.5 -6.5q-1 -3 -3 -5.5t-3 -6t-3 -5.5t-2 -6l-10 -20l22 -9q0 1 17 -5.5t44 -12.5t64 -12t77 -5q41 -1 77 5t64 12t44 12.5
t18 5.5l20 9l-8 20v0zM355 316q1 -28 -4 -49.5t-13.5 -37.5t-21.5 -24t-27 -9q-17 1 -29 9t-21 24t-13.5 37.5t-5.5 49.5q1 22 9.5 36t20.5 20t22.5 8t15.5 1q4 1 15.5 -1t22.5 -8t20.5 -20t8.5 -36v0zM199 405q0 1 2.5 0.5t4.5 -0.5t6 -1t6 -1l-15 -15t-13 -19t-8.5 -24
t-2.5 -30q-1 -8 -0.5 -17t1 -16.5t2.5 -15.5t3 -14q-11 3 -19.5 13.5t-13.5 23.5t-7.5 29.5t-1.5 31.5q-1 21 7 31.5t17 16.5t19 6.5t12 1.5zM199 191q-1 1 0.5 0.5t3 0t5 -0.5t6.5 0q4 -6 7.5 -9t8 -7t8 -6t9.5 -6q-14 -1 -28 -6t-30.5 -12t-32 -17.5t-30.5 -24.5
q-10 1 -20 3.5t-18 4t-16 4t-13 3.5q16 28 40 42t45 21.5t37 8.5t17 2zM289 21q-28 1 -53 3.5t-48 6.5t-41.5 8.5t-31.5 8.5q3 5 6 11.5t7.5 11.5t8 10t6.5 7q21 23 47 34t47 17.5t36 7t14 1.5q2 -1 4 -0.5t7.5 -0.5t12 -1.5t15.5 -3.5q13 -2 31 -11t35 -20.5t33.5 -28
t26.5 -34.5q-11 -4 -28.5 -8t-38.5 -8.5t-46 -7t-50 -3.5v0z" />
    <glyph glyph-name="uniE66E" unicode="&#xe66e;" 
d="M505 43q-13 32 -32 56t-40.5 41t-43.5 28.5t-42 18.5q9 12 15.5 27t11.5 32.5t7.5 37.5t2.5 42q1 38 -12.5 62t-33 38.5t-41 20.5t-37.5 6q-17 0 -38.5 -5.5t-41 -19.5t-33.5 -38t-14 -61q0 -23 2 -43t6.5 -37.5t11 -32.5t15.5 -28q-20 -6 -42.5 -17t-44 -28t-41 -40.5
t-33.5 -55.5l-9 -20l21 -8q1 -1 20.5 -8t51.5 -15t74.5 -15t90.5 -7q47 -1 89.5 5t75 14t52 14.5t20.5 7.5l21 8l-9 20v0zM259 410q3 0 16.5 -1.5t28.5 -10t26.5 -25t11.5 -46.5q-1 -24 -4 -45t-9 -38t-15 -30t-20 -21l-37 -25l-36 26q-11 8 -19.5 21t-14.5 30t-8.5 38
t-2.5 45q0 30 12 46.5t26.5 24.5t28 9.5t16.5 1.5v0zM256 16q-32 1 -62.5 4.5t-56 8.5t-46.5 11t-34 11q14 25 33 43.5t40 30.5t42.5 19.5t40.5 11.5l44 9l45 -10q19 -4 40 -11.5t41.5 -20.5t39.5 -31.5t33 -44.5q-14 -4 -34.5 -9.5t-46.5 -10.5t-56.5 -8t-62.5 -3v0z" />
    <glyph glyph-name="uniE66F" unicode="&#xe66f;" 
d="M165 107l262 -85v383l-262 -84l-80 -1q-13 1 -24.5 -4.5t-20.5 -13.5t-14 -20.5t-5 -24.5v-86q0 -13 5 -25t14 -20t20.5 -13.5t24.5 -4.5l9 -1v-0.5v0t0 -0.5v0q0 -6 0.5 -11.5t1.5 -12.5t2.5 -13.5t3.5 -14.5q1 -3 2.5 -7t3.5 -7t4 -7t4 -6q1 -2 2 -3.5t2 -3.5t2.5 -2.5
t2.5 -3.5q1 0 2.5 -2t2.5 -2.5t2.5 -2.5t2.5 -2q3 -3 5 -4t4.5 -3.5t4.5 -3t3 -2.5q2 0 3.5 -1t2.5 -1t1.5 -1t0.5 0v-1q2 0 3.5 -1t3 -1.5t3.5 -1t4 -0.5q7 -1 14 1.5t12 6t8.5 10.5t4.5 13q1 8 -1 14.5t-6.5 12.5t-10.5 9t-13 5q0 -1 -0.5 -0.5t-1 0t-1 0t-1.5 -0.5
q0 1 -1.5 0.5t-2.5 0.5t-2 0.5t-3 1.5q0 -1 -1 -0.5t-1.5 0.5t-1.5 0.5t-2 0.5q-1 1 -1.5 1t-1.5 1t-2 1t-1 2q-2 0 -4 1.5t-3.5 2.5t-3.5 3.5t-3 3.5q-3 4 -6 7.5t-5 8.5t-4 8.5t-4 8.5l41 -1v0zM363 348l21 6v-281l-21 6v269v0zM192 290l149 51v-256l-149 52v153v0z
M85 150q-4 -1 -8 1.5t-7 4.5t-4.5 6.5t-1.5 8.5v86q0 3 1.5 7.5t4.5 7t7 4.5t8 1l86 1v-129l-86 1v0zM448 277l21 1v-129l-21 1v127z" />
    <glyph glyph-name="uniE670" unicode="&#xe670;" 
d="M427 128q-10 0 -19 -2t-17 -6t-15 -9.5t-13 -11.5l-157 78q2 4 3.5 8.5t2 9l1 9t0.5 9.5t-0.5 10t-1 9.5t-2 9t-3.5 8.5l157 78q6 -7 13 -12t15 -9t17 -6t19 -2q17 0 32.5 6.5t27.5 18t18.5 27t6.5 33.5t-6.5 33.5t-18.5 27t-27.5 18t-32.5 6.5q-18 0 -33.5 -6.5t-27 -18
t-18.5 -27t-7 -33.5q0 -2 0.5 -4.5t0.5 -4.5t0.5 -4.5t0.5 -4.5l-159 -80v0v0v0v0q-7 8 -16 14t-18.5 10.5t-20.5 7t-22 2.5q-22 0 -41.5 -8.5t-34 -23t-23 -34t-8.5 -41.5t8.5 -41.5t23 -34t34 -22.5t41.5 -8q11 0 22 2t20.5 6.5t18.5 11t16 13.5v0v0v0v0l159 -79
q0 -3 -0.5 -5t-0.5 -4.5t-0.5 -4.5t-0.5 -4q0 -18 7 -33.5t18.5 -27t27 -18.5t33.5 -7q17 0 32.5 7t27.5 18.5t18.5 27t6.5 33.5q0 17 -6.5 32.5t-18.5 27.5t-27.5 18.5t-32.5 6.5v0zM427 427q8 0 16 -3.5t14 -9.5t9 -13.5t3 -16.5t-3 -16.5t-9 -13.5t-14 -9.5t-16 -3.5
q-9 0 -17 3.5t-13.5 9.5t-9 13.5t-3.5 16.5t3.5 16.5t9 13.5t13.5 9.5t17 3.5v0zM107 149q-14 0 -25.5 5t-20 14t-13.5 20.5t-5 24.5q0 14 5 25.5t13.5 20t20 13.5t25.5 5q13 0 24.5 -5t20.5 -13.5t14 -20t5 -25.5q0 -13 -5 -24.5t-14 -20.5t-20.5 -14t-24.5 -5v0zM427 0
q-9 0 -17 3.5t-13.5 9t-9 13.5t-3.5 17q0 8 3.5 16t9 14t13.5 9t17 3q8 0 16 -3t14 -9t9 -14t3 -16q0 -9 -3 -17t-9 -13.5t-14 -9t-16 -3.5v0z" />
    <glyph glyph-name="uniE671" unicode="&#xe671;" 
d="M0 427v-299h208l-37 -64h170l-37 64h208v299h-512v0zM469 171h-426v213h426v-213v0zM363 43h-214q-4 0 -8 -2t-7 -4.5t-4.5 -6.5t-1.5 -9q0 -4 1.5 -8t4.5 -7t7 -4.5t8 -1.5h214q4 0 8 1.5t7 4.5t4.5 7t1.5 8q0 5 -1.5 9t-4.5 6.5t-7 4.5t-8 2v0z" />
    <glyph glyph-name="uniE672" unicode="&#xe672;" 
d="M341 405h-171q-8 0 -16.5 -3t-13.5 -9t-9 -14t-3 -16l-1 -299q1 -9 4 -16.5t9 -13.5t13.5 -9.5t17.5 -3.5h169q10 0 17.5 3.5t13.5 9.5t9 13.5t4 16.5l-1 299q1 8 -3 16t-9 14t-13.5 9t-16.5 3v0zM276 43h-41l-1 42h43l-1 -42v0zM341 107h-171l1 256h169l1 -256v0z" />
    <glyph glyph-name="uniE673" unicode="&#xe673;" 
d="M448 277h-149v-42h149v-171h-149q0 -9 -3.5 -16.5t-7.5 -13.5t-7.5 -9.5l-3.5 -3.5h171q9 0 16.5 3.5t13.5 9.5t9.5 13.5t3.5 16.5v171q0 8 -3.5 16t-9.5 14t-13.5 9t-16.5 3v0zM213 405h-170q-9 0 -17 -3t-13.5 -9t-9 -14t-3.5 -16v-299q0 -9 3.5 -16.5t9 -13.5
t13.5 -9.5t17 -3.5h170q9 0 17 3.5t13.5 9.5t9 13.5t3.5 16.5v299q0 8 -3.5 16t-9 14t-13.5 9t-17 3v0zM149 43h-42v42h42v-42v0zM213 107h-170v256h170v-256v0z" />
    <glyph glyph-name="uniE674" unicode="&#xe674;" 
d="M85 128h64v64h-64v-64v0zM107 171h21v-22h-21v22v0zM171 128h64v64h-64v-64v0zM192 171h21v-22h-21v22v0zM171 43h64v64h-64v-64v0zM192 85h21v-21h-21v21v0zM85 43h64v64h-64v-64v0zM107 85h21v-21h-21v21v0zM256 128h64v64h-64v-64v0zM277 171h22v-22h-22v22v0z
M213 256h22v21h-22v-21v0zM171 256h21v21h-21v-21v0zM85 213h342v192h-342v-192v0zM107 384h298v-149h-298v149v0zM427 469h-342q-13 0 -24.5 -5t-20.5 -13.5t-14 -20t-5 -25.5v-384q0 -13 5 -24.5t14 -20.5t20.5 -14t24.5 -5h342q13 0 24.5 5t20.5 14t14 20.5t5 24.5v384
q0 14 -5 25.5t-14 20t-20.5 13.5t-24.5 5v0zM448 21q0 -4 -1.5 -8t-4.5 -7t-7 -4.5t-8 -1.5h-342q-4 0 -8 1.5t-7 4.5t-4.5 7t-1.5 8v384q0 5 1.5 9t4.5 6.5t7 4.5t8 2h342q4 0 8 -2t7 -4.5t4.5 -6.5t1.5 -9v-384v0zM256 43h64v64h-64v-64v0zM277 85h22v-21h-22v21v0z
M341 43h86v149h-86v-149v0zM363 171h42v-107h-42v107v0zM128 256h21v21h-21v-21v0z" />
    <glyph glyph-name="uniE675" unicode="&#xe675;" 
d="M384 320v64l-64 64h-128l-64 -64v-64h-64v-363h384v363h-64v0zM192 405h128l21 -21h-170l21 21v0zM341 363v-43h-21v43h21v0zM299 363v-43h-86v43h86v0zM171 363h21v-43h-21v43v0zM405 0h-298v277h298v-277v0z" />
    <glyph glyph-name="uniE676" unicode="&#xe676;" 
d="M371 427h-231l-140 -139l255 -289l257 289l-142 139h1zM461 277l-2 1h-189l91 98l100 -99v0zM221 98l-149 159h98l-9 -5l60 -154v0zM182 257h147l-73 -185l-75 185h1zM341 257h98l-149 -159l60 154l-9 5v0zM255 294l-82 91h165l-82 -91h-1zM149 376l93 -98h-191v0l98 98
v0z" />
    <glyph glyph-name="uniE677" unicode="&#xe677;" 
d="M149 85q0 -4 2 -8t4.5 -7t6.5 -4.5t9 -1.5q4 0 8 1.5t7 4.5t4.5 7t1.5 8q0 5 -1.5 9t-4.5 6.5t-7 4.5t-8 2q-5 0 -9 -2t-6.5 -4.5t-4.5 -6.5t-2 -9v0zM213 85q0 -4 2 -8t4.5 -7t6.5 -4.5t9 -1.5q4 0 8 1.5t7 4.5t4.5 7t1.5 8q0 5 -1.5 9t-4.5 6.5t-7 4.5t-8 2q-5 0 -9 -2
t-6.5 -4.5t-4.5 -6.5t-2 -9v0zM277 85q0 -4 2 -8t4.5 -7t6.5 -4.5t9 -1.5q4 0 8 1.5t7 4.5t4.5 7t1.5 8q0 5 -1.5 9t-4.5 6.5t-7 4.5t-8 2q-5 0 -9 -2t-6.5 -4.5t-4.5 -6.5t-2 -9v0zM128 139q0 -3 1 -4.5t2.5 -3t3 -2.5t4.5 -1q2 0 4 1t3.5 2.5t2 3t0.5 4.5q0 2 -0.5 4
t-2 3.5t-3.5 2t-4 0.5q-3 0 -4.5 -0.5t-3 -2t-2.5 -3.5t-1 -4v0zM171 139q0 -3 0.5 -4.5t2 -3t3.5 -2.5t4 -1q3 0 4.5 1t3 2.5t2.5 3t1 4.5q0 2 -1 4t-2.5 3.5t-3 2t-4.5 0.5q-2 0 -4 -0.5t-3.5 -2t-2 -3.5t-0.5 -4v0zM213 139q0 -3 1 -4.5t2.5 -3t3.5 -2.5t4 -1t4 1
t3.5 2.5t2.5 3t1 4.5q0 2 -1 4t-2.5 3.5t-3.5 2t-4 0.5t-4 -0.5t-3.5 -2t-2.5 -3.5t-1 -4v0zM256 139q0 -3 1 -4.5t2.5 -3t3 -2.5t4.5 -1q2 0 4 1t3.5 2.5t2 3t0.5 4.5q0 2 -0.5 4t-2 3.5t-3.5 2t-4 0.5q-3 0 -4.5 -0.5t-3 -2t-2.5 -3.5t-1 -4v0zM299 139q0 -3 0.5 -4.5
t2 -3t3.5 -2.5t4 -1q3 0 4.5 1t3 2.5t2.5 3t1 4.5q0 2 -1 4t-2.5 3.5t-3 2t-4.5 0.5q-2 0 -4 -0.5t-3.5 -2t-2 -3.5t-0.5 -4v0zM320 181q0 -2 1 -4t2.5 -3.5t3 -2t4.5 -0.5q2 0 4 0.5t3.5 2t2 3.5t0.5 4q0 3 -0.5 4.5t-2 3t-3.5 2.5t-4 1q-3 0 -4.5 -1t-3 -2.5t-2.5 -3
t-1 -4.5v0zM277 181q0 -2 1 -4t2.5 -3.5t3.5 -2t4 -0.5t4 0.5t3.5 2t2.5 3.5t1 4q0 3 -1 4.5t-2.5 3t-3.5 2.5t-4 1t-4 -1t-3.5 -2.5t-2.5 -3t-1 -4.5v0zM235 181q0 -2 0.5 -4t2 -3.5t3.5 -2t4 -0.5q3 0 4.5 0.5t3 2t2.5 3.5t1 4q0 3 -1 4.5t-2.5 3t-3 2.5t-4.5 1
q-2 0 -4 -1t-3.5 -2.5t-2 -3t-0.5 -4.5v0zM192 181q0 -2 1 -4t2.5 -3.5t3 -2t4.5 -0.5q2 0 4 0.5t3.5 2t2 3.5t0.5 4q0 3 -0.5 4.5t-2 3t-3.5 2.5t-4 1q-3 0 -4.5 -1t-3 -2.5t-2.5 -3t-1 -4.5v0zM149 181q0 -2 1 -4t2.5 -3.5t3.5 -2t4 -0.5t4 0.5t3.5 2t2.5 3.5t1 4
q0 3 -1 4.5t-2.5 3t-3.5 2.5t-4 1t-4 -1t-3.5 -2.5t-2.5 -3t-1 -4.5v0zM107 181q0 -2 0.5 -4t2 -3.5t3.5 -2t4 -0.5q3 0 4.5 0.5t3 2t2.5 3.5t1 4q0 3 -1 4.5t-2.5 3t-3 2.5t-4.5 1q-2 0 -4 -1t-3.5 -2.5t-2 -3t-0.5 -4.5v0zM418 333l19 39l-150 78l-52 -130h-171v-320h43
v-43h213v43h64v320h-107l35 70l106 -57v0zM299 0h-150v21h150v-21v0zM341 277v-234h-234v21q4 0 8 1.5t7 4.5t4.5 7t1.5 8q0 5 -1.5 9t-4.5 6.5t-7 4.5t-8 2v170h234v0z" />
    <glyph glyph-name="uniE678" unicode="&#xe678;" 
d="M21 405v-363l192 1v-44l278 1v404l-470 1v0zM235 84l-171 1v21l171 1v-23v0zM448 43l-192 -1v22l192 -1v-20v0zM448 340l-21 1v-22l21 1v-236l-192 1v127l-21 1v-86l-171 1v107q6 1 16 2.5t19 6.5t16 12.5t7 21.5l-58 -40v125l384 -1v-21v-1zM442 234l-64 44
q0 -17 10 -25t22 -12.5t22 -5t10 -1.5v0zM405 341l-21 -1v-20l21 -1v22v0zM363 340l-22 1v-22l22 1v20v0zM320 341l-21 -1v-20l21 -1v22v0zM277 340l-21 1v-22l21 1v20v0zM235 341l-22 -1v-20l22 -1v22v0zM192 340l-21 1v-22l21 1v20v0zM149 341l-21 -1v-20l21 -1v22v0z
M107 340l-22 1v-22l22 1v20v0z" />
    <glyph glyph-name="uniE679" unicode="&#xe679;" 
d="M235 299h-149l-1 -171h151l-1 171v0zM214 160q-1 7 -4.5 12.5t-11.5 10t-17 7t-21 2.5q-10 0 -20 -2.5t-17 -7t-11.5 -10t-3.5 -12.5l-1 117h107l-1 -117h1zM129 224q-1 -7 2 -12.5t7 -10t10 -7t12 -2.5q8 0 13 2.5t10 7t7 10t3 12.5q-1 7 -3 12.5t-7 10t-10 7t-13 2.5
q-6 0 -12 -2.5t-10 -7t-7 -10t-2 -12.5v0zM468 384h-426q-10 0 -17 -3t-13 -8.5t-8.5 -13t-3.5 -16.5l1 -256q-1 -9 2.5 -17t8.5 -14t13 -9.5t16 -3.5h428q8 0 16.5 3.5t14 9.5t9.5 14t3 17l1 256q-1 9 -4 16.5t-9.5 13t-14 8.5t-17.5 3v0zM470 85h-427l1 256h425l1 -256v0z
M277 299h151l-1 -43h-149zM277 235h151l-1 -22h-149zM277 192h151l-1 -21h-149zM277 149h65l-1 -21h-63zM363 149h22l-1 -21h-20z" />
    <glyph glyph-name="uniE67A" unicode="&#xe67a;" 
d="M512 213l-57 65l8 87l-84 18l-44 76l-79 -35l-79 35l-44 -76l-84 -18l8 -87l-57 -65l57 -66l-8 -85l84 -21l44 -73l79 33l79 -33l44 73l84 21l-8 85l57 66v0zM352 78l-34 -57l-62 26l-62 -26l-34 57l-66 16l6 67l-45 52l45 51l-6 68l66 14l34 60l62 -28l62 28l34 -60
l66 -14l-6 -68l45 -51l-45 -52l6 -67l-66 -16v0zM256 349q-28 -1 -52.5 -11t-43 -29t-29 -43.5t-10.5 -53.5q0 -27 10.5 -52t29 -43t43 -29.5t52.5 -10.5q28 -1 52.5 10.5t43 29.5t29 43t10.5 52q0 29 -10.5 53.5t-29 43.5t-43 29t-52.5 11v0zM256 97q-24 1 -44.5 9.5
t-36 25t-24.5 37t-9 44.5q0 23 9 44.5t24.5 36.5t36 24.5t44.5 8.5q24 1 44.5 -8.5t36 -24.5t24.5 -36.5t9 -44.5q0 -24 -9 -44.5t-24.5 -37t-36 -25t-44.5 -9.5v0z" />
    <glyph glyph-name="uniE67B" unicode="&#xe67b;" 
d="M427 299v64h-427v-256h64v-64h427v256h-64v0zM64 149h-21v171h341v-21h-320v-150v0zM448 85h-341v171h341v-171v0zM128 235v-128h299v128h-299v0zM149 128v85h70q-1 -2 -2 -4.5l-2 -5t-1.5 -5.5t-0.5 -6v-43q0 -3 0.5 -5.5t1.5 -5.5t2 -5.5t2 -4.5h-70v0zM320 160
q0 -7 -2.5 -12.5t-7 -10t-10 -7t-12.5 -2.5h-21q-7 0 -13 2.5t-10 7t-6.5 10t-2.5 12.5v21q0 7 2.5 13t6.5 10t10 6.5t13 2.5h21q7 0 12.5 -2.5t10 -6.5t7 -10t2.5 -13v-21v0zM405 128h-70q2 2 3 4.5t2 5.5t1 5.5v5.5v43v6t-1 5.5l-2 5t-3 4.5h70v-85v0z" />
    <glyph glyph-name="uniE67C" unicode="&#xe67c;" 
d="M454 320l-36 107h-55v21h-128v-21h-146l-36 -107h32l43 -363h251l43 363h32v0zM120 384h157v21h43v-21h68l7 -21h-282l7 21v0zM136 256h235l-12 -107h-211l-12 107v0zM166 0l-15 128h205l-15 -128h-175v0zM374 277h-241l-5 43h251l-5 -43v0z" />
    <glyph glyph-name="uniE67D" unicode="&#xe67d;" 
d="M389 384h-67l-35 43h-30l-1 21h-20l-1 -21h-22l-29 -43h-93q-14 0 -26 -3.5t-22 -10.5t-15.5 -17t-6.5 -24l1 -256q-1 -13 6.5 -26t17 -23.5t21 -17t18.5 -6.5l1 -43h63l1 43h170l1 -43h63l1 43q15 0 27.5 6.5t20 17t12 23.5t3.5 26l1 256q-1 14 -5 24t-12 17t-18.5 10.5
t-24.5 3.5v0zM225 405h52l18 -21h-86l16 21v0zM405 73q1 -4 -0.5 -9.5t-3 -10t-5 -7.5t-6.5 -3h-300q-3 0 -8.5 3t-8.5 7.5t-6 10t-2 9.5l-1 256q1 5 3 7.5t6 3.5t8.5 1h9.5h298h7.5t5 -1t3 -3.5l1.5 -7.5l-1 -256v0zM86 128h298l1 171h-300l1 -171v0zM107 277h257l-1 -128
h-255l-1 128v0zM214 64h42l1 43h-44l1 -43v0z" />
    <glyph glyph-name="uniE67E" unicode="&#xe67e;" 
d="M128 128h256v128h-256v-128v0zM149 235h214v-86h-214v86v0zM128 299h256v-22h-256v22zM128 107h107v-22h-107v22zM128 64h64v-21h-64v21zM214 63h21v-22h-21v22zM277 107h107v-22h-107v22zM277 64h107v-21h-107v21zM427 384v20q0 9 -4.5 17t-13 14t-23 9.5t-33.5 3.5
h-256q-13 0 -23.5 -5t-17 -14t-10 -21t-3.5 -25v-363q0 -13 3.5 -24.5t10 -20t17 -13.5t23.5 -5h298h21h13.5h15h24.5v427h-42v0zM427 0h-330q-5 0 -7 1.5t-3 4t-1.5 6.5t-0.5 8v363q0 4 0.5 8t1.5 7.5t3 5t7 1.5h287v-21h-256v-43h299v-341v0z" />
    <glyph glyph-name="uniE67F" unicode="&#xe67f;" 
d="M448 341v64h-448v-320h64v-64h448v320h-64v0zM64 128h-21v235h362v-22h-341v-213v0zM469 64h-362v235h362v-235v0z" />
    <glyph glyph-name="uniE680" unicode="&#xe680;" 
d="M418 360l30 -30l31 30l-76 76l-30 -30l30 -30l-45 -46l-91 91l-30 -30l30 -31l-226 -226l52 -52l-60 -91l92 59l52 -52l226 227l30 -31l30 31l-90 90l45 45v0zM373 255l-45 -45l-46 45l-15 -15l46 -46l-31 -30l-45 46l-15 -16l45 -45l-30 -30l-45 45l-15 -15l45 -45
l-45 -45l-76 75l196 196l76 -75v0z" />
    <glyph glyph-name="uniE681" unicode="&#xe681;" 
d="M443 401q-48 7 -96.5 10.5t-96.5 3.5t-96.5 -3.5t-96.5 -10.5q-13 -2 -23.5 -8.5t-18 -16t-11.5 -21.5t-4 -24v-235q0 -13 3.5 -24.5t10.5 -21.5t16.5 -16.5t22.5 -7.5q24 -4 48 -6.5t47.5 -4.5t47.5 -2.5t48 -0.5q25 0 50.5 0.5t51 2.5t50.5 4.5t50 6.5q12 1 24 7.5
t21.5 16.5t15 21.5t5.5 24.5v235q0 12 -6 24t-15.5 21.5t-22 16t-25.5 8.5v0zM43 331q0 5 0.5 9.5t2.5 8.5t5 6.5t8 3.5q21 3 42 5.5t41.5 4t41.5 2.5t42 1l-84 -148h-99v107v0zM469 96q0 -5 -3 -9.5t-8 -8.5t-10.5 -7t-10.5 -3q-46 -7 -93 -10.5t-94 -3.5t-93.5 3.5
t-93.5 10.5q-5 0 -8.5 3t-6.5 7t-4 8.5t-1 9.5v85h125l37 59l19 -153l109 94h136v-85v0zM469 224h-151l-61 -60l-23 208h2.5h2.5h2.5h2.5q24 0 48.5 -0.5t49.5 -2.5t49.5 -4.5t47.5 -5.5q5 -1 10.5 -3.5t9.5 -6.5t7 -8.5t3 -9.5v-107v0zM341 320h22v-21h-22v21zM384 320h21
v-21h-21v21z" />
    <glyph glyph-name="uniE682" unicode="&#xe682;" 
d="M354 222l-92 20l43 199l-147 -220l74 -16l-47 -219l169 236v0z" />
    <glyph glyph-name="uniE683" unicode="&#xe683;" 
d="M437 394q-19 19 -42.5 28.5t-48 9.5t-48 -9.5t-42.5 -28.5l-181 -181q-19 -18 -28 -42t-9 -48.5t9 -48t28 -42.5q19 -18 42.5 -27.5t48 -9.5t48 9.5t42.5 27.5l181 181q19 19 28 42.5t9 48t-9 48.5t-28 42v0zM407 364q12 -12 18.5 -28t6.5 -32.5t-6.5 -32t-18.5 -28.5
l-91 -90l-120 121l90 90q13 13 28.5 19t32 6t32 -6t28.5 -19v0z" />
    <glyph glyph-name="uniE684" unicode="&#xe684;" 
d="M466 154q-1 0 -1.5 0.5t-1.5 1t-1.5 0.5t-1.5 1l-4 2l-87 61l26 19q9 -4 19 -2.5t19.5 5t17.5 8.5t13 8q13 8 21.5 20.5t11.5 26t0.5 28.5t-10.5 28q-7 12 -18 20t-23.5 11.5t-26 3t-25.5 -6.5l-1 1q-7 11 -17.5 18t-22.5 10t-24.5 1t-23.5 -9q-7 -5 -13 -13.5t-9 -20
t-2.5 -25.5t6.5 -29l-31 -22l-34 24q5 15 5 29t-3 25t-9.5 19.5t-13.5 13.5q-12 6 -24.5 8t-24.5 -1.5t-22 -10.5t-17 -19v-1q-13 6 -26.5 6t-26 -4t-23 -12.5t-17.5 -20.5q-8 -13 -10 -27.5t2 -28.5t12.5 -26t21.5 -20q6 -3 14 -7.5t17.5 -8t19.5 -4t19 3.5l30 -21l-89 -66
l-4 -3q0 -1 -1 -1t-1.5 -0.5l-1 -1t-1.5 -0.5q-13 -8 -21.5 -20.5t-11.5 -26.5t-0.5 -28.5t10.5 -27.5t20 -21.5t26 -11.5t29 -1t28 11q6 4 11.5 8.5t9.5 10.5t7 12.5t4 13.5l99 74l97 -68q2 -7 5 -13.5t7.5 -12t9.5 -10.5t12 -9q13 -8 27.5 -9.5t28.5 2t26 12t20 22.5
q8 13 10 27.5t-2 28.5t-12.5 26t-21.5 20v0zM295 272l49 36l-12 18q-6 10 -7.5 18t-1.5 14.5t1.5 10.5t3.5 5q3 2 7.5 2.5t8.5 0t7.5 -3t5.5 -6.5l23 -36l27 17q6 4 12 5t12 -0.5t11.5 -5t8.5 -9.5q4 -6 5 -12t-0.5 -12t-5 -11.5t-9.5 -8.5q-6 -4 -10.5 -6.5t-8 -4.5
t-6 -2.5t-4.5 -1.5l-9 16l-76 -55l-40 26l8 6v0zM198 146l-77 -56l-1 -11q-1 -4 -2 -7.5t-3 -6.5t-4.5 -5.5t-5.5 -4.5q-6 -4 -12 -5t-12 0.5t-11.5 5t-8.5 9.5q-4 5 -5 11.5t0.5 12.5t5 11t9.5 9q1 0 1.5 0.5l1 1t1.5 0.5t2 1l21 14l95 70l39 -25l-34 -25v0zM455 73
q-3 -5 -8 -9t-11 -5.5t-12.5 -0.5t-12.5 4q-3 2 -5.5 4.5t-4.5 5.5t-3 6.5t-2 7.5l-1 11l-289 196l-9 -16q-1 0 -3.5 1t-6 2.5t-8.5 4t-11 6.5q-6 3 -9.5 8t-5 11t-1 12.5t4.5 12.5q3 5 8 9t11 5.5t12.5 0.5t12.5 -4l49 20q2 4 5.5 6.5t7.5 3.5t8 0.5t8 -2.5q1 -1 3 -5
t2.5 -10t-1.5 -14.5t-7 -18.5l-11 -18l251 -175l22 -13q1 0 1.5 -0.5t1.5 -1t1.5 -0.5t1.5 -1q6 -3 9.5 -8t5 -11t1 -12.5t-4.5 -12.5v0z" />
    <glyph glyph-name="uniE685" unicode="&#xe685;" 
d="M448 112l-23.5 23.5t-51.5 53t-51 56t-23 32.5v22h42v128h-192v-128h43v-22q0 -6 -23.5 -32.5t-51.5 -56t-51 -53l-23 -23.5q-11 -12 -15.5 -22.5t-5.5 -19.5t0.5 -15.5t3.5 -11.5q1 -4 5.5 -11.5t10 -14.5t11 -12t10.5 -5h364q5 0 11 5t11.5 12t9.5 14.5t6 11.5
q2 5 3.5 11.5t0.5 15.5t-6 19.5t-15 22.5v0zM426 60l-2 -4t-2.5 -4.5t-3 -4.5t-3.5 -4h-340q-1 2 -2.5 4t-3 4.5t-3 4.5t-1.5 4q-1 3 -0.5 6t2 6t3.5 6t4 5q60 60 92.5 95.5t47.5 55t18 28t3 15.5v64h-43v43h107v-43h-43v-64q0 -7 2.5 -15.5t18 -28t48 -55t92.5 -95.5
q2 -2 4 -5t3.5 -6t2 -6t-0.5 -6v0zM256 213h-21l-128 -128v-21h277v21l-128 128v0zM213 149l22 43h21l21 -43h-64v0z" />
    <glyph glyph-name="uniE686" unicode="&#xe686;" 
d="M43 469v-512h426v512h-426v0zM427 0h-342v427h342v-427v0zM405 384h-64v21h-170v-21h-64v-363h298v363v0zM192 384h128v-21h-128v21v0zM384 43h-256v320h43v-22h170v22h43v-320v0zM149 277h192v43h-192v-43v0zM149 235h192v21h-192v-21v0zM149 192h192v21h-192v-21v0z
M149 149h192v22h-192v-22v0zM149 107h86v21h-86v-21v0z" />
    <glyph glyph-name="uniE687" unicode="&#xe687;" 
d="M341 299v-192h21v192h-21v0zM128 427v-86h-86v-298h86v-22q0 -4 1.5 -8t5 -7t7.5 -4.5t8 -1.5h298v427h-320v0zM149 128h-21v128h21v-128v0zM405 85h-21v-21h21v-21h-235v21h22v21h-22v192h-64v-170h43v-22h-64v214h85v21h235v-235v0zM405 341h-235v43h235v-43v0zM362 64
h-21v21h21v-21v0zM320 64h-22v21h22v-21v0zM277 64h-21v21h21v-21v0zM234 64h-21v21h21v-21v0zM298 299v-192h22v192h-22v0z" />
    <glyph glyph-name="uniE688" unicode="&#xe688;" 
d="M448 320v43h-300l-25 70q-1 4 -4 7.5t-7 5t-8 2t-8 -1.5q-4 -1 -7.5 -4t-5 -7t-2 -8.5t1.5 -8.5l19 -55h-59v-43h-43v-192h64v-170h363v170h64v192h-43v0zM64 150h-43v149h22v-64h21v-85v0zM384 0h-277v128h66q1 -8 4 -12t7 -6t9 -2.5t10 -0.5h85q5 0 10 0.5t9 2.5t6.5 6
t4.5 12h66v-128v0zM192 139v0q0 2 1 4t2.5 3.5t3 2t4.5 0.5h85q2 0 4 -0.5t3.5 -2t2.5 -3.5t1 -4v0q0 -3 -1 -4.5t-2.5 -3t-3.5 -2.5t-4 -1h-85q-3 0 -4.5 1t-3 2.5t-2.5 3t-1 4.5v0zM384 150h-66q-2 8 -4.5 12t-6.5 6t-9 2.5t-10 0.5h-85q-5 0 -10 -0.5t-9 -2.5t-7 -6
t-4 -12h-66v106h277v-106v0zM405 278h-320v42h320v-42v0zM469 150h-42v85h21v64h21v-149v0z" />
    <glyph glyph-name="uniE689" unicode="&#xe689;" 
d="M405 448h-320v-448h171v149h149v299v0zM235 43h-107v106h107v-106v0zM235 171h-107v106h107v-106v0zM235 299h-107v106h107v-106v0zM363 171h-107v106h107v-106v0zM363 299h-107v106h107v-106v0zM299 104l43 -130l16 69h67l-126 61v0z" />
    <glyph glyph-name="uniE68A" unicode="&#xe68a;" 
d="M491 0h-43v21h-21v-21h-43v21h-21v-21h-43v21h-21v-21h-43v21h-21v-21h-43v21h-21v-21h-94l112 68l56 162l83 -145l160 267l-37 22l-123 -205l-93 164l-81 -237l-111 -67v440h-43v-512h512v64h-21v-21zM491 469h21v-21h-21v21zM427 469h21v-21h-21v21zM363 469h21v-21
h-21v21zM299 469h21v-21h-21v21zM235 469h21v-21h-21v21zM171 469h21v-21h-21v21zM107 469h21v-21h-21v21zM43 469h21v-21h-21v21zM491 405h21v-21h-21v21zM427 405h21v-21h-21v21zM363 405h21v-21h-21v21zM299 405h21v-21h-21v21zM235 405h21v-21h-21v21zM171 405h21v-21
h-21v21zM107 405h21v-21h-21v21zM43 405h21v-21h-21v21zM491 341h21v-21h-21v21zM363 341h21v-21h-21v21zM299 341h21v-21h-21v21zM171 341h21v-21h-21v21zM107 341h21v-21h-21v21zM43 341h21v-21h-21v21zM491 277h21v-21h-21v21zM299 277h21v-21h-21v21zM171 277h21v-21
h-21v21zM107 277h21v-21h-21v21zM43 277h21v-21h-21v21zM491 213h21v-21h-21v21zM427 213h21v-21h-21v21zM107 213h21v-21h-21v21zM43 213h21v-21h-21v21zM491 149h21v-21h-21v21zM427 149h21v-21h-21v21zM235 149h21v-21h-21v21zM107 149h21v-21h-21v21zM43 149h21v-21h-21
v21zM491 85h21v-21h-21v21zM427 85h21v-21h-21v21zM363 85h21v-21h-21v21zM235 85h21v-21h-21v21zM43 85h21v-21h-21v21z" />
    <glyph glyph-name="uniE68B" unicode="&#xe68b;" 
d="M405 192v171h-170v85h-128v-85h-86v-128h86v-171h170v-85h128v85h86v128h-86v0zM213 320h150v-149h-43v106h-107v43v0zM277 235v-43h-42v43h42v0zM128 277h-64v43h64v-43v0zM363 21h-43v64h43v-64v0zM448 107h-299v298h43v-256h256v-42v0z" />
    <glyph glyph-name="uniE68C" unicode="&#xe68c;" 
d="M467 396q-22 22 -49 32.5t-55.5 11.5t-56 -9t-50.5 -30q-23 20 -50.5 30t-56 9t-55.5 -11.5t-49 -32.5q-22 -21 -33.5 -49.5t-11.5 -57.5t11.5 -57.5t33.5 -49.5q6 -7 34.5 -35t60 -59.5t57 -56t25.5 -25.5q7 -6 16 -10t18 -3.5t18 3.5t16 11q0 -1 27.5 26.5t60.5 60
t60.5 60t28.5 27.5q23 23 34 50.5t11 57.5t-11 57.5t-34 50.5v-1zM444 204l-177 -174q-2 -4 -5 -4.5l-6 -1t-6 1t-5 3.5l-177 176q-18 16 -27 38.5t-9 45t9 45.5t27 39q17 18 38.5 26.5t44 9t44 -7.5t39.5 -23l22 -21l22 21q18 15 39.5 23t44 7.5t44 -9t38.5 -26.5
q18 -16 27 -39t9 -45.5t-9 -45t-27 -38.5v-1zM148 360q2 1 3.5 0t2.5 -1.5t1.5 -2.5t0.5 -3q0 -3 -0.5 -4t-1.5 -2.5t-2.5 -1.5t-3.5 -1v1q-11 -1 -20.5 -4.5t-16.5 -11t-11 -16.5t-4 -21v1q0 -3 -0.5 -4t-1.5 -2.5t-2.5 -1.5t-3.5 -1q-2 1 -3.5 1t-2.5 1.5t-1.5 2.5t-0.5 4
v-1q0 15 5.5 27t14.5 21.5t21.5 14.5t26.5 6q0 -1 0 -0.5v0v0t0 -0.5v0z" />
    <glyph glyph-name="uniE68D" unicode="&#xe68d;" 
d="M415 270q-3 27 -15 51t-31 41.5t-44 27.5t-53 10q-22 0 -41.5 -6t-36.5 -17t-30.5 -26.5t-21.5 -34.5q-3 1 -5.5 1.5t-5.5 1t-5.5 1t-5.5 0.5q-15 0 -28 -5.5t-23 -15.5t-15.5 -23t-5.5 -28q0 -3 0.5 -6t1 -5.5t1 -5.5t1.5 -5q-12 -7 -21.5 -16.5t-16 -21t-10.5 -25
t-4 -27.5q0 -22 8 -40.5t22.5 -33t33 -22.5t40.5 -8v0h288q25 0 47 9.5t38 25.5t25.5 38t9.5 47q0 22 -7.5 41.5t-20.5 35t-31 26.5t-38 15v0zM392 64v0h-288q-15 0 -28 5.5t-23 15.5t-15.5 23t-5.5 28q0 10 2.5 19t7 17t11.5 14.5t15 11.5t12.5 8t6 7t0.5 9t-5 14
q0 1 -0.5 3t-1 3.5t-0.5 3v2.5q0 8 3 15.5t8.5 13t13 8.5t15.5 3h2h5t6.5 -1t8.5 -3q7 -2 11 -2.5t7 2t5 7.5t6 12q7 15 17.5 27t23.5 20.5t28.5 13t31.5 4.5q22 0 41 -7.5t34 -21.5t24.5 -32.5t11.5 -39.5l1.5 -13.5t3 -7.5t7.5 -4.5t14 -3.5q15 -3 28 -11t22.5 -19.5
t15 -25.5t5.5 -30q0 -18 -7 -34t-19 -28t-28 -19t-34 -7v0z" />
    <glyph glyph-name="uniE68E" unicode="&#xe68e;" 
d="M510 279q-2 5 -4.5 9t-6.5 7t-8.5 5.5t-9.5 2.5l-134 20l-58 120q-2 5 -5.5 9t-8 6.5t-9.5 4t-10 1.5t-10 -1.5t-9.5 -4t-8 -6.5t-5.5 -9l-58 -120l-134 -20q-5 0 -9.5 -2.5t-8.5 -5.5t-6.5 -7t-4.5 -9t-2 -10t1 -9.5t3.5 -9t6.5 -7.5l97 -98l-22 -135q-1 -5 -0.5 -10
t2.5 -9.5t5 -8.5t8 -7q2 -2 4.5 -3.5t5.5 -2t5.5 -1t5.5 -0.5q2 0 4.5 0.5t4.5 1t4.5 1t4.5 1.5l116 63l116 -63q2 -1 4.5 -1.5t4.5 -1t4.5 -1t4.5 -0.5q3 0 5.5 0.5t5.5 1t5.5 2t4.5 3.5q5 3 8 7t5 8.5t2.5 9.5t-0.5 10l-22 135l98 98q3 3 5.5 7.5t3.5 9t1 9.5t-2 10v0z
M377 170q-3 -3 -5 -6.5t-3.5 -7.5t-1.5 -8.5v-8.5l23 -135l-116 63q-2 1 -4.5 1.5t-4.5 1t-4.5 1t-4.5 0.5t-4.5 -0.5t-4.5 -1t-4.5 -1t-4.5 -1.5l-116 -63l23 135v8.5t-1.5 8.5t-3.5 7.5t-5 6.5l-98 98l133 20q5 0 9 2t7.5 4.5t6.5 6t5 7.5l58 120l58 -120q2 -4 5 -7.5
t6.5 -6t7.5 -4.5t9 -3l133 -19l-98 -98v0z" />
    <glyph glyph-name="uniE68F" unicode="&#xe68f;" 
d="M470 439q-10 10 -21 17.5t-23 12.5t-25 8t-26 3q-11 0 -21 -2t-19.5 -6t-18 -9.5t-16.5 -12.5l-77 -78q0 -1 -0.5 -1h-0.5v0v0v0v0v0v-1v0l-166 -166q-3 -3 -5 -6t-4.5 -6.5t-4 -7.5t-2.5 -7l-38 -137v-1.5t-0.5 -4t-1 -5.5t-0.5 -5q0 -12 4.5 -22t12 -17.5t17.5 -12
t22 -4.5q2 0 5.5 0.5t6 1t4.5 1t3 0.5l135 36q4 1 7.5 2.5t7 3.5t7 4.5t6.5 5.5l244 246q16 17 23.5 38.5t6 44t-12 45.5t-29.5 42v0zM256 99q0 6 -1 11t-2.5 10.5t-3.5 10.5l-4 10l151 152q3 -11 4 -22t-1 -21.5t-6.5 -20t-12.5 -16.5v-1v0v0v0v0l-124 -125v3.5v3v3v2.5v0z
M237 156q-3 4 -5 7.5t-5 7t-5.5 6.5t-5.5 7q-4 3 -8 6.5t-8 6.5t-8.5 5.5t-8.5 4.5l152 153q5 -2 9.5 -4.5t8.5 -5.5l8 -6t8 -7q3 -3 6 -6.5t5.5 -7t4.5 -7.5t4 -7l-152 -153v0zM168 215q-6 2 -11.5 4t-11.5 3t-11.5 2t-11.5 1l123 124q7 7 15.5 11.5t18 6.5t19.5 1.5
t21 -2.5l-151 -151v0zM67 2q-1 0 -2.5 -0.5t-3 -0.5t-3 -0.5t-2.5 -0.5q-5 0 -9.5 2t-7.5 5t-5 7.5t-2 9.5v2.5t0.5 2.5t0.5 2t1 2l16 61q7 0 14 -1t14 -4t13.5 -7t12.5 -10t10 -12.5t7 -13.5t4.5 -14t0.5 -14l-59 -16v0zM142 22q0 8 -2 16t-5 16t-8 15.5t-12 13.5
q-6 6 -13 11t-15 8.5t-16 5.5t-16 2l16 58q0 2 1 3t1.5 2.5t1.5 3t2 2.5q12 9 27 12t30.5 0.5t30.5 -10t28 -20.5q14 -14 21.5 -30t9.5 -32.5t-2.5 -31.5t-14.5 -27q-1 -1 -1.5 -1t-1.5 -0.5t-1.5 -0.5t-1.5 -1l-59 -15v0zM459 292l-27 -28v3.5v2.5v2.5v2.5q-1 12 -4 23.5
t-8.5 22t-12.5 20.5t-15 19q-10 9 -21.5 17t-23.5 13t-24.5 8t-25.5 3l26 26q5 5 11 9t12.5 6.5t14 4t14.5 1.5q10 0 19.5 -2t19 -6t18 -10t16.5 -14q7 -7 12.5 -15t9.5 -16.5t6.5 -17.5t3.5 -18q0 -8 -1 -16t-3.5 -15.5t-6.5 -14t-10 -11.5v0z" />
    <glyph glyph-name="uniE690" unicode="&#xe690;" 
d="M503 325l-81 81q-3 3 -5 4.5t-5.5 3t-6 2t-6.5 0.5h-285q-4 0 -6.5 -0.5t-6 -2t-5.5 -3t-5 -4.5l-81 -81q-3 -2 -4 -5t-3 -5.5t-2 -6t-1 -6.5q1 -2 1 -5t1.5 -5.5t2.5 -5t4 -5.5l223 -238q3 -3 5.5 -5t6 -3.5t6.5 -2t7 -0.5q2 0 6 0.5t6.5 2t6 3.5t4.5 5l225 238
q1 3 3 5.5t2.5 5t1.5 5.5t0 6q1 3 0 6l-2 6t-3 5.5t-3 4.5h-1zM292 304h-71l35 29l37 -29h-1zM269 344l44 36l32 -32l-40 -34l-36 30v0zM209 314l-42 34l34 32l43 -36l-35 -30v0zM296 288l-39 -199l-41 199h81h-1zM312 288h80l-119 -196l40 196h-1zM316 304l41 33l32 -33
h-72h-1zM331 384h58l-32 -26l-25 26h-1zM256 354l-35 30h70l-34 -30h-1zM155 358l-30 26h56l-25 -26h-1zM156 337l41 -33h-74l34 33h-1zM200 288l40 -196l-119 196h80h-1zM203 120l-156 168h56l101 -168h-1zM409 288h58l-158 -168l101 168h-1zM411 304l-42 43l36 31l75 -74
h-69v0zM108 378l36 -31l-42 -43h-70l76 74v0z" />
    <glyph glyph-name="uniE691" unicode="&#xe691;" 
d="M432 400h-352q-3 0 -6 -1t-5 -3.5t-3.5 -5.5t-1.5 -6v-224q0 -3 1.5 -6t3.5 -5t5 -3.5t6 -1.5h352q3 0 6 1.5t5 3.5t3.5 5t1.5 6v224q0 3 -1.5 6t-3.5 5.5t-5 3.5t-6 1v0zM432 160h-352v224h352v-224v0zM464 464h-416q-10 0 -18.5 -4t-15 -10.5t-10.5 -15t-4 -18.5v-320
q0 -10 4 -18.5t10 -15t15 -10.5t18 -4h161l-1 -19l-99 -13q-4 -1 -5.5 -2.5l-3.5 -3.5t-2.5 -4.5t-1.5 -5.5l2 -6t3.5 -5t5 -3.5t6.5 -1.5h287q4 0 6.5 1.5t5 3.5t3.5 5l2 6q-1 3 -1.5 5.5t-2.5 4.5l-3.5 3.5t-5.5 2.5l-99 13l-1 19h161q9 0 18 4t15 10.5t10 15t4 18.5v320
q0 10 -4 18.5t-10.5 15t-15 10.5t-18.5 4h1zM479 96q0 -3 -1.5 -6t-3.5 -5t-5 -3.5t-6 -1.5h-416q-3 0 -6 1.5t-5 3.5t-3.5 5t-1.5 6v320q0 3 1.5 6t3.5 5t5 3.5t6 1.5h416q3 0 6 -1.5t5 -3.5t3.5 -5t1.5 -6v-320v0z" />
    <glyph glyph-name="uniE692" unicode="&#xe692;" 
d="M505 477q-1 1 -2 1.5t-2.5 1t-2.5 0.5h-2h-2t-2.5 -0.5t-2.5 -1t-2 -1.5l-480 -320q-2 -1 -3.5 -2.5t-2 -3.5l-1 -4t-0.5 -5q0 -2 1 -4t2.5 -3.5l3 -3t3.5 -2.5l125 -50l59 -103q1 -2 2.5 -3.5t3.5 -2.5t4 -1.5t4 -0.5v0v0v0v0q2 0 4 0.5t4 1.5t3.5 2.5t2.5 3.5l33 55
l155 -62q1 0 1.5 -0.5t1.5 -0.5h1.5h1.5h2t2 0.5l2 1t2 0.5q1 1 2.5 2t2.5 2.5t1.5 3.5t1.5 3l80 480v5t-1 4.5t-2.5 4t-3.5 2.5v0zM50 148l371 247l-270 -289q0 1 -0.5 1t-1 0.5l-1 1t-1.5 0.5l-97 39v0zM163 95v0v0v0v0l303 325l-258 -403l-45 78v0zM403 6l-136 55
q-1 0 -2.5 0.5t-2.5 0.5t-2.5 0.5t-2.5 0.5l210 326l-64 -383v0z" />
    <glyph glyph-name="uniE693" unicode="&#xe693;" 
d="M128 384v48q0 10 -4 18.5t-10.5 15t-15 10.5t-18.5 4t-18.5 -4t-15 -10.5t-10.5 -15t-4 -18.5v-48q-7 -6 -13 -13t-10 -15t-6.5 -17t-2.5 -19t2.5 -19t6.5 -17t10 -15t13 -13v-240q0 -10 4 -18.5t10.5 -15t15 -10.5t18.5 -4t18.5 4t15 10.5t10.5 15t4 18.5v240q7 6 13 13
t10 15t6.5 17t2.5 19t-2.5 19t-6.5 17t-10 15t-13 13v0zM64 432q0 3 1.5 6t3.5 5t5 3.5t6 1.5t6 -1.5t5 -3.5t3.5 -5t1.5 -6v-34q-2 1 -4 1t-4 0.5t-4 0.5h-4h-4t-4 -0.5t-4 -0.5t-4 -1v34v0zM96 16q0 -3 -1.5 -6t-3.5 -5t-5 -3.5t-6 -1.5t-6 1.5t-5 3.5t-3.5 5t-1.5 6v226
q2 -1 4 -1t4 -0.5t4 -0.5h4h4t4 0.5t4 0.5t4 1v-226v0zM126 307v-1l-0.5 -0.5t-0.5 -1v-0.5q-1 -2 -1.5 -3.5l-1 -3t-1.5 -2.5t-2 -3v0v0v0v0l-2.5 -2.5t-2.5 -3t-2.5 -2.5t-2.5 -2v0v0v0v0q-2 -1 -3.5 -2l-3 -2t-3 -1.5t-3.5 -1.5t-4 -1.5l-4 -1t-4 -0.5h-4h-4t-4 0.5l-4 1
t-4 1.5t-3.5 1.5t-3 1.5l-3 2t-3.5 2v0v0v0v0q-1 1 -2.5 2t-2.5 2.5t-2.5 3l-2.5 2.5v0v0v0v0q-1 2 -2 3t-1.5 2.5t-1.5 3t-1 3.5v0.5t-0.5 1l-0.5 0.5v1t-0.5 2.5t-1 3.5t-0.5 3.5v3.5v3.5t0.5 3.5t1 3.5t0.5 2.5v1l0.5 0.5t0.5 1v0.5q1 2 1.5 3.5l1 3t1.5 2.5t2 3v0v0v0v0
l2.5 2.5t2.5 3t2.5 2.5t2.5 2v0v0v0v0q2 1 3.5 2l3 2t3 1.5t3.5 1.5t4 1.5l4 1t4 0.5h4h4t4 -0.5l4 -1t4 -1.5t3.5 -1.5t3 -1.5l3 -2t3.5 -2v0v0v0v0q1 -1 2.5 -2t2.5 -2.5t2.5 -3l2.5 -2.5v0v0v0v0q1 -2 2 -3t1.5 -2.5l1 -3t1.5 -3.5v-0.5t0.5 -1l0.5 -0.5v-1t0.5 -2.5
t1 -3.5t0.5 -3.5v-3.5v-3.5t-0.5 -3.5t-1 -3.5t-0.5 -2.5v0zM480 384v48q0 10 -4 18.5t-10.5 15t-15 10.5t-18.5 4t-18.5 -4t-15 -10.5t-10.5 -15t-4 -18.5v-48q-7 -6 -13 -13t-10 -15t-6.5 -17t-2.5 -19t2.5 -19t6.5 -17t10 -15t13 -13v-240q0 -10 4 -18.5t10.5 -15
t15 -10.5t18.5 -4t18.5 4t15 10.5t10.5 15t4 18.5v240q7 6 13 13t10 15t6.5 17t2.5 19t-2.5 19t-6.5 17t-10 15t-13 13v0zM416 432q0 3 1.5 6t3.5 5t5 3.5t6 1.5t6 -1.5t5 -3.5t3.5 -5t1.5 -6v-34q-2 1 -4 1t-4 0.5t-4 0.5h-4h-4t-4 -0.5t-4 -0.5t-4 -1v34v0zM448 16
q0 -3 -1.5 -6t-3.5 -5t-5 -3.5t-6 -1.5t-6 1.5t-5 3.5t-3.5 5t-1.5 6v226q2 -1 4 -1t4 -0.5t4 -0.5h4h4t4 0.5t4 0.5t4 1v-226v0zM478 307v-1l-0.5 -0.5t-0.5 -1v-0.5q-1 -2 -1.5 -3.5l-1 -3t-1.5 -2.5t-2 -3v0v0v0v0l-2.5 -2.5t-2.5 -3t-2.5 -2.5t-2.5 -2v0v0v0v0
q-2 -1 -3.5 -2l-3 -2t-3 -1.5t-3.5 -1.5t-4 -1.5l-4 -1t-4 -0.5h-4h-4t-4 0.5l-4 1t-4 1.5t-3.5 1.5t-3 1.5l-3 2t-3.5 2v0v0v0v0q-1 1 -2.5 2t-2.5 2.5t-2.5 3l-2.5 2.5v0v0v0v0q-1 2 -2 3t-1.5 2.5t-1.5 3t-1 3.5v0.5t-0.5 1l-0.5 0.5v1t-0.5 2.5t-1 3.5t-0.5 3.5v3.5v3.5
t0.5 3.5t1 3.5t0.5 2.5v1l0.5 0.5t0.5 1v0.5q1 2 1.5 3.5l1 3t1.5 2.5t2 3v0v0v0v0l2.5 2.5t2.5 3t2.5 2.5t2.5 2v0v0v0v0q2 1 3.5 2l3 2t3 1.5t3.5 1.5t4 1.5l4 1t4 0.5h4h4t4 -0.5l4 -1t4 -1.5t3.5 -1.5t3 -1.5l3 -2t3.5 -2v0v0v0v0q1 -1 2.5 -2t2.5 -2.5t2.5 -3l2.5 -2.5
v0v0v0v0q1 -2 2 -3t1.5 -2.5l1 -3t1.5 -3.5v-0.5t0.5 -1l0.5 -0.5v-1t0.5 -2.5t1 -3.5t0.5 -3.5v-3.5v-3.5t-0.5 -3.5t-1 -3.5t-0.5 -2.5v0zM304 192v240q0 10 -4 18.5t-10.5 15t-15 10.5t-18.5 4t-18.5 -4t-15 -10.5t-10.5 -15t-4 -18.5v-240q-7 -6 -13 -13t-10 -15
t-6.5 -17t-2.5 -19t2.5 -19t6.5 -17t10 -15t13 -13v-48q0 -10 4 -18.5t10.5 -15t15 -10.5t18.5 -4t18.5 4t15 10.5t10.5 15t4 18.5v48q7 6 13 13t10 15t6.5 17t2.5 19t-2.5 19t-6.5 17t-10 15t-13 13v0zM240 432q0 3 1.5 6t3.5 5t5 3.5t6 1.5t6 -1.5t5 -3.5t3.5 -5t1.5 -6
v-226q-2 1 -4 1t-4 0.5t-4 0.5h-4h-4t-4 -0.5t-4 -0.5t-4 -1v226v0zM272 16q0 -3 -1.5 -6t-3.5 -5t-5 -3.5t-6 -1.5t-6 1.5t-5 3.5t-3.5 5t-1.5 6v34q2 -1 4 -1t4 -0.5t4 -0.5h4h4t4 0.5t4 0.5t4 1v-34v0zM302 115v-1l-0.5 -0.5t-0.5 -1v-0.5q-1 -2 -1.5 -3.5l-1 -3
t-1.5 -2.5t-2 -3v0v0v0v0l-2.5 -2.5t-2.5 -3t-2.5 -2.5t-2.5 -2v0v0v0v0q-2 -1 -3.5 -2l-3 -2t-3 -1.5t-3.5 -1.5t-4 -1.5l-4 -1t-4 -0.5h-4h-4t-4 0.5l-4 1t-4 1.5t-3.5 1.5t-3 1.5l-3 2t-3.5 2v0v0v0v0q-1 1 -2.5 2t-2.5 2.5t-2.5 3l-2.5 2.5v0v0v0v0q-1 2 -2 3t-1.5 2.5
t-1.5 3t-1 3.5v0.5t-0.5 1l-0.5 0.5v1t-0.5 2.5t-1 3.5t-0.5 3.5v3.5v3.5t0.5 3.5t1 3.5t0.5 2.5v1l0.5 0.5t0.5 1v0.5q1 2 1.5 3.5l1 3t1.5 2.5t2 3v0v0v0v0l2.5 2.5t2.5 3t2.5 2.5t2.5 2v0v0v0v0q2 1 3.5 2l3 2t3 1.5t3.5 1.5t4 1.5l4 1t4 0.5h4h4t4 -0.5l4 -1t4 -1.5
t3.5 -1.5t3 -1.5l3 -2t3.5 -2v0v0v0v0q1 -1 2.5 -2t2.5 -2.5t2.5 -3l2.5 -2.5v0v0v0v0q1 -2 2 -3t1.5 -2.5l1 -3t1.5 -3.5v-0.5t0.5 -1l0.5 -0.5v-1t0.5 -2.5t1 -3.5t0.5 -3.5v-3.5v-3.5t-0.5 -3.5t-1 -3.5t-0.5 -2.5v0z" />
    <glyph glyph-name="uniE694" unicode="&#xe694;" 
d="M503 311l-160 160q-3 3 -6.5 5t-7.5 3t-8.5 1t-8.5 -1q-2 0 -4 -1l-4 -2t-3.5 -2.5t-3.5 -2.5q-1 -2 -2 -3.5l-2 -3t-2 -3.5l-2 -4q-2 -8 -6 -16.5t-8.5 -16t-10.5 -15t-13 -14.5q-9 -9 -19.5 -17.5t-22.5 -16l-24 -15t-25 -14.5q-14 -8 -27.5 -16t-27 -17t-26 -19
t-23.5 -22q-10 -10 -18.5 -20t-15 -21t-12 -23t-9.5 -25q-1 -4 -1 -8.5t1 -8.5t3 -7.5t5 -7.5l160 -160q3 -3 6.5 -5t7.5 -3t8.5 -1t8.5 1q2 0 4 1l4 2t3.5 2.5t3.5 2.5q1 2 2 3.5l2 3t2 3.5l2 4q2 8 6 16.5t8.5 16t10.5 15t13 14.5q9 9 19.5 17.5t22.5 16l24 15t25 14.5
q14 8 27.5 16t27 17t26 19t23.5 22q10 10 18.5 20t15 21t12 23t9.5 25q1 4 1 8.5t-1 8.5t-3 7.5t-5 7.5v0zM192 0l-40 40l-40 40l-40 40l-40 40q17 55 58 86.5t86 57.5t86 57.5t58 86.5l40 -40l40 -40l40 -40l40 -40q-17 -55 -58 -86.5t-86 -57.5t-86 -57.5t-58 -86.5v0z
M313 242q-2 1 -4 2.5t-4 2.5l-4 2t-4 1q-2 1 -4 1.5t-4 0.5h-4h-4t-4 -0.5l-4 -1l-4 -1t-4 -1.5q-2 0 -4 -1l-4 -2l-4 -2l-4 -2q-3 4 -6 7.5t-6.5 7.5t-6.5 7.5t-7 6.5q2 1 3.5 2l3 2t2.5 1t3 1q1 0 2.5 -0.5t2.5 -0.5h2.5t2.5 -1h2.5t2.5 -0.5t2 -0.5t2 -1h3t1.5 0.5t1.5 1
t2 0.5q1 1 1.5 2l1 2l1 2t0.5 2t-0.5 2t-0.5 2.5t-1 2.5l-2 2q-1 2 -2.5 3l-3 2t-3 1.5t-3.5 0.5q-2 1 -4 1h-3.5t-3.5 -0.5t-4 -0.5q-2 -1 -4 -1.5t-3.5 -1t-3.5 -1.5l-4 -2q-1 -1 -2.5 -2l-3 -2t-2.5 -2l-2 -2q-1 0 -1.5 0.5t-0.5 1t-0.5 1t-1.5 0.5l-0.5 0.5t-1 0.5
t-1 0.5t-1.5 0.5t-1.5 -0.5t-1 -0.5t-1 -0.5t-0.5 -1.5q-1 0 -1 -0.5t-0.5 -1t-0.5 -1v-1.5t0.5 -1.5t0.5 -1t0.5 -1l0.5 -0.5q1 0 1 -0.5t0.5 -1t1 -0.5t0.5 -1q-1 -2 -2.5 -4t-2.5 -4t-2.5 -4t-2.5 -4t-1.5 -4t-1.5 -4.5t-1 -4.5t-1 -4v-4t0.5 -4t0.5 -4t1 -3l2 -4t2 -3.5
t2.5 -3t3.5 -2.5q2 -3 5.5 -4.5t6.5 -2.5t6.5 -1.5t7.5 0.5q4 0 8 0.5t8 2t8.5 3t8.5 4.5q4 -5 7.5 -9l7 -8t7 -7.5l7.5 -7.5q-2 -1 -3 -2t-2.5 -2t-3 -1.5t-2.5 -0.5t-2 -0.5t-2 -0.5t-2 0.5t-2 0.5t-2 0.5l-2 1t-1.5 1t-1.5 0.5l-1.5 1.5t-1.5 1l-2 1l-1 0.5q-1 0 -2 0.5
t-1.5 0.5t-1.5 0.5t-2 0.5t-1.5 -0.5t-1.5 -0.5t-2 -1t-2 -1q-1 -1 -1.5 -2l-1 -2l-1 -2t-0.5 -2q0 -2 0.5 -3l1 -2l1 -2t1.5 -2q1 -2 2.5 -3t2.5 -2t2.5 -1.5t3.5 -1.5q1 -1 3 -1.5l4 -1t3.5 -1t3.5 -0.5h4t4.5 0.5t4.5 1t4 1.5t4.5 2t4.5 2.5t4.5 3.5t4.5 4l2 -2l2 -2
l2 -2l2 -2t1.5 -1h1t1 -0.5l0.5 -0.5q1 0 1.5 0.5t1 0.5t1 0.5l1.5 1.5l0.5 0.5t0.5 1.5v1.5v0.5v1.5t-0.5 1t-0.5 1t-1 0.5l-2 2l-2 2t-2 1.5t-2 1.5q2 3 3.5 5t3 4.5t2.5 4.5t2 5l2 4t1.5 4.5t1 4.5t0.5 4q1 2 1 4t-0.5 4l-1 4t-0.5 3q-1 2 -2 3.5l-2 3t-2.5 3l-3.5 3.5v0
zM224 231h-3.5t-3 0.5t-3 1.5t-2.5 2l-1.5 1.5l-1 1t-0.5 1.5t-1 2v1v2v1.5v1.5v2t0.5 2l1 2t0.5 2t1 2l1.5 1.5t1 1.5t1.5 2l6 -6t6 -6.5t6.5 -6.5t6.5 -7q-3 -1 -5 -2t-4 -1.5l-4 -1t-3 -0.5v0zM299 199q-1 -1 -1.5 -2l-1 -2l-1 -2t-1.5 -1l-6.5 6.5l-7 7t-7 7.5t-6.5 8
q1 0 2 0.5l2 1t1.5 1t1.5 0.5t2 0.5l2 1t2 0.5h2t2 0.5t2 0t2 -0.5h2t2 -0.5l2 -1t2 -1.5l1 -1l2 -2t1.5 -2t0.5 -2t1 -1v-2v-2v-2v-2t-0.5 -2l-1 -2t-0.5 -2t-1 -2v0zM235 125l3 1.5t2.5 0.5t3 -0.5t2.5 -1.5q1 -2 2 -3.5t1 -3t-1 -3t-2 -2.5v0v0h-0.5h-0.5v0
q-3 -3 -6.5 -6l-7 -6l-7 -6t-6.5 -6l-6 -6t-5.5 -6.5t-5 -6.5t-5.5 -6l-10 -14v-1h-0.5t-0.5 -0.5v-0.5q-1 -1 -2.5 -1.5t-3 -0.5t-3 0.5t-3.5 1.5q-1 1 -1.5 2.5t-0.5 2.5t0.5 2.5t0.5 2.5v0l11 15q3 4 5.5 7.5t5.5 6.5t6 6.5t7 6.5q3 4 6.5 7l7 6t7.5 6t7 6v0v0zM294 357
l6 6t5.5 6t5 6.5t5.5 6.5l10 14l1 1v0.5t0.5 0.5h0.5q1 2 2.5 2.5t3 0.5t3 -0.5t2.5 -2.5q1 -1 2 -2.5t1 -2.5t-0.5 -2.5t-1.5 -3.5v0l-11 -15q-3 -3 -5.5 -6.5t-5.5 -7t-6 -6.5l-7 -7l-6.5 -6.5t-7 -6.5t-7.5 -6t-7 -6v0q-2 -1 -3.5 -1.5t-3 -0.5t-3 0.5t-2.5 2.5
q-1 1 -1.5 2.5t-0.5 3t0.5 3t1.5 2.5q1 0 1 0.5v0.5h0.5h0.5q4 3 7.5 6t6.5 5.5t6.5 5.5t6.5 7v0z" />
    <glyph glyph-name="uniE695" unicode="&#xe695;" 
d="M351 462q-49 20 -100 18.5t-96 -20.5t-81 -55.5t-56 -84.5q-19 -50 -18 -100.5t20.5 -96t55.5 -81t85 -56.5q49 -18 100 -17.5t96 20.5t81 55.5t56 85.5q19 48 18 99.5t-20.5 96t-55.5 81t-85 55.5v0zM173 17q-43 16 -74.5 48t-48.5 71t-18 84t16 87q17 44 48.5 75
t71 48.5t84 18t87.5 -15.5q43 -18 74.5 -49t48.5 -71t18 -84t-16 -88q-17 -42 -48.5 -74t-71 -48.5t-84 -18t-87.5 16.5v0zM268 254q-6 3 -12.5 2.5t-12 -2.5t-10 -7t-7.5 -10q-2 -7 -2 -13t2.5 -12t7 -10t10.5 -8q6 -1 12.5 -1.5t12 2.5t10 7t7.5 11q2 5 2 12t-2.5 12
t-7 10t-10.5 7v0zM250 210q-3 0 -5 3t-3.5 5t-1.5 6t1 6q1 4 3.5 5.5t5.5 3.5t6 1.5t6 -0.5q3 -2 5.5 -4t3.5 -5.5t1 -6t-1 -6.5q-1 -2 -3.5 -5t-5 -3.5t-6 -1t-6.5 1.5v0zM292 313q-19 8 -38 7t-36 -7.5t-30.5 -20.5t-20.5 -31q-7 -20 -6.5 -38.5t7.5 -36t20.5 -30.5
t31.5 -21q19 -7 38 -7t36 8t30.5 21t20.5 32q8 18 7.5 37.5t-8 36t-21 30.5t-31.5 20v0zM232 166q-12 3 -21 12.5t-14 20.5t-5 24t5 25q5 13 14 21.5t20 14t24 5t25 -4.5q12 -6 21 -14.5t14 -20t5 -24t-4 -25.5q-5 -11 -14 -20.5t-20.5 -14t-24 -5t-25.5 5.5v0zM375 176v1
q-5 -13 -12 -23t-16 -19.5t-19 -16t-21 -12.5q0 1 0 0.5v0v0t-1 0.5q-1 -1 -2.5 -0.5t-3 0.5t-2.5 1.5t-2 1.5q-1 3 -1 4t0.5 3t2 2.5t2.5 2.5q10 3 19 9.5t16.5 14t14 17.5t10.5 19v1q1 1 2 2.5t2.5 1.5t3 0.5t2.5 -0.5q2 0 3 -1.5t1.5 -2.5t1 -3t-0.5 -3v-1zM430 163
q1 0 2.5 -1.5t2 -2.5t0.5 -3t-1 -2q-7 -20 -17.5 -35.5t-23.5 -29t-28.5 -23.5t-32.5 -18q0 1 0 0.5v0t0 -0.5v0q-2 -1 -3.5 -0.5t-3 0.5t-2.5 1.5t-2 2.5q-1 2 -1 3t1 3t2 3l2 2q16 6 30 16t26 21.5t22 27t16 31.5q1 2 2 2.5t2.5 2t3 1t3.5 -0.5v-1zM400 175q2 0 3 -1.5
t1.5 -2.5t0.5 -3v-3q-7 -16 -15.5 -28.5t-19.5 -24t-23.5 -20t-27.5 -15.5q0 1 0 0.5v0v0t0 0.5q-1 -2 -3 -1.5t-3.5 0.5t-2.5 2l-1 2q-1 3 -1 4t0.5 3t1.5 2.5t3 2.5v-1q12 6 24 13.5t21.5 18t17.5 22t14 25.5q0 1 1.5 2.5t2.5 1.5t3 0.5t3 -0.5v0zM216 338q1 -2 1 -3
t-0.5 -3t-1.5 -2.5t-3 -2.5q-10 -3 -19 -9.5t-16.5 -14t-14 -17.5t-10.5 -19v-1q-1 -1 -2 -2.5t-2.5 -1.5t-3 -0.5t-2.5 0.5q-2 0 -3 1.5t-1.5 2.5t-0.5 3v3v1q5 11 12 22t16 19.5t19 16t21 10.5q0 1 0 0.5t0.5 0.5t0.5 0.5t0 0.5q1 -1 2.5 -0.5t3 -0.5t3 -1.5t1.5 -3.5v1z
M191 397q1 -2 1 -3t-0.5 -3t-2 -3t-2.5 -2q-16 -6 -30 -16t-26 -21.5t-22 -27t-16 -31.5q-1 -2 -2 -2.5t-2.5 -2t-3 -1t-3.5 0.5q-1 2 -2 2.5t-2 2.5t-1 3t1 3q7 18 17.5 34.5t24 29t28.5 23.5t32 17q0 1 0 0.5v0v0t0 0.5q2 0 3.5 0.5t3 -0.5t2.5 -1.5t2 -3.5v1zM199 357v-1
q-12 -4 -23.5 -12.5t-21.5 -18t-18 -22t-14 -25.5q0 -2 -1 -2.5t-2.5 -2t-3 -1t-3.5 0.5q-2 2 -3 2.5t-1.5 2.5t-0.5 3t1 3q6 15 14.5 28.5t19.5 24t24 20t27 14.5q0 1 0 0.5v0v0t0 0.5q2 0 3.5 0.5t3 -0.5t2.5 -2t2 -3v-3t-0.5 -3t-1.5 -2.5t-3 -1.5v0z" />
    <glyph glyph-name="uniE696" unicode="&#xe696;" 
d="M397 297q-1 2 -2.5 3l-3 2t-3.5 1.5t-4 0.5h-16q-3 0 -6 -1.5t-5 -3.5t-3.5 -5t-1.5 -6v-96q0 -3 1.5 -6t3.5 -5t5 -3.5t6 -1.5h64q3 0 6 1.5t5 3.5t3.5 5t1.5 6v24v2.5t-0.5 2.5l-1 2t-1.5 2l-48 72v0zM432 192h-64v96h16l48 -72v-24v0zM504 235l-64 96q-3 5 -7.5 9
t-10 6.5t-11 4t-11.5 1.5h-64v32q0 10 -4 18.5t-10.5 15t-15 10.5t-18.5 4h-240q-10 0 -18.5 -4t-15 -10.5t-10.5 -15t-4 -18.5v-176q0 -10 4 -18.5t10.5 -15t15 -10.5t18.5 -4v0v-48q0 -10 4 -18.5t10.5 -15t15 -10.5t18.5 -4h18q3 -10 9 -19t14 -15.5t18 -10t21 -3.5
t21 3.5t18 10t14 15.5t9 19h84q3 -10 9 -19t14 -15.5t18 -10t21 -3.5t21 3.5t18 10t14 15.5t9 19h18q10 0 18.5 4t15 10.5t10.5 15t4 18.5v96q0 4 -0.5 7.5t-1.5 6.5t-2.5 6.5t-3.5 6.5v0zM48 192q-3 0 -6 1.5t-5 3.5t-3.5 5t-1.5 6v176q0 3 1.5 6t3.5 5t5 3.5t6 1.5h240
q3 0 6 -1.5t5 -3.5t3.5 -5t1.5 -6v-176q0 -3 -1.5 -6t-3.5 -5t-5 -3.5t-6 -1.5h-240v0zM176 48q-7 0 -12.5 2.5t-10 7t-7 10t-2.5 12.5t2.5 12.5t7 10t10 7t12.5 2.5t12.5 -2.5t10 -7t7 -10t2.5 -12.5t-2.5 -12.5t-7 -10t-10 -7t-12.5 -2.5v0zM384 48q-7 0 -12.5 2.5t-10 7
t-7 10t-2.5 12.5t2.5 12.5t7 10t10 7t12.5 2.5t12.5 -2.5t10 -7t7 -10t2.5 -12.5t-2.5 -12.5t-7 -10t-10 -7t-12.5 -2.5v0zM480 112q0 -3 -1.5 -6t-3.5 -5t-5 -3.5t-6 -1.5h-18q-3 10 -9 19t-14 15.5t-18 10t-21 3.5t-21 -3.5t-18 -10t-14 -15.5t-9 -19h-84q-3 10 -9 19
t-14 15.5t-18 10t-21 3.5t-21 -3.5t-18 -10t-14 -15.5t-9 -19h-18q-3 0 -6 1.5t-5 3.5t-3.5 5t-1.5 6v48h208q10 0 18.5 4t15 10.5t10.5 15t4 18.5v112h64q2 0 4 -0.5t3.5 -1.5l3 -2t2.5 -3l64 -96q1 -1 1.5 -2l1 -2t0.5 -2.5v-2.5v-96v0z" />
    <glyph glyph-name="uniE697" unicode="&#xe697;" 
d="M248 480q-51 0 -96.5 -19.5t-79 -53t-53 -79t-19.5 -96.5t19.5 -96.5t53 -79t79 -53t96.5 -19.5t96.5 19.5t79 53t53 79t19.5 96.5t-19.5 96.5t-53 79t-79 53t-96.5 19.5v0zM464 240h-96l-2 26t-3.5 25.5t-6 25t-7.5 23.5l16 8t15.5 8t14.5 9l14 10q12 -13 22 -28.5
t17 -33t11 -36t5 -37.5v0zM239 16q-10 9 -19 18.5t-17.5 20t-15.5 22t-13 24.5l16 4t16 3.5t16.5 2t17.5 1.5v-96v0h-0.5h-0.5v0v0zM257 448q11 -10 21.5 -21t19.5 -23.5t16.5 -26t13.5 -27.5q-8 -3 -17 -5.5t-18 -4t-18.5 -2.5t-18.5 -2v112v0h0.5h0.5v0v0zM283 445
q17 -3 32.5 -8t30 -12.5t28 -17t24.5 -20.5q-6 -5 -12.5 -9.5t-13.5 -8.5t-14 -7.5t-15 -6.5q-5 13 -11.5 25t-14 23.5t-16 22t-18.5 19.5v0zM240 448v-112q-9 1 -18.5 2t-18.5 2.5t-18 4t-17 5.5q6 14 13.5 27.5t16.5 26t19.5 23.5t21.5 21v0h0.5h0.5v0v0zM153 355
q-8 3 -15 6.5t-14 7.5t-13.5 8.5t-12.5 9.5q11 11 24.5 20.5t28 17t30 12.5t32.5 8q-10 -9 -18.5 -19.5t-16 -22t-14 -23.5t-11.5 -25v0zM162 335q9 -3 18.5 -5.5t19.5 -4.5t20 -3l20 -2v-80h-96q1 13 2 25t3.5 24t5.5 23.5t7 22.5v0zM240 224v-96q-9 -1 -18.5 -2
t-18.5 -2.5t-18 -3.5t-18 -5q-5 13 -9 26t-7 26.5t-4.5 27.5t-2.5 29h96v0zM213 19q-15 3 -29.5 7t-27.5 10.5t-25 14.5t-23 17l12 8t12.5 7t13 6.5t13.5 5.5q5 -11 11 -21t13 -19.5t14 -18.5t16 -17v0zM256 16v96q9 -1 17 -1.5t16.5 -2t16.5 -3.5l16 -4q-6 -13 -13 -24.5
t-15.5 -22t-17.5 -20t-19 -18.5v0h-0.5h-0.5v0v0zM337 95q7 -2 13.5 -5.5t13 -6.5t12.5 -7l12 -8q-11 -9 -23 -17t-25 -14.5t-27.5 -10.5t-29.5 -7q9 8 16 17t14 18.5t13 19.5t11 21v0zM329 115q-9 3 -18 5t-18 3.5t-18.5 2.5t-18.5 2v96h96q-1 -15 -2.5 -29t-4.5 -27.5
t-7 -26.5t-9 -26v0zM256 240v80l20 2t20 2.5t19.5 4.5t18.5 6q4 -11 7 -22.5t5.5 -23.5t3.5 -24t2 -25h-96v0zM87 375l14 -10t14.5 -9t15.5 -8l16 -8q-4 -11 -7.5 -23.5t-6 -25t-3.5 -25.5l-2 -26h-96q1 19 5 37.5t11 36t17 33t22 28.5v0zM32 224h96q1 -15 2.5 -30
t4.5 -29.5t7.5 -28t9.5 -26.5q-7 -3 -14.5 -6.5t-14.5 -7.5l-14 -8t-13 -9q-14 14 -25.5 30.5t-19.5 35t-13 38.5t-6 41v0zM400 79q-6 5 -13 9l-14 8t-14.5 7.5t-14.5 6.5q5 13 9.5 26.5t7.5 28t4.5 29.5t2.5 30h96q-1 -21 -6 -41t-13 -38.5t-19.5 -35t-25.5 -30.5v0z" />
    <glyph glyph-name="uniE698" unicode="&#xe698;" 
d="M355 342q-16 3 -32.5 5.5t-32.5 4.5t-33 2.5t-32 0.5q-17 0 -33 -0.5t-33 -2.5t-32.5 -4.5t-33.5 -5.5q-1 0 -3 -1t-3.5 -2.5t-3 -3.5t-1.5 -4q-9 -26 -13 -52.5t-4.5 -53t4.5 -53t12 -52.5q2 -2 2.5 -3.5t3 -3t3.5 -2.5t4 -2q16 -3 32.5 -5.5t32.5 -4t33 -2.5t32 -1
q17 0 33 1t33 2.5t32.5 4t33.5 5.5q1 1 3.5 2t3.5 2.5t2.5 3t1.5 3.5q9 26 13 52.5t4.5 53t-4.5 53t-12 52.5q-2 2 -2.5 4t-2.5 3.5t-3.5 2.5t-4.5 1v0zM353 125q-33 -6 -64.5 -9.5t-64 -3.5t-63.5 3.5t-64 9.5q-8 25 -12.5 50.5t-4 50.5t4 50t13.5 50q31 7 63 10t63.5 3
t64 -3t63.5 -10q9 -25 12.5 -50t4 -50t-4 -50.5t-11.5 -50.5v0zM494 379q0 5 -3.5 9t-6.5 7.5t-8 5.5t-9 2q-27 3 -52.5 5.5t-52.5 4t-53 2.5t-53 1q-25 0 -52 -1t-52.5 -2.5t-52.5 -4t-52 -5.5q-6 0 -10 -2t-8 -5.5t-6 -7.5t-4 -9q-9 -39 -14 -77.5t-4.5 -77.5t4.5 -77.5
t15 -77.5q0 -5 3 -9t6 -7.5t8 -5.5t9 -2q13 -2 25.5 -3t25.5 -2.5t25 -2.5t26 -1q-2 -1 -2 -1.5t-0.5 -1t-0.5 -1t-1 -0.5q1 -3 9.5 -6t24 -5t35.5 -3.5t44 -1.5q22 0 43 1.5t35.5 3.5t24 5t8.5 6q1 0 0.5 0.5t-0.5 1t-1 1t-1 1.5q12 0 25 1t25 2.5t25.5 2.5t24.5 3
q6 0 10 2t8 5.5t6 7.5t5 9q8 39 13 77.5t4.5 77.5t-4.5 77.5t-14 77.5v0zM464 77q-53 -7 -104 -10t-103.5 -3t-103.5 3t-103 10q-8 36 -13 73t-4.5 74t4.5 74t14 73q50 7 102 10t103.5 3t103.5 -3t103 -10q9 -36 13 -73t4.5 -74t-4.5 -74t-12 -73v0zM424 288q6 0 10 2t7.5 5
t5 7.5t2.5 9.5q-1 5 -2.5 9.5t-5 7.5t-7.5 5t-10 2q-4 0 -9 -2t-7.5 -5t-5 -7.5t-1.5 -9.5q-1 -5 1.5 -9.5t5 -7.5t7.5 -5t9 -2v0zM425 320q1 0 3 -0.5t2.5 -1.5t1.5 -2.5t0 -3.5q1 -2 0 -3.5t-1.5 -2.5t-2.5 -1.5t-3 -0.5q-3 0 -3.5 0.5t-2.5 1.5t-2 2.5t-1 3.5q1 2 1 3.5
t2 2.5t2.5 1.5t3.5 0.5v0zM440 128q3 0 4 -0.5t2.5 -1.5t1.5 -2.5t1 -3.5q-1 -2 -1 -3.5t-1.5 -2.5t-2.5 -1.5t-4 -0.5h-47q-3 0 -3.5 0.5t-2.5 1.5t-2 2.5t-1 3.5q1 2 1 3.5t2 2.5t2.5 1.5t3.5 0.5h47v0zM457 176q1 0 3 -0.5t2.5 -1.5t1.5 -2.5t0 -3.5q1 -2 0 -3.5
t-1.5 -2.5t-2.5 -1.5t-3 -0.5h-49q-1 0 -2.5 0.5t-2.5 1.5t-2 2.5t0 3.5q-1 2 0 3.5t2 2.5t2.5 1.5t2.5 0.5h49v0zM456 224q3 0 4 -0.5t2.5 -1.5t1.5 -2.5t1 -3.5q-1 -2 -1 -3.5t-1.5 -2.5t-2.5 -1.5t-4 -0.5h-47q-3 0 -3.5 0.5t-2.5 1.5t-2 2.5t-1 3.5q1 2 1 3.5t2 2.5
t2.5 1.5t3.5 0.5h47v0zM217 291q1 0 3 -0.5t2.5 -1.5t1.5 -2.5t0 -3.5q1 -1 0 -2.5t-1.5 -2.5t-2.5 -2t-3 -1l-61 -4q-1 0 -3 -1t-2.5 -2t-2 -2.5t-0.5 -3.5l-4 -30q1 -2 0 -3.5t-1.5 -2.5t-2.5 -1.5t-3 -0.5q-3 0 -3.5 0.5t-2 1.5t-2 2.5t-0.5 3.5l5 45q0 1 1 2.5l2 3t3 2
t3 0.5l74 6v0z" />
    </font>
</defs>
</svg>
